Literata-M4Italic.ufo
<glyph name="percent" format="2">
	<unicode hex="0025"/>
	<advance width="861"/>
	<outline>
		<contour>
			<point x="577" y="597" type="line"/>
			<point x="183" y="-11" type="line"/>
			<point x="315" y="-11" type="line"/>
			<point x="708" y="597" type="line"/>
		</contour>
		<contour>
			<point x="55" y="430" type="curve" smooth="yes"/>
			<point x="55" y="339"/>
			<point x="115" y="274"/>
			<point x="217" y="274" type="curve" smooth="yes"/>
			<point x="315" y="274"/>
			<point x="393" y="333"/>
			<point x="393" y="443" type="curve" smooth="yes"/>
			<point x="393" y="551"/>
			<point x="317" y="597"/>
			<point x="233" y="597" type="curve" smooth="yes"/>
			<point x="143" y="597"/>
			<point x="55" y="553"/>
		</contour>
		<contour>
			<point x="185" y="434" type="curve" smooth="yes"/>
			<point x="185" y="491"/>
			<point x="200" y="514"/>
			<point x="224" y="514" type="curve" smooth="yes"/>
			<point x="252" y="514"/>
			<point x="260" y="488"/>
			<point x="260" y="439" type="curve" smooth="yes"/>
			<point x="260" y="380"/>
			<point x="249" y="359"/>
			<point x="223" y="359" type="curve" smooth="yes"/>
			<point x="194" y="359"/>
			<point x="185" y="387"/>
		</contour>
		<contour>
			<point x="500" y="142" type="curve" smooth="yes"/>
			<point x="500" y="51"/>
			<point x="560" y="-14"/>
			<point x="662" y="-14" type="curve" smooth="yes"/>
			<point x="760" y="-14"/>
			<point x="838" y="45"/>
			<point x="838" y="155" type="curve" smooth="yes"/>
			<point x="838" y="263"/>
			<point x="762" y="309"/>
			<point x="678" y="309" type="curve" smooth="yes"/>
			<point x="588" y="309"/>
			<point x="500" y="265"/>
		</contour>
		<contour>
			<point x="630" y="146" type="curve" smooth="yes"/>
			<point x="630" y="203"/>
			<point x="645" y="226"/>
			<point x="669" y="226" type="curve" smooth="yes"/>
			<point x="697" y="226"/>
			<point x="705" y="200"/>
			<point x="705" y="151" type="curve" smooth="yes"/>
			<point x="705" y="92"/>
			<point x="694" y="71"/>
			<point x="668" y="71" type="curve" smooth="yes"/>
			<point x="639" y="71"/>
			<point x="630" y="99"/>
		</contour>
	</outline>
</glyph>
<glyph name="hyphen" format="2">
	<unicode hex="002D"/>
	<advance width="381"/>
	<outline>
		<contour>
			<point x="57" y="339" type="line"/>
			<point x="52" y="207" type="line"/>
			<point x="344" y="207" type="line"/>
			<point x="349" y="339" type="line"/>
		</contour>
	</outline>
</glyph>
<glyph name="slash" format="2">
	<unicode hex="002F"/>
	<advance width="495"/>
	<outline>
		<contour>
			<point x="-4" y="-110" type="line"/>
			<point x="148" y="-110" type="line"/>
			<point x="523" y="802" type="line"/>
			<point x="373" y="802" type="line"/>
		</contour>
	</outline>
</glyph>
<glyph name="four" format="2">
	<unicode hex="0034"/>
	<advance width="675"/>
	<outline>
		<contour>
			<point x="541" y="282" type="line"/>
			<point x="563" y="708" type="line"/>
			<point x="552" y="717" type="line"/>
			<point x="356" y="705" type="line"/>
			<point x="15" y="264" type="line"/>
			<point x="23" y="164" type="line"/>
			<point x="320" y="164" type="line"/>
			<point x="316" y="110" type="line"/>
			<point x="174" y="92" type="line"/>
			<point x="168" y="0" type="line"/>
			<point x="621" y="0" type="line"/>
			<point x="627" y="94" type="line"/>
			<point x="535" y="108" type="line"/>
			<point x="538" y="164" type="line"/>
			<point x="650" y="164" type="line"/>
			<point x="656" y="282" type="line"/>
		</contour>
		<contour>
			<point x="324" y="282" type="line"/>
			<point x="140" y="282" type="line"/>
			<point x="340" y="534" type="line"/>
		</contour>
	</outline>
</glyph>
<glyph name="five" format="2">
	<unicode hex="0035"/>
	<advance width="616"/>
	<outline>
		<contour>
			<point x="343" y="234" type="curve" smooth="yes"/>
			<point x="343" y="138"/>
			<point x="289" y="75"/>
			<point x="224" y="75" type="curve" smooth="yes"/>
			<point x="172" y="75"/>
			<point x="171" y="99"/>
			<point x="184" y="130" type="curve" smooth="yes"/>
			<point x="197" y="161" type="line"/>
			<point x="177" y="186"/>
			<point x="146" y="203"/>
			<point x="109" y="203" type="curve" smooth="yes"/>
			<point x="48" y="203"/>
			<point x="19" y="154"/>
			<point x="19" y="112" type="curve" smooth="yes"/>
			<point x="19" y="31"/>
			<point x="105" y="-14"/>
			<point x="226" y="-14" type="curve" smooth="yes"/>
			<point x="431" y="-14"/>
			<point x="574" y="99"/>
			<point x="574" y="261" type="curve" smooth="yes"/>
			<point x="574" y="381"/>
			<point x="486" y="446"/>
			<point x="366" y="446" type="curve" smooth="yes"/>
			<point x="281" y="446"/>
			<point x="242" y="433"/>
			<point x="185" y="409" type="curve"/>
			<point x="204" y="548" type="line"/>
			<point x="532" y="548" type="line"/>
			<point x="549" y="700" type="line"/>
			<point x="137" y="700" type="line"/>
			<point x="120" y="686" type="line"/>
			<point x="88" y="359" type="line"/>
			<point x="130" y="304" type="line"/>
			<point x="180" y="325"/>
			<point x="214" y="333"/>
			<point x="252" y="333" type="curve" smooth="yes"/>
			<point x="308" y="333"/>
			<point x="343" y="304"/>
		</contour>
	</outline>
</glyph>
<glyph name="seven" format="2">
	<unicode hex="0037"/>
	<advance width="570"/>
	<outline>
		<contour>
			<point x="111" y="0" type="line"/>
			<point x="351" y="0" type="line"/>
			<point x="580" y="584" type="line"/>
			<point x="564" y="700" type="line"/>
			<point x="68" y="700" type="line"/>
			<point x="39" y="453" type="line"/>
			<point x="139" y="437" type="line"/>
			<point x="160" y="490" type="line" smooth="yes"/>
			<point x="178" y="536"/>
			<point x="197" y="548"/>
			<point x="248" y="548" type="curve" smooth="yes"/>
			<point x="457" y="548" type="line"/>
			<point x="105" y="10" type="line"/>
		</contour>
	</outline>
</glyph>
<glyph name="eight" format="2">
	<unicode hex="0038"/>
	<advance width="618"/>
	<outline>
		<contour>
			<point x="18" y="168" type="curve" smooth="yes"/>
			<point x="18" y="55"/>
			<point x="121" y="-14"/>
			<point x="291" y="-14" type="curve" smooth="yes"/>
			<point x="470" y="-14"/>
			<point x="597" y="80"/>
			<point x="597" y="215" type="curve" smooth="yes"/>
			<point x="597" y="291"/>
			<point x="560" y="355"/>
			<point x="434" y="408" type="curve"/>
			<point x="527" y="441"/>
			<point x="576" y="499"/>
			<point x="576" y="573" type="curve" smooth="yes"/>
			<point x="576" y="662"/>
			<point x="491" y="715"/>
			<point x="348" y="715" type="curve" smooth="yes"/>
			<point x="175" y="715"/>
			<point x="63" y="625"/>
			<point x="67" y="501" type="curve" smooth="yes"/>
			<point x="69" y="435"/>
			<point x="100" y="390"/>
			<point x="159" y="351" type="curve"/>
			<point x="74" y="303"/>
			<point x="18" y="251"/>
		</contour>
		<contour>
			<point x="241" y="310" type="curve"/>
			<point x="327" y="265"/>
			<point x="385" y="233"/>
			<point x="385" y="179" type="curve" smooth="yes"/>
			<point x="385" y="142"/>
			<point x="359" y="94"/>
			<point x="291" y="94" type="curve" smooth="yes"/>
			<point x="224" y="94"/>
			<point x="187" y="138"/>
			<point x="187" y="194" type="curve" smooth="yes"/>
			<point x="187" y="245"/>
			<point x="215" y="284"/>
		</contour>
		<contour>
			<point x="259" y="548" type="curve" smooth="yes"/>
			<point x="259" y="596"/>
			<point x="288" y="620"/>
			<point x="338" y="620" type="curve" smooth="yes"/>
			<point x="379" y="620"/>
			<point x="409" y="596"/>
			<point x="409" y="556" type="curve" smooth="yes"/>
			<point x="409" y="511"/>
			<point x="388" y="472"/>
			<point x="356" y="444" type="curve"/>
			<point x="287" y="479"/>
			<point x="259" y="508"/>
		</contour>
	</outline>
</glyph>
<glyph name="nine" format="2">
	<unicode hex="0039"/>
	<advance width="655"/>
	<outline>
		<contour>
			<point x="276" y="-14" type="curve" smooth="yes"/>
			<point x="487" y="-14"/>
			<point x="630" y="166"/>
			<point x="630" y="416" type="curve" smooth="yes"/>
			<point x="630" y="609"/>
			<point x="527" y="715"/>
			<point x="348" y="715" type="curve" smooth="yes"/>
			<point x="153" y="715"/>
			<point x="36" y="601"/>
			<point x="36" y="434" type="curve" smooth="yes"/>
			<point x="36" y="309"/>
			<point x="117" y="239"/>
			<point x="238" y="239" type="curve" smooth="yes"/>
			<point x="309" y="239"/>
			<point x="379" y="278"/>
			<point x="409" y="322" type="curve"/>
			<point x="414" y="319" type="line"/>
			<point x="390" y="175"/>
			<point x="343" y="109"/>
			<point x="256" y="109" type="curve" smooth="yes"/>
			<point x="190" y="109"/>
			<point x="137" y="148"/>
			<point x="101" y="180" type="curve"/>
			<point x="40" y="105" type="line"/>
			<point x="77" y="58"/>
			<point x="141" y="-14"/>
		</contour>
		<contour>
			<point x="320" y="372" type="curve" smooth="yes"/>
			<point x="266" y="372"/>
			<point x="247" y="406"/>
			<point x="247" y="462" type="curve" smooth="yes"/>
			<point x="247" y="550"/>
			<point x="277" y="599"/>
			<point x="334" y="599" type="curve" smooth="yes"/>
			<point x="407" y="599"/>
			<point x="414" y="526"/>
			<point x="414" y="419" type="curve"/>
			<point x="390" y="393"/>
			<point x="353" y="372"/>
		</contour>
	</outline>
</glyph>
<glyph name="less" format="2">
	<unicode hex="003C"/>
	<advance width="582"/>
	<outline>
		<contour>
			<point x="399" y="37" type="line"/>
			<point x="475" y="159" type="line"/>
			<point x="268" y="281" type="line"/>
			<point x="485" y="410" type="line"/>
			<point x="417" y="532" type="line"/>
			<point x="71" y="325" type="line"/>
			<point x="69" y="243" type="line"/>
		</contour>
	</outline>
</glyph>
<glyph name="greater" format="2">
	<unicode hex="003E"/>
	<advance width="582"/>
	<outline>
		<contour>
			<point x="164" y="38" type="line"/>
			<point x="506" y="243" type="line"/>
			<point x="508" y="325" type="line"/>
			<point x="178" y="532" type="line"/>
			<point x="102" y="412" type="line"/>
			<point x="306" y="286" type="line"/>
			<point x="95" y="163" type="line"/>
		</contour>
	</outline>
</glyph>
<glyph name="C" format="2">
	<unicode hex="0043"/>
	<advance width="699"/>
	<outline>
		<contour>
			<point x="496" y="512" type="curve" smooth="yes"/>
			<point x="478" y="476" type="line"/>
			<point x="504" y="448"/>
			<point x="549" y="431"/>
			<point x="585" y="431" type="curve" smooth="yes"/>
			<point x="635" y="431"/>
			<point x="676" y="470"/>
			<point x="676" y="525" type="curve" smooth="yes"/>
			<point x="676" y="635"/>
			<point x="585" y="715"/>
			<point x="414" y="715" type="curve" smooth="yes"/>
			<point x="192" y="715"/>
			<point x="44" y="573"/>
			<point x="44" y="314" type="curve" smooth="yes"/>
			<point x="44" y="95"/>
			<point x="167" y="-14"/>
			<point x="369" y="-14" type="curve" smooth="yes"/>
			<point x="524" y="-14"/>
			<point x="616" y="78"/>
			<point x="668" y="162" type="curve"/>
			<point x="586" y="227" type="line"/>
			<point x="539" y="160"/>
			<point x="486" y="115"/>
			<point x="417" y="115" type="curve" smooth="yes"/>
			<point x="322" y="115"/>
			<point x="281" y="178"/>
			<point x="281" y="332" type="curve" smooth="yes"/>
			<point x="281" y="522"/>
			<point x="344" y="612"/>
			<point x="444" y="612" type="curve" smooth="yes"/>
			<point x="514" y="612"/>
			<point x="524" y="569"/>
		</contour>
	</outline>
	<anchor name="bottom" x="363" y="-30"/>
	<anchor name="top" x="410" y="730"/>
</glyph>
<glyph name="F" format="2">
	<unicode hex="0046"/>
	<advance width="641"/>
	<outline>
		<contour>
			<point x="17" y="92" type="line"/>
			<point x="12" y="0" type="line"/>
			<point x="457" y="0" type="line"/>
			<point x="464" y="94" type="line"/>
			<point x="337" y="107" type="line"/>
			<point x="346" y="296" type="line"/>
			<point x="528" y="296" type="line"/>
			<point x="532" y="403" type="line"/>
			<point x="349" y="403" type="line"/>
			<point x="358" y="596" type="line"/>
			<point x="418" y="596" type="line" smooth="yes"/>
			<point x="484" y="596"/>
			<point x="502" y="580"/>
			<point x="514" y="532" type="curve" smooth="yes"/>
			<point x="526" y="484" type="line"/>
			<point x="632" y="494" type="line"/>
			<point x="617" y="700" type="line"/>
			<point x="43" y="700" type="line"/>
			<point x="37" y="613" type="line"/>
			<point x="127" y="596" type="line"/>
			<point x="104" y="105" type="line"/>
		</contour>
	</outline>
</glyph>
<glyph name="H" format="2">
	<unicode hex="0048"/>
	<advance width="844"/>
	<outline>
		<contour>
			<point x="518" y="299" type="line"/>
			<point x="507" y="104" type="line"/>
			<point x="440" y="92" type="line"/>
			<point x="434" y="0" type="line"/>
			<point x="822" y="0" type="line"/>
			<point x="828" y="94" type="line"/>
			<point x="738" y="107" type="line"/>
			<point x="762" y="595" type="line"/>
			<point x="842" y="609" type="line"/>
			<point x="847" y="700" type="line"/>
			<point x="469" y="700" type="line"/>
			<point x="464" y="612" type="line"/>
			<point x="531" y="595" type="line"/>
			<point x="522" y="408" type="line"/>
			<point x="342" y="408" type="line"/>
			<point x="351" y="598" type="line"/>
			<point x="420" y="612" type="line"/>
			<point x="424" y="700" type="line"/>
			<point x="43" y="700" type="line"/>
			<point x="38" y="614" type="line"/>
			<point x="120" y="597" type="line"/>
			<point x="96" y="102" type="line"/>
			<point x="18" y="91" type="line"/>
			<point x="12" y="0" type="line"/>
			<point x="391" y="0" type="line"/>
			<point x="397" y="92" type="line"/>
			<point x="327" y="107" type="line"/>
			<point x="337" y="299" type="line"/>
		</contour>
	</outline>
	<anchor name="bottom" x="411" y="-30"/>
	<anchor name="top" x="447" y="730"/>
</glyph>
<glyph name="I" format="2">
	<unicode hex="0049"/>
	<advance width="445"/>
	<outline>
		<contour>
			<point x="123" y="594" type="line"/>
			<point x="100" y="105" type="line"/>
			<point x="16" y="95" type="line"/>
			<point x="12" y="0" type="line"/>
			<point x="425" y="0" type="line"/>
			<point x="429" y="95" type="line"/>
			<point x="331" y="108" type="line"/>
			<point x="354" y="597" type="line"/>
			<point x="440" y="611" type="line"/>
			<point x="448" y="700" type="line"/>
			<point x="42" y="700" type="line"/>
			<point x="35" y="611" type="line"/>
		</contour>
	</outline>
	<anchor name="bottom" x="214" y="-30"/>
	<anchor name="top" x="242" y="730"/>
</glyph>
<glyph name="J" format="2">
	<unicode hex="004A"/>
	<advance width="463"/>
	<outline>
		<contour>
			<point x="138" y="593" type="line"/>
			<point x="117" y="114" type="line" smooth="yes"/>
			<point x="112" y="-10"/>
			<point x="103" y="-66"/>
			<point x="20" y="-158" type="curve"/>
			<point x="88" y="-244" type="line"/>
			<point x="319" y="-88"/>
			<point x="344" y="-16"/>
			<point x="348" y="99" type="curve" smooth="yes"/>
			<point x="369" y="596" type="line"/>
			<point x="456" y="611" type="line"/>
			<point x="463" y="700" type="line"/>
			<point x="39" y="700" type="line"/>
			<point x="33" y="611" type="line"/>
		</contour>
	</outline>
	<anchor name="top" x="255" y="730"/>
</glyph>
<glyph name="K" format="2">
	<unicode hex="004B"/>
	<advance width="823"/>
	<outline>
		<contour>
			<point x="647" y="-14" type="curve" smooth="yes"/>
			<point x="712" y="-14"/>
			<point x="773" y="13"/>
			<point x="815" y="40" type="curve"/>
			<point x="793" y="130" type="line"/>
			<point x="781" y="126"/>
			<point x="765" y="120"/>
			<point x="747" y="120" type="curve" smooth="yes"/>
			<point x="714" y="120"/>
			<point x="702" y="141"/>
			<point x="662" y="258" type="curve" smooth="yes"/>
			<point x="631" y="349"/>
			<point x="578" y="369"/>
			<point x="474" y="378" type="curve"/>
			<point x="474" y="384" type="line"/>
			<point x="731" y="597" type="line"/>
			<point x="802" y="612" type="line"/>
			<point x="809" y="700" type="line"/>
			<point x="521" y="700" type="line"/>
			<point x="505" y="612" type="line"/>
			<point x="587" y="598" type="line"/>
			<point x="363" y="400" type="line"/>
			<point x="360" y="320" type="line"/>
			<point x="412" y="310"/>
			<point x="422" y="297"/>
			<point x="451" y="191" type="curve" smooth="yes"/>
			<point x="494" y="35"/>
			<point x="531" y="-14"/>
		</contour>
		<contour>
			<point x="12" y="0" type="line"/>
			<point x="410" y="0" type="line"/>
			<point x="416" y="93" type="line"/>
			<point x="327" y="106" type="line"/>
			<point x="350" y="595" type="line"/>
			<point x="428" y="612" type="line"/>
			<point x="434" y="700" type="line"/>
			<point x="42" y="700" type="line"/>
			<point x="37" y="612" type="line"/>
			<point x="119" y="595" type="line"/>
			<point x="96" y="106" type="line"/>
			<point x="18" y="93" type="line"/>
		</contour>
	</outline>
	<anchor name="bottom" x="410" y="-30"/>
	<anchor name="top" x="440" y="730"/>
</glyph>
<glyph name="L" format="2">
	<unicode hex="004C"/>
	<advance width="664"/>
	<outline>
		<contour>
			<point x="18" y="92" type="line"/>
			<point x="12" y="0" type="line"/>
			<point x="617" y="0" type="line"/>
			<point x="643" y="238" type="line"/>
			<point x="534" y="238" type="line"/>
			<point x="515" y="177" type="line" smooth="yes"/>
			<point x="493" y="106"/>
			<point x="446" y="105"/>
			<point x="404" y="105" type="curve" smooth="yes"/>
			<point x="328" y="105" type="line"/>
			<point x="352" y="594" type="line"/>
			<point x="456" y="613" type="line"/>
			<point x="462" y="700" type="line"/>
			<point x="44" y="700" type="line"/>
			<point x="38" y="613" type="line"/>
			<point x="121" y="596" type="line"/>
			<point x="97" y="103" type="line"/>
		</contour>
	</outline>
	<anchor name="bottom" x="313" y="-33"/>
	<anchor name="top" x="240" y="730"/>
</glyph>
<glyph name="P" format="2">
	<unicode hex="0050"/>
	<advance width="745"/>
	<outline>
		<contour>
			<point x="375" y="354" type="curve"/>
			<point x="372" y="261" type="line"/>
			<point x="393" y="259"/>
			<point x="421" y="258"/>
			<point x="450" y="258" type="curve" smooth="yes"/>
			<point x="613" y="258"/>
			<point x="733" y="368"/>
			<point x="733" y="501" type="curve" smooth="yes"/>
			<point x="733" y="627"/>
			<point x="641" y="700"/>
			<point x="478" y="700" type="curve" smooth="yes"/>
			<point x="50" y="700" type="line"/>
			<point x="44" y="611" type="line"/>
			<point x="129" y="594" type="line"/>
			<point x="105" y="105" type="line"/>
			<point x="18" y="89" type="line"/>
			<point x="12" y="0" type="line"/>
			<point x="442" y="0" type="line"/>
			<point x="447" y="91" type="line"/>
			<point x="336" y="105" type="line"/>
			<point x="361" y="602" type="line"/>
			<point x="383" y="602" type="line" smooth="yes"/>
			<point x="455" y="602"/>
			<point x="495" y="571"/>
			<point x="495" y="488" type="curve" smooth="yes"/>
			<point x="495" y="399"/>
			<point x="458" y="353"/>
			<point x="403" y="353" type="curve" smooth="yes"/>
			<point x="388" y="353"/>
			<point x="385" y="353"/>
		</contour>
	</outline>
</glyph>
<glyph name="Q" format="2">
	<unicode hex="0051"/>
	<advance width="804"/>
	<outline>
		<contour>
			<point x="45" y="347" type="curve" smooth="yes"/>
			<point x="45" y="177"/>
			<point x="156" y="75"/>
			<point x="296" y="43" type="curve"/>
			<point x="296" y="32" type="line"/>
			<point x="263" y="25"/>
			<point x="220" y="8"/>
			<point x="188" y="-8" type="curve"/>
			<point x="226" y="-84" type="line"/>
			<point x="282" y="-57"/>
			<point x="312" y="-50"/>
			<point x="342" y="-50" type="curve" smooth="yes"/>
			<point x="379" y="-50"/>
			<point x="410" y="-73"/>
			<point x="477" y="-123" type="curve" smooth="yes"/>
			<point x="555" y="-181"/>
			<point x="618" y="-209"/>
			<point x="684" y="-209" type="curve" smooth="yes"/>
			<point x="771" y="-209"/>
			<point x="806" y="-156"/>
			<point x="806" y="-106" type="curve" smooth="yes"/>
			<point x="806" y="-43"/>
			<point x="767" y="0"/>
			<point x="671" y="-5" type="curve"/>
			<point x="661" y="-46" type="line" smooth="yes"/>
			<point x="655" y="-72"/>
			<point x="630" y="-72"/>
			<point x="551" y="-25" type="curve" smooth="yes"/>
			<point x="501" y="5"/>
			<point x="468" y="16"/>
			<point x="408" y="16" type="curve"/>
			<point x="408" y="28" type="line"/>
			<point x="623" y="34"/>
			<point x="769" y="187"/>
			<point x="769" y="402" type="curve" smooth="yes"/>
			<point x="769" y="608"/>
			<point x="655" y="715"/>
			<point x="432" y="715" type="curve" smooth="yes"/>
			<point x="188" y="715"/>
			<point x="45" y="581"/>
		</contour>
		<contour>
			<point x="279" y="353" type="curve" smooth="yes"/>
			<point x="279" y="511"/>
			<point x="324" y="610"/>
			<point x="417" y="610" type="curve" smooth="yes"/>
			<point x="510" y="610"/>
			<point x="533" y="526"/>
			<point x="533" y="394" type="curve" smooth="yes"/>
			<point x="533" y="201"/>
			<point x="482" y="135"/>
			<point x="399" y="135" type="curve" smooth="yes"/>
			<point x="302" y="135"/>
			<point x="279" y="213"/>
		</contour>
	</outline>
</glyph>
<glyph name="U" format="2">
	<unicode hex="0055"/>
	<advance width="853"/>
	<outline>
		<contour>
			<point x="748" y="106" type="line"/>
			<point x="774" y="594" type="line"/>
			<point x="841" y="611" type="line"/>
			<point x="851" y="700" type="line"/>
			<point x="489" y="700" type="line"/>
			<point x="479" y="611" type="line"/>
			<point x="545" y="594" type="line"/>
			<point x="542" y="570" type="line" smooth="yes"/>
			<point x="518" y="381"/>
			<point x="437" y="131"/>
			<point x="352" y="131" type="curve" smooth="yes"/>
			<point x="311" y="131"/>
			<point x="309" y="153"/>
			<point x="313" y="230" type="curve" smooth="yes"/>
			<point x="333" y="594" type="line"/>
			<point x="411" y="611" type="line"/>
			<point x="421" y="700" type="line"/>
			<point x="44" y="700" type="line"/>
			<point x="34" y="611" type="line"/>
			<point x="106" y="596" type="line"/>
			<point x="85" y="244" type="line" smooth="yes"/>
			<point x="74" y="61"/>
			<point x="134" y="-14"/>
			<point x="277" y="-14" type="curve" smooth="yes"/>
			<point x="437" y="-14"/>
			<point x="510" y="99"/>
			<point x="584" y="391" type="curve"/>
			<point x="590" y="391" type="line"/>
			<point x="547" y="12" type="line"/>
			<point x="554" y="0" type="line"/>
			<point x="820" y="0" type="line"/>
			<point x="828" y="93" type="line"/>
		</contour>
	</outline>
	<anchor name="bottom" x="410" y="-30"/>
	<anchor name="top" x="451" y="730"/>
</glyph>
<glyph name="a" format="2">
	<unicode hex="0061"/>
	<advance width="698"/>
	<outline>
		<contour>
			<point x="617" y="146" type="curve" smooth="yes"/>
			<point x="630" y="509" type="line"/>
			<point x="581" y="529" type="line"/>
			<point x="470" y="501" type="line"/>
			<point x="445" y="513"/>
			<point x="394" y="531"/>
			<point x="323" y="531" type="curve" smooth="yes"/>
			<point x="134" y="531"/>
			<point x="32" y="391"/>
			<point x="32" y="191" type="curve" smooth="yes"/>
			<point x="32" y="67"/>
			<point x="94" y="-14"/>
			<point x="214" y="-14" type="curve" smooth="yes"/>
			<point x="351" y="-14"/>
			<point x="378" y="82"/>
			<point x="408" y="189" type="curve" smooth="yes"/>
			<point x="436" y="288" type="line"/>
			<point x="448" y="286" type="line"/>
			<point x="424" y="111" type="line" smooth="yes"/>
			<point x="412" y="23"/>
			<point x="469" y="-14"/>
			<point x="544" y="-14" type="curve" smooth="yes"/>
			<point x="607" y="-14"/>
			<point x="678" y="13"/>
			<point x="705" y="34" type="curve"/>
			<point x="687" y="112" type="line"/>
			<point x="677" y="108"/>
			<point x="658" y="103"/>
			<point x="644" y="103" type="curve" smooth="yes"/>
			<point x="619" y="103"/>
			<point x="616" y="121"/>
		</contour>
		<contour>
			<point x="279" y="89" type="curve" smooth="yes"/>
			<point x="262" y="89"/>
			<point x="248" y="96"/>
			<point x="248" y="165" type="curve" smooth="yes"/>
			<point x="248" y="302"/>
			<point x="266" y="445"/>
			<point x="360" y="445" type="curve" smooth="yes"/>
			<point x="378" y="445"/>
			<point x="394" y="439"/>
			<point x="399" y="436" type="curve"/>
			<point x="351" y="254" type="line" smooth="yes"/>
			<point x="312" y="106"/>
			<point x="299" y="89"/>
		</contour>
	</outline>
	<anchor name="bottom" x="330" y="-30"/>
	<anchor name="top" x="354" y="550"/>
</glyph>
<glyph name="b" format="2">
	<unicode hex="0062"/>
	<advance width="685"/>
	<outline>
		<contour>
			<point x="330" y="-14" type="curve" smooth="yes"/>
			<point x="514" y="-14"/>
			<point x="652" y="99"/>
			<point x="652" y="306" type="curve" smooth="yes"/>
			<point x="652" y="440"/>
			<point x="594" y="536"/>
			<point x="474" y="536" type="curve" smooth="yes"/>
			<point x="364" y="536"/>
			<point x="309" y="476"/>
			<point x="270" y="328" type="curve" smooth="yes"/>
			<point x="233" y="188" type="line"/>
			<point x="224" y="190" type="line"/>
			<point x="259" y="425" type="line"/>
			<point x="271" y="756" type="line"/>
			<point x="254" y="767" type="line"/>
			<point x="7" y="767" type="line"/>
			<point x="1" y="679" type="line"/>
			<point x="81" y="663" type="line"/>
			<point x="54" y="35" type="line"/>
			<point x="98" y="10"/>
			<point x="254" y="-14"/>
		</contour>
		<contour>
			<point x="405" y="429" type="curve" smooth="yes"/>
			<point x="434" y="429"/>
			<point x="437" y="397"/>
			<point x="437" y="336" type="curve" smooth="yes"/>
			<point x="437" y="241"/>
			<point x="416" y="77"/>
			<point x="329" y="77" type="curve" smooth="yes"/>
			<point x="310" y="77"/>
			<point x="294" y="82"/>
			<point x="284" y="86" type="curve"/>
			<point x="332" y="259" type="line" smooth="yes"/>
			<point x="374" y="409"/>
			<point x="376" y="429"/>
		</contour>
	</outline>
</glyph>
<glyph name="c" format="2">
	<unicode hex="0063"/>
	<advance width="572"/>
	<outline>
		<contour>
			<point x="343" y="531" type="curve" smooth="yes"/>
			<point x="125" y="531"/>
			<point x="32" y="395"/>
			<point x="32" y="226" type="curve" smooth="yes"/>
			<point x="32" y="67"/>
			<point x="149" y="-14"/>
			<point x="286" y="-14" type="curve" smooth="yes"/>
			<point x="426" y="-14"/>
			<point x="504" y="64"/>
			<point x="530" y="96" type="curve"/>
			<point x="467" y="176" type="line"/>
			<point x="435" y="146"/>
			<point x="394" y="112"/>
			<point x="343" y="112" type="curve" smooth="yes"/>
			<point x="277" y="112"/>
			<point x="257" y="154"/>
			<point x="257" y="229" type="curve" smooth="yes"/>
			<point x="257" y="321"/>
			<point x="279" y="442"/>
			<point x="357" y="442" type="curve" smooth="yes"/>
			<point x="389" y="442"/>
			<point x="411" y="415"/>
			<point x="384" y="378" type="curve" smooth="yes"/>
			<point x="359" y="344" type="line"/>
			<point x="373" y="308"/>
			<point x="418" y="290"/>
			<point x="453" y="290" type="curve" smooth="yes"/>
			<point x="507" y="290"/>
			<point x="546" y="328"/>
			<point x="546" y="381" type="curve" smooth="yes"/>
			<point x="546" y="479"/>
			<point x="457" y="531"/>
		</contour>
	</outline>
	<anchor name="bottom" x="282" y="-30"/>
	<anchor name="top" x="312" y="550"/>
</glyph>
<glyph name="e" format="2">
	<unicode hex="0065"/>
	<advance width="570"/>
	<outline>
		<contour>
			<point x="349" y="531" type="curve" smooth="yes"/>
			<point x="155" y="531"/>
			<point x="32" y="427"/>
			<point x="32" y="225" type="curve" smooth="yes"/>
			<point x="32" y="65"/>
			<point x="141" y="-14"/>
			<point x="289" y="-14" type="curve" smooth="yes"/>
			<point x="351" y="-14"/>
			<point x="460" y="4"/>
			<point x="534" y="87" type="curve"/>
			<point x="481" y="171" type="line"/>
			<point x="441" y="142"/>
			<point x="388" y="119"/>
			<point x="345" y="119" type="curve" smooth="yes"/>
			<point x="306" y="119"/>
			<point x="264" y="135"/>
			<point x="254" y="195" type="curve"/>
			<point x="334" y="218" type="line" smooth="yes"/>
			<point x="514" y="270"/>
			<point x="540" y="323"/>
			<point x="540" y="395" type="curve" smooth="yes"/>
			<point x="540" y="483"/>
			<point x="464" y="531"/>
		</contour>
		<contour>
			<point x="349" y="395" type="curve" smooth="yes"/>
			<point x="349" y="337"/>
			<point x="325" y="318"/>
			<point x="281" y="305" type="curve" smooth="yes"/>
			<point x="250" y="296" type="line"/>
			<point x="260" y="410"/>
			<point x="289" y="442"/>
			<point x="319" y="442" type="curve" smooth="yes"/>
			<point x="334" y="442"/>
			<point x="349" y="433"/>
		</contour>
	</outline>
	<anchor name="bottom" x="281" y="-30"/>
	<anchor name="top" x="329" y="550"/>
</glyph>
<glyph name="f" format="2">
	<unicode hex="0066"/>
	<advance width="462"/>
	<outline>
		<contour>
			<point x="374" y="704" type="curve" smooth="yes"/>
			<point x="403" y="704"/>
			<point x="409" y="689"/>
			<point x="396" y="646" type="curve" smooth="yes"/>
			<point x="383" y="603" type="line"/>
			<point x="398" y="584"/>
			<point x="434" y="572"/>
			<point x="461" y="572" type="curve" smooth="yes"/>
			<point x="527" y="572"/>
			<point x="556" y="609"/>
			<point x="556" y="666" type="curve" smooth="yes"/>
			<point x="556" y="747"/>
			<point x="463" y="782"/>
			<point x="364" y="782" type="curve" smooth="yes"/>
			<point x="229" y="782"/>
			<point x="118" y="687"/>
			<point x="109" y="559" type="curve" smooth="yes"/>
			<point x="106" y="518" type="line"/>
			<point x="33" y="510" type="line"/>
			<point x="25" y="426" type="line"/>
			<point x="103" y="426" type="line"/>
			<point x="88" y="35" type="line" smooth="yes"/>
			<point x="86" y="-19"/>
			<point x="86" y="-38"/>
			<point x="83" y="-79" type="curve" smooth="yes"/>
			<point x="81" y="-110"/>
			<point x="66" y="-119"/>
			<point x="32" y="-99" type="curve" smooth="yes"/>
			<point x="-18" y="-69" type="line"/>
			<point x="-49" y="-98"/>
			<point x="-64" y="-130"/>
			<point x="-64" y="-156" type="curve" smooth="yes"/>
			<point x="-64" y="-199"/>
			<point x="-26" y="-230"/>
			<point x="18" y="-230" type="curve" smooth="yes"/>
			<point x="83" y="-230"/>
			<point x="134" y="-183"/>
			<point x="186" y="-106" type="curve" smooth="yes"/>
			<point x="259" y="1"/>
			<point x="300" y="63"/>
			<point x="304" y="196" type="curve" smooth="yes"/>
			<point x="312" y="426" type="line"/>
			<point x="437" y="426" type="line"/>
			<point x="442" y="517" type="line"/>
			<point x="313" y="517" type="line"/>
			<point x="318" y="602" type="line" smooth="yes"/>
			<point x="321" y="656"/>
			<point x="328" y="704"/>
		</contour>
	</outline>
</glyph>
<glyph name="i" format="2">
	<unicode hex="0069"/>
	<advance width="374"/>
	<outline>
		<contour>
			<point x="96" y="379" type="curve" smooth="yes"/>
			<point x="78" y="129" type="line" smooth="yes"/>
			<point x="71" y="26"/>
			<point x="109" y="-14"/>
			<point x="207" y="-14" type="curve" smooth="yes"/>
			<point x="261" y="-14"/>
			<point x="344" y="10"/>
			<point x="376" y="31" type="curve"/>
			<point x="358" y="109" type="line"/>
			<point x="345" y="105"/>
			<point x="328" y="100"/>
			<point x="309" y="100" type="curve" smooth="yes"/>
			<point x="287" y="100"/>
			<point x="282" y="117"/>
			<point x="284" y="143" type="curve" smooth="yes"/>
			<point x="302" y="390" type="line" smooth="yes"/>
			<point x="310" y="494"/>
			<point x="246" y="531"/>
			<point x="158" y="531" type="curve" smooth="yes"/>
			<point x="82" y="531"/>
			<point x="20" y="507"/>
			<point x="-7" y="492" type="curve"/>
			<point x="20" y="405" type="line"/>
			<point x="42" y="413"/>
			<point x="59" y="418"/>
			<point x="75" y="418" type="curve" smooth="yes"/>
			<point x="91" y="418"/>
			<point x="98" y="403"/>
		</contour>
		<contour>
			<point x="94" y="697" type="curve" smooth="yes"/>
			<point x="94" y="640"/>
			<point x="136" y="600"/>
			<point x="204" y="600" type="curve" smooth="yes"/>
			<point x="269" y="600"/>
			<point x="313" y="641"/>
			<point x="313" y="697" type="curve" smooth="yes"/>
			<point x="313" y="753"/>
			<point x="268" y="794"/>
			<point x="203" y="794" type="curve" smooth="yes"/>
			<point x="136" y="794"/>
			<point x="94" y="753"/>
		</contour>
	</outline>
	<anchor name="bottom" x="164" y="-30"/>
</glyph>
<glyph name="j" format="2">
	<unicode hex="006A"/>
	<advance width="372"/>
	<outline>
		<contour>
			<point x="309" y="132" type="curve" smooth="yes"/>
			<point x="322" y="404" type="line" smooth="yes"/>
			<point x="326" y="482"/>
			<point x="278" y="536"/>
			<point x="185" y="536" type="curve" smooth="yes"/>
			<point x="114" y="536"/>
			<point x="42" y="514"/>
			<point x="17" y="500" type="curve"/>
			<point x="34" y="405" type="line"/>
			<point x="63" y="415"/>
			<point x="75" y="417"/>
			<point x="90" y="417" type="curve" smooth="yes"/>
			<point x="108" y="417"/>
			<point x="116" y="404"/>
			<point x="115" y="376" type="curve" smooth="yes"/>
			<point x="97" y="23" type="line" smooth="yes"/>
			<point x="95" y="-18"/>
			<point x="94" y="-53"/>
			<point x="90" y="-83" type="curve" smooth="yes"/>
			<point x="87" y="-107"/>
			<point x="74" y="-116"/>
			<point x="36" y="-100" type="curve" smooth="yes"/>
			<point x="-25" y="-74" type="line"/>
			<point x="-41" y="-93"/>
			<point x="-59" y="-125"/>
			<point x="-59" y="-154" type="curve" smooth="yes"/>
			<point x="-59" y="-199"/>
			<point x="-27" y="-229"/>
			<point x="24" y="-229" type="curve" smooth="yes"/>
			<point x="86" y="-229"/>
			<point x="133" y="-185"/>
			<point x="160" y="-154" type="curve" smooth="yes"/>
			<point x="231" y="-73"/>
			<point x="303" y="8"/>
		</contour>
		<contour>
			<point x="83" y="697" type="curve" smooth="yes"/>
			<point x="83" y="640"/>
			<point x="125" y="600"/>
			<point x="193" y="600" type="curve" smooth="yes"/>
			<point x="258" y="600"/>
			<point x="302" y="641"/>
			<point x="302" y="697" type="curve" smooth="yes"/>
			<point x="302" y="753"/>
			<point x="257" y="794"/>
			<point x="192" y="794" type="curve" smooth="yes"/>
			<point x="125" y="794"/>
			<point x="83" y="753"/>
		</contour>
	</outline>
</glyph>
<glyph name="k" format="2">
	<unicode hex="006B"/>
	<advance width="626"/>
	<outline>
		<contour>
			<point x="83" y="663" type="line"/>
			<point x="52" y="0" type="line"/>
			<point x="240" y="0" type="line"/>
			<point x="251" y="249" type="line"/>
			<point x="256" y="249"/>
			<point x="260" y="250"/>
			<point x="264" y="251" type="curve"/>
			<point x="335" y="79" type="line" smooth="yes"/>
			<point x="358" y="23"/>
			<point x="394" y="-14"/>
			<point x="468" y="-14" type="curve" smooth="yes"/>
			<point x="538" y="-14"/>
			<point x="607" y="21"/>
			<point x="628" y="40" type="curve"/>
			<point x="602" y="111" type="line"/>
			<point x="590" y="105"/>
			<point x="576" y="100"/>
			<point x="562" y="100" type="curve" smooth="yes"/>
			<point x="534" y="100"/>
			<point x="515" y="128"/>
			<point x="497" y="165" type="curve" smooth="yes"/>
			<point x="428" y="308" type="line"/>
			<point x="444" y="315"/>
			<point x="456" y="321"/>
			<point x="484" y="337" type="curve" smooth="yes"/>
			<point x="533" y="365"/>
			<point x="578" y="392"/>
			<point x="578" y="452" type="curve" smooth="yes"/>
			<point x="578" y="497"/>
			<point x="546" y="532"/>
			<point x="497" y="532" type="curve" smooth="yes"/>
			<point x="440" y="532"/>
			<point x="403" y="498"/>
			<point x="397" y="444" type="curve"/>
			<point x="426" y="424" type="line" smooth="yes"/>
			<point x="445" y="411"/>
			<point x="437" y="396"/>
			<point x="398" y="375" type="curve" smooth="yes"/>
			<point x="352" y="350"/>
			<point x="301" y="334"/>
			<point x="256" y="322" type="curve"/>
			<point x="274" y="756" type="line"/>
			<point x="257" y="767" type="line"/>
			<point x="12" y="767" type="line"/>
			<point x="1" y="679" type="line"/>
		</contour>
	</outline>
	<anchor name="bottom" x="301" y="-30"/>
	<anchor name="top" x="150" y="780"/>
</glyph>
<glyph name="n" format="2">
	<unicode hex="006E"/>
	<advance width="686"/>
	<outline>
		<contour>
			<point x="693" y="31" type="curve"/>
			<point x="672" y="108" type="line"/>
			<point x="664" y="105"/>
			<point x="650" y="100"/>
			<point x="636" y="100" type="curve" smooth="yes"/>
			<point x="614" y="100"/>
			<point x="610" y="113"/>
			<point x="612" y="143" type="curve" smooth="yes"/>
			<point x="630" y="392" type="line" smooth="yes"/>
			<point x="636" y="474"/>
			<point x="582" y="531"/>
			<point x="489" y="531" type="curve" smooth="yes"/>
			<point x="377" y="531"/>
			<point x="336" y="475"/>
			<point x="312" y="382" type="curve" smooth="yes"/>
			<point x="248" y="135" type="line"/>
			<point x="236" y="138" type="line"/>
			<point x="272" y="423" type="line" smooth="yes"/>
			<point x="281" y="496"/>
			<point x="237" y="531"/>
			<point x="166" y="531" type="curve" smooth="yes"/>
			<point x="97" y="531"/>
			<point x="15" y="504"/>
			<point x="-7" y="492" type="curve"/>
			<point x="18" y="407" type="line"/>
			<point x="38" y="414"/>
			<point x="50" y="418"/>
			<point x="61" y="418" type="curve" smooth="yes"/>
			<point x="74" y="418"/>
			<point x="81" y="408"/>
			<point x="80" y="388" type="curve" smooth="yes"/>
			<point x="64" y="0" type="line"/>
			<point x="291" y="0" type="line"/>
			<point x="375" y="308" type="line" smooth="yes"/>
			<point x="394" y="377"/>
			<point x="396" y="385"/>
			<point x="412" y="385" type="curve" smooth="yes"/>
			<point x="420" y="385"/>
			<point x="426" y="379"/>
			<point x="424" y="360" type="curve" smooth="yes"/>
			<point x="399" y="102" type="line" smooth="yes"/>
			<point x="392" y="29"/>
			<point x="431" y="-14"/>
			<point x="516" y="-14" type="curve" smooth="yes"/>
			<point x="573" y="-14"/>
			<point x="663" y="10"/>
		</contour>
	</outline>
	<anchor name="bottom" x="334" y="-30"/>
	<anchor name="top" x="361" y="550"/>
</glyph>
<glyph name="p" format="2">
	<unicode hex="0070"/>
	<advance width="705"/>
	<outline>
		<contour>
			<point x="83" y="363" type="curve" smooth="yes"/>
			<point x="71" y="64" type="line"/>
			<point x="43" y="-198" type="line"/>
			<point x="67" y="-225" type="line"/>
			<point x="332" y="-229" type="line"/>
			<point x="343" y="-152" type="line"/>
			<point x="239" y="-131" type="line"/>
			<point x="252" y="8" type="line"/>
			<point x="278" y="-4"/>
			<point x="322" y="-14"/>
			<point x="368" y="-14" type="curve" smooth="yes"/>
			<point x="591" y="-14"/>
			<point x="673" y="157"/>
			<point x="673" y="316" type="curve" smooth="yes"/>
			<point x="673" y="457"/>
			<point x="594" y="531"/>
			<point x="484" y="531" type="curve" smooth="yes"/>
			<point x="342" y="531"/>
			<point x="321" y="434"/>
			<point x="293" y="338" type="curve" smooth="yes"/>
			<point x="261" y="229" type="line"/>
			<point x="249" y="232" type="line"/>
			<point x="275" y="411" type="line" smooth="yes"/>
			<point x="285" y="479"/>
			<point x="253" y="531"/>
			<point x="181" y="531" type="curve" smooth="yes"/>
			<point x="116" y="531"/>
			<point x="37" y="510"/>
			<point x="-2" y="490" type="curve"/>
			<point x="18" y="408" type="line"/>
			<point x="29" y="412"/>
			<point x="49" y="417"/>
			<point x="60" y="417" type="curve" smooth="yes"/>
			<point x="81" y="417"/>
			<point x="85" y="406"/>
		</contour>
		<contour>
			<point x="424" y="428" type="curve" smooth="yes"/>
			<point x="440" y="428"/>
			<point x="454" y="418"/>
			<point x="454" y="349" type="curve" smooth="yes"/>
			<point x="454" y="209"/>
			<point x="424" y="71"/>
			<point x="343" y="71" type="curve" smooth="yes"/>
			<point x="331" y="71"/>
			<point x="316" y="73"/>
			<point x="301" y="81" type="curve"/>
			<point x="361" y="296" type="line" smooth="yes"/>
			<point x="396" y="421"/>
			<point x="407" y="428"/>
		</contour>
	</outline>
</glyph>
<glyph name="r" format="2">
	<unicode hex="0072"/>
	<advance width="585"/>
	<outline>
		<contour>
			<point x="79" y="385" type="curve" smooth="yes"/>
			<point x="66" y="0" type="line"/>
			<point x="267" y="0" type="line"/>
			<point x="274" y="61" type="line" smooth="yes"/>
			<point x="279" y="108"/>
			<point x="289" y="149"/>
			<point x="318" y="216" type="curve" smooth="yes"/>
			<point x="381" y="359"/>
			<point x="394" y="385"/>
			<point x="416" y="385" type="curve" smooth="yes"/>
			<point x="432" y="385"/>
			<point x="442" y="375"/>
			<point x="458" y="350" type="curve" smooth="yes"/>
			<point x="476" y="322" type="line"/>
			<point x="545" y="347"/>
			<point x="566" y="396"/>
			<point x="566" y="436" type="curve" smooth="yes"/>
			<point x="566" y="480"/>
			<point x="535" y="531"/>
			<point x="459" y="531" type="curve" smooth="yes"/>
			<point x="365" y="531"/>
			<point x="330" y="468"/>
			<point x="298" y="368" type="curve" smooth="yes"/>
			<point x="257" y="241" type="line"/>
			<point x="248" y="242" type="line"/>
			<point x="271" y="414" type="line" smooth="yes"/>
			<point x="281" y="486"/>
			<point x="238" y="531"/>
			<point x="175" y="531" type="curve" smooth="yes"/>
			<point x="140" y="531"/>
			<point x="71" y="528"/>
			<point x="-7" y="492" type="curve"/>
			<point x="16" y="407" type="line"/>
			<point x="30" y="412"/>
			<point x="46" y="418"/>
			<point x="59" y="418" type="curve" smooth="yes"/>
			<point x="80" y="418"/>
			<point x="79" y="397"/>
		</contour>
	</outline>
	<anchor name="bottom" x="172" y="-30"/>
	<anchor name="top" x="280" y="550"/>
</glyph>
<glyph name="u" format="2">
	<unicode hex="0075"/>
	<advance width="675"/>
	<outline>
		<contour>
			<point x="-7" y="486" type="curve"/>
			<point x="14" y="409" type="line"/>
			<point x="30" y="415"/>
			<point x="40" y="417"/>
			<point x="50" y="417" type="curve" smooth="yes"/>
			<point x="66" y="417"/>
			<point x="77" y="410"/>
			<point x="75" y="382" type="curve" smooth="yes"/>
			<point x="57" y="125" type="line" smooth="yes"/>
			<point x="51" y="43"/>
			<point x="108" y="-14"/>
			<point x="194" y="-14" type="curve" smooth="yes"/>
			<point x="271" y="-14"/>
			<point x="329" y="16"/>
			<point x="364" y="130" type="curve" smooth="yes"/>
			<point x="441" y="382" type="line"/>
			<point x="452" y="379" type="line"/>
			<point x="411" y="115" type="line" smooth="yes"/>
			<point x="398" y="29"/>
			<point x="446" y="-14"/>
			<point x="527" y="-14" type="curve" smooth="yes"/>
			<point x="578" y="-14"/>
			<point x="645" y="8"/>
			<point x="682" y="31" type="curve"/>
			<point x="661" y="109" type="line"/>
			<point x="650" y="104"/>
			<point x="633" y="99"/>
			<point x="617" y="99" type="curve" smooth="yes"/>
			<point x="605" y="99"/>
			<point x="598" y="110"/>
			<point x="599" y="129" type="curve" smooth="yes"/>
			<point x="623" y="517" type="line"/>
			<point x="397" y="517" type="line"/>
			<point x="303" y="201" type="line" smooth="yes"/>
			<point x="288" y="151"/>
			<point x="283" y="133"/>
			<point x="272" y="133" type="curve" smooth="yes"/>
			<point x="259" y="133"/>
			<point x="258" y="141"/>
			<point x="260" y="161" type="curve" smooth="yes"/>
			<point x="286" y="416" type="line" smooth="yes"/>
			<point x="294" y="491"/>
			<point x="253" y="531"/>
			<point x="175" y="531" type="curve" smooth="yes"/>
			<point x="120" y="531"/>
			<point x="31" y="505"/>
		</contour>
	</outline>
	<anchor name="bottom" x="336" y="-30"/>
	<anchor name="top" x="325" y="550"/>
</glyph>
<glyph name="x" format="2">
	<unicode hex="0078"/>
	<advance width="622"/>
	<outline>
		<contour>
			<point x="385" y="345" type="line"/>
			<point x="335" y="448" type="line" smooth="yes"/>
			<point x="306" y="509"/>
			<point x="266" y="531"/>
			<point x="194" y="531" type="curve" smooth="yes"/>
			<point x="126" y="531"/>
			<point x="47" y="509"/>
			<point x="23" y="497" type="curve"/>
			<point x="53" y="410" type="line"/>
			<point x="69" y="415"/>
			<point x="82" y="419"/>
			<point x="97" y="419" type="curve" smooth="yes"/>
			<point x="117" y="419"/>
			<point x="124" y="404"/>
			<point x="134" y="385" type="curve" smooth="yes"/>
			<point x="204" y="248" type="line"/>
			<point x="145" y="210" type="line" smooth="yes"/>
			<point x="69" y="161"/>
			<point x="24" y="121"/>
			<point x="24" y="61" type="curve" smooth="yes"/>
			<point x="24" y="22"/>
			<point x="56" y="-16"/>
			<point x="109" y="-16" type="curve" smooth="yes"/>
			<point x="174" y="-16"/>
			<point x="205" y="22"/>
			<point x="208" y="61" type="curve"/>
			<point x="181" y="70" type="line" smooth="yes"/>
			<point x="152" y="80"/>
			<point x="145" y="106"/>
			<point x="193" y="144" type="curve" smooth="yes"/>
			<point x="233" y="175" type="line"/>
			<point x="279" y="85" type="line" smooth="yes"/>
			<point x="314" y="17"/>
			<point x="348" y="-12"/>
			<point x="438" y="-12" type="curve" smooth="yes"/>
			<point x="508" y="-12"/>
			<point x="578" y="15"/>
			<point x="613" y="37" type="curve"/>
			<point x="578" y="118" type="line"/>
			<point x="566" y="112"/>
			<point x="554" y="107"/>
			<point x="538" y="107" type="curve" smooth="yes"/>
			<point x="513" y="107"/>
			<point x="501" y="122"/>
			<point x="488" y="145" type="curve" smooth="yes"/>
			<point x="417" y="273" type="line"/>
			<point x="491" y="325" type="line" smooth="yes"/>
			<point x="535" y="356"/>
			<point x="599" y="393"/>
			<point x="599" y="453" type="curve" smooth="yes"/>
			<point x="599" y="491"/>
			<point x="573" y="531"/>
			<point x="509" y="531" type="curve" smooth="yes"/>
			<point x="461" y="531"/>
			<point x="412" y="507"/>
			<point x="406" y="440" type="curve"/>
			<point x="431" y="425" type="line" smooth="yes"/>
			<point x="451" y="413"/>
			<point x="454" y="400"/>
			<point x="427" y="378" type="curve" smooth="yes"/>
		</contour>
	</outline>
</glyph>
<glyph name="z" format="2">
	<unicode hex="007A"/>
	<advance width="558"/>
	<outline>
		<contour>
			<point x="78" y="517" type="line"/>
			<point x="67" y="506" type="line"/>
			<point x="47" y="294" type="line"/>
			<point x="142" y="297" type="line"/>
			<point x="159" y="360"/>
			<point x="166" y="374"/>
			<point x="222" y="374" type="curve" smooth="yes"/>
			<point x="344" y="374" type="line"/>
			<point x="22" y="78" type="line"/>
			<point x="71" y="-13" type="line"/>
			<point x="91" y="-4"/>
			<point x="121" y="9"/>
			<point x="168" y="9" type="curve" smooth="yes"/>
			<point x="237" y="9"/>
			<point x="402" y="-40"/>
			<point x="499" y="0" type="curve"/>
			<point x="539" y="231" type="line"/>
			<point x="446" y="231" type="line"/>
			<point x="421" y="160"/>
			<point x="407" y="140"/>
			<point x="372" y="140" type="curve" smooth="yes"/>
			<point x="333" y="140"/>
			<point x="315" y="147"/>
			<point x="280" y="147" type="curve" smooth="yes"/>
			<point x="258" y="147"/>
			<point x="230" y="140"/>
			<point x="193" y="125" type="curve"/>
			<point x="531" y="437" type="line"/>
			<point x="511" y="517" type="line"/>
		</contour>
	</outline>
	<anchor name="bottom" x="255" y="-30"/>
	<anchor name="top" x="291" y="550"/>
</glyph>
<glyph name="braceleft" format="2">
	<unicode hex="007B"/>
	<advance width="460"/>
	<outline>
		<contour>
			<point x="85" y="350" type="curve"/>
			<point x="85" y="256" type="line"/>
			<point x="130" y="256"/>
			<point x="168" y="252"/>
			<point x="168" y="188" type="curve" smooth="yes"/>
			<point x="168" y="94"/>
			<point x="135" y="-26"/>
			<point x="135" y="-110" type="curve" smooth="yes"/>
			<point x="135" y="-178"/>
			<point x="182" y="-230"/>
			<point x="284" y="-230" type="curve" smooth="yes"/>
			<point x="310" y="-230"/>
			<point x="365" y="-224"/>
			<point x="405" y="-211" type="curve"/>
			<point x="391" y="-119" type="line"/>
			<point x="382" y="-122"/>
			<point x="370" y="-124"/>
			<point x="362" y="-124" type="curve" smooth="yes"/>
			<point x="347" y="-124"/>
			<point x="331" y="-115"/>
			<point x="331" y="-89" type="curve" smooth="yes"/>
			<point x="331" y="-22"/>
			<point x="356" y="61"/>
			<point x="356" y="186" type="curve" smooth="yes"/>
			<point x="356" y="251"/>
			<point x="331" y="292"/>
			<point x="270" y="312" type="curve"/>
			<point x="317" y="325"/>
			<point x="364" y="357"/>
			<point x="364" y="434" type="curve" smooth="yes"/>
			<point x="364" y="469"/>
			<point x="354" y="539"/>
			<point x="352" y="658" type="curve" smooth="yes"/>
			<point x="351" y="702"/>
			<point x="359" y="716"/>
			<point x="391" y="716" type="curve" smooth="yes"/>
			<point x="399" y="716"/>
			<point x="410" y="714"/>
			<point x="422" y="709" type="curve"/>
			<point x="441" y="806" type="line"/>
			<point x="413" y="816"/>
			<point x="371" y="822"/>
			<point x="335" y="822" type="curve" smooth="yes"/>
			<point x="231" y="822"/>
			<point x="161" y="776"/>
			<point x="161" y="683" type="curve" smooth="yes"/>
			<point x="161" y="615"/>
			<point x="173" y="522"/>
			<point x="173" y="440" type="curve" smooth="yes"/>
			<point x="173" y="358"/>
			<point x="138" y="350"/>
		</contour>
	</outline>
</glyph>
<glyph name="section" format="2">
	<unicode hex="00A7"/>
	<advance width="738"/>
	<outline>
		<contour>
			<point x="665" y="323" type="curve" smooth="yes"/>
			<point x="665" y="495"/>
			<point x="318" y="483"/>
			<point x="318" y="578" type="curve" smooth="yes"/>
			<point x="318" y="617"/>
			<point x="350" y="634"/>
			<point x="403" y="634" type="curve" smooth="yes"/>
			<point x="457" y="634"/>
			<point x="485" y="609"/>
			<point x="467" y="573" type="curve" smooth="yes"/>
			<point x="451" y="542" type="line"/>
			<point x="468" y="526"/>
			<point x="496" y="512"/>
			<point x="528" y="512" type="curve" smooth="yes"/>
			<point x="570" y="512"/>
			<point x="610" y="536"/>
			<point x="610" y="586" type="curve" smooth="yes"/>
			<point x="610" y="648"/>
			<point x="536" y="715"/>
			<point x="405" y="715" type="curve" smooth="yes"/>
			<point x="242" y="715"/>
			<point x="148" y="645"/>
			<point x="148" y="517" type="curve" smooth="yes"/>
			<point x="148" y="291"/>
			<point x="557" y="334"/>
			<point x="538" y="205" type="curve"/>
			<point x="619" y="189" type="line"/>
			<point x="629" y="204"/>
			<point x="665" y="258"/>
		</contour>
		<contour>
			<point x="79" y="235" type="curve"/>
			<point x="80" y="63"/>
			<point x="441" y="90"/>
			<point x="441" y="-9" type="curve" smooth="yes"/>
			<point x="441" y="-46"/>
			<point x="410" y="-72"/>
			<point x="356" y="-72" type="curve" smooth="yes"/>
			<point x="305" y="-72"/>
			<point x="265" y="-51"/>
			<point x="285" y="-13" type="curve" smooth="yes"/>
			<point x="303" y="21" type="line"/>
			<point x="286" y="37"/>
			<point x="256" y="54"/>
			<point x="223" y="54" type="curve" smooth="yes"/>
			<point x="172" y="54"/>
			<point x="141" y="17"/>
			<point x="141" y="-28" type="curve" smooth="yes"/>
			<point x="141" y="-86"/>
			<point x="203" y="-154"/>
			<point x="354" y="-154" type="curve" smooth="yes"/>
			<point x="517" y="-154"/>
			<point x="599" y="-60"/>
			<point x="599" y="44" type="curve" smooth="yes"/>
			<point x="599" y="286"/>
			<point x="218" y="212"/>
			<point x="218" y="359" type="curve"/>
			<point x="139" y="370" type="line"/>
			<point x="121" y="347"/>
			<point x="79" y="300"/>
		</contour>
	</outline>
</glyph>
<glyph name="copyright" format="2">
	<unicode hex="00A9"/>
	<advance width="911"/>
	<outline>
		<contour>
			<point x="451" y="-12" type="curve" smooth="yes"/>
			<point x="687" y="-12"/>
			<point x="841" y="138"/>
			<point x="841" y="352" type="curve" smooth="yes"/>
			<point x="841" y="558"/>
			<point x="698" y="685"/>
			<point x="462" y="685" type="curve" smooth="yes"/>
			<point x="247" y="685"/>
			<point x="79" y="552"/>
			<point x="79" y="325" type="curve" smooth="yes"/>
			<point x="79" y="136"/>
			<point x="186" y="-12"/>
		</contour>
		<contour>
			<point x="451" y="131" type="curve" smooth="yes"/>
			<point x="529" y="131"/>
			<point x="578" y="174"/>
			<point x="608" y="212" type="curve"/>
			<point x="569" y="257" type="line"/>
			<point x="544" y="236"/>
			<point x="516" y="213"/>
			<point x="471" y="213" type="curve" smooth="yes"/>
			<point x="406" y="213"/>
			<point x="378" y="271"/>
			<point x="378" y="334" type="curve" smooth="yes"/>
			<point x="378" y="447"/>
			<point x="425" y="477"/>
			<point x="477" y="477" type="curve" smooth="yes"/>
			<point x="527" y="477"/>
			<point x="543" y="457"/>
			<point x="526" y="425" type="curve" smooth="yes"/>
			<point x="516" y="406" type="line"/>
			<point x="526" y="397"/>
			<point x="555" y="379"/>
			<point x="574" y="379" type="curve" smooth="yes"/>
			<point x="618" y="379"/>
			<point x="628" y="411"/>
			<point x="628" y="437" type="curve" smooth="yes"/>
			<point x="628" y="486"/>
			<point x="573" y="546"/>
			<point x="468" y="546" type="curve" smooth="yes"/>
			<point x="359" y="546"/>
			<point x="265" y="472"/>
			<point x="265" y="329" type="curve" smooth="yes"/>
			<point x="265" y="207"/>
			<point x="334" y="131"/>
		</contour>
		<contour>
			<point x="459" y="78" type="curve" smooth="yes"/>
			<point x="252" y="78"/>
			<point x="182" y="190"/>
			<point x="182" y="333" type="curve" smooth="yes"/>
			<point x="182" y="517"/>
			<point x="310" y="605"/>
			<point x="460" y="605" type="curve" smooth="yes"/>
			<point x="647" y="605"/>
			<point x="733" y="501"/>
			<point x="733" y="348" type="curve" smooth="yes"/>
			<point x="733" y="170"/>
			<point x="612" y="78"/>
		</contour>
	</outline>
</glyph>
<glyph name="ordfeminine" format="2">
	<unicode hex="00AA"/>
	<advance width="519"/>
	<outline>
		<contour>
			<point x="462" y="485" type="curve" smooth="yes"/>
			<point x="471" y="735" type="line"/>
			<point x="421" y="744" type="line"/>
			<point x="357" y="724" type="line"/>
			<point x="334" y="732"/>
			<point x="301" y="742"/>
			<point x="260" y="742" type="curve" smooth="yes"/>
			<point x="128" y="742"/>
			<point x="55" y="649"/>
			<point x="55" y="516" type="curve" smooth="yes"/>
			<point x="55" y="427"/>
			<point x="91" y="362"/>
			<point x="179" y="362" type="curve" smooth="yes"/>
			<point x="281" y="362"/>
			<point x="309" y="448"/>
			<point x="319" y="489" type="curve" smooth="yes"/>
			<point x="337" y="566" type="line"/>
			<point x="343" y="566" type="line"/>
			<point x="334" y="445" type="line" smooth="yes"/>
			<point x="329" y="384"/>
			<point x="369" y="362"/>
			<point x="408" y="362" type="curve" smooth="yes"/>
			<point x="439" y="362"/>
			<point x="495" y="376"/>
			<point x="529" y="406" type="curve"/>
			<point x="512" y="462" type="line"/>
			<point x="502" y="458"/>
			<point x="492" y="454"/>
			<point x="482" y="454" type="curve" smooth="yes"/>
			<point x="465" y="454"/>
			<point x="461" y="463"/>
		</contour>
		<contour>
			<point x="228" y="441" type="curve" smooth="yes"/>
			<point x="213" y="441"/>
			<point x="202" y="457"/>
			<point x="202" y="497" type="curve" smooth="yes"/>
			<point x="202" y="566"/>
			<point x="216" y="673"/>
			<point x="278" y="673" type="curve" smooth="yes"/>
			<point x="290" y="673"/>
			<point x="301" y="670"/>
			<point x="313" y="664" type="curve"/>
			<point x="297" y="604" type="line" smooth="yes"/>
			<point x="260" y="466"/>
			<point x="251" y="441"/>
		</contour>
	</outline>
</glyph>
<glyph name="logicalnot" format="2">
	<unicode hex="00AC"/>
	<advance width="582"/>
	<outline>
		<contour>
			<point x="335" y="125" type="line"/>
			<point x="497" y="125" type="line"/>
			<point x="511" y="409" type="line"/>
			<point x="83" y="409" type="line"/>
			<point x="75" y="254" type="line"/>
			<point x="341" y="254" type="line"/>
		</contour>
	</outline>
</glyph>
<glyph name="softhyphen" format="2">
	<unicode hex="00AD"/>
	<advance width="443"/>
	<outline>
		<contour>
			<point x="47" y="329" type="line"/>
			<point x="42" y="212" type="line"/>
			<point x="396" y="212" type="line"/>
			<point x="401" y="329" type="line"/>
		</contour>
	</outline>
</glyph>
<glyph name="plusminus" format="2">
	<unicode hex="00B1"/>
	<advance width="582"/>
	<outline>
		<contour>
			<point x="209" y="205" type="line"/>
			<point x="368" y="205" type="line"/>
			<point x="372" y="320" type="line"/>
			<point x="502" y="320" type="line"/>
			<point x="508" y="475" type="line"/>
			<point x="377" y="475" type="line"/>
			<point x="381" y="587" type="line"/>
			<point x="222" y="587" type="line"/>
			<point x="218" y="475" type="line"/>
			<point x="88" y="475" type="line"/>
			<point x="82" y="320" type="line"/>
			<point x="213" y="320" type="line"/>
		</contour>
		<contour>
			<point x="64" y="1" type="line"/>
			<point x="492" y="1" type="line"/>
			<point x="500" y="156" type="line"/>
			<point x="72" y="156" type="line"/>
		</contour>
	</outline>
</glyph>
<glyph name="twosuperior" format="2">
	<unicode hex="00B2"/>
	<advance width="465"/>
	<outline>
		<contour>
			<point x="224" y="767" type="curve" smooth="yes"/>
			<point x="270" y="767"/>
			<point x="282" y="746"/>
			<point x="282" y="719" type="curve" smooth="yes"/>
			<point x="282" y="680"/>
			<point x="256" y="646"/>
			<point x="48" y="482" type="curve"/>
			<point x="61" y="374" type="line"/>
			<point x="438" y="374" type="line"/>
			<point x="456" y="559" type="line"/>
			<point x="382" y="559" type="line"/>
			<point x="370" y="515"/>
			<point x="346" y="489"/>
			<point x="285" y="489" type="curve" smooth="yes"/>
			<point x="166" y="489" type="line"/>
			<point x="368" y="570"/>
			<point x="450" y="611"/>
			<point x="450" y="710" type="curve" smooth="yes"/>
			<point x="450" y="778"/>
			<point x="394" y="839"/>
			<point x="259" y="839" type="curve" smooth="yes"/>
			<point x="121" y="839"/>
			<point x="50" y="770"/>
			<point x="50" y="708" type="curve" smooth="yes"/>
			<point x="50" y="682"/>
			<point x="65" y="647"/>
			<point x="118" y="647" type="curve" smooth="yes"/>
			<point x="144" y="647"/>
			<point x="176" y="662"/>
			<point x="199" y="690" type="curve"/>
			<point x="182" y="710" type="line" smooth="yes"/>
			<point x="152" y="745"/>
			<point x="178" y="767"/>
		</contour>
	</outline>
</glyph>
<glyph name="threesuperior" format="2">
	<unicode hex="00B3"/>
	<advance width="469"/>
	<outline>
		<contour>
			<point x="438" y="742" type="curve" smooth="yes"/>
			<point x="438" y="819"/>
			<point x="347" y="839"/>
			<point x="264" y="839" type="curve" smooth="yes"/>
			<point x="155" y="839"/>
			<point x="58" y="802"/>
			<point x="58" y="730" type="curve" smooth="yes"/>
			<point x="58" y="708"/>
			<point x="79" y="674"/>
			<point x="128" y="674" type="curve" smooth="yes"/>
			<point x="157" y="674"/>
			<point x="181" y="696"/>
			<point x="187" y="713" type="curve"/>
			<point x="172" y="730" type="line" smooth="yes"/>
			<point x="152" y="752"/>
			<point x="174" y="772"/>
			<point x="210" y="772" type="curve" smooth="yes"/>
			<point x="248" y="772"/>
			<point x="263" y="753"/>
			<point x="263" y="723" type="curve" smooth="yes"/>
			<point x="263" y="674"/>
			<point x="241" y="648"/>
			<point x="166" y="633" type="curve"/>
			<point x="176" y="572" type="line"/>
			<point x="194" y="575"/>
			<point x="216" y="578"/>
			<point x="228" y="578" type="curve" smooth="yes"/>
			<point x="256" y="578"/>
			<point x="285" y="565"/>
			<point x="285" y="522" type="curve" smooth="yes"/>
			<point x="285" y="481"/>
			<point x="259" y="436"/>
			<point x="196" y="436" type="curve" smooth="yes"/>
			<point x="155" y="436"/>
			<point x="147" y="455"/>
			<point x="155" y="472" type="curve" smooth="yes"/>
			<point x="167" y="499" type="line"/>
			<point x="161" y="507"/>
			<point x="136" y="523"/>
			<point x="103" y="523" type="curve" smooth="yes"/>
			<point x="53" y="523"/>
			<point x="33" y="483"/>
			<point x="33" y="455" type="curve" smooth="yes"/>
			<point x="33" y="397"/>
			<point x="89" y="362"/>
			<point x="190" y="362" type="curve" smooth="yes"/>
			<point x="370" y="362"/>
			<point x="458" y="442"/>
			<point x="458" y="525" type="curve" smooth="yes"/>
			<point x="458" y="601"/>
			<point x="407" y="619"/>
			<point x="331" y="627" type="curve"/>
			<point x="331" y="633" type="line"/>
			<point x="389" y="653"/>
			<point x="438" y="687"/>
		</contour>
	</outline>
</glyph>
<glyph name="periodcentered" format="2">
	<unicode hex="00B7"/>
	<advance width="417"/>
	<outline>
		<contour>
			<point x="86" y="292" type="curve" smooth="yes"/>
			<point x="86" y="233"/>
			<point x="133" y="200"/>
			<point x="201" y="200" type="curve" smooth="yes"/>
			<point x="271" y="200"/>
			<point x="326" y="239"/>
			<point x="326" y="305" type="curve" smooth="yes"/>
			<point x="326" y="361"/>
			<point x="279" y="400"/>
			<point x="208" y="400" type="curve" smooth="yes"/>
			<point x="135" y="400"/>
			<point x="86" y="354"/>
		</contour>
	</outline>
</glyph>
<glyph name="ordmasculine" format="2">
	<unicode hex="00BA"/>
	<advance width="477"/>
	<outline>
		<contour>
			<point x="252" y="362" type="curve" smooth="yes"/>
			<point x="395" y="362"/>
			<point x="460" y="463"/>
			<point x="460" y="570" type="curve" smooth="yes"/>
			<point x="460" y="685"/>
			<point x="401" y="742"/>
			<point x="276" y="742" type="curve" smooth="yes"/>
			<point x="117" y="742"/>
			<point x="59" y="649"/>
			<point x="59" y="540" type="curve" smooth="yes"/>
			<point x="59" y="425"/>
			<point x="127" y="362"/>
		</contour>
		<contour>
			<point x="254" y="443" type="curve" smooth="yes"/>
			<point x="222" y="443"/>
			<point x="213" y="479"/>
			<point x="213" y="528" type="curve" smooth="yes"/>
			<point x="213" y="613"/>
			<point x="227" y="662"/>
			<point x="266" y="662" type="curve" smooth="yes"/>
			<point x="303" y="662"/>
			<point x="308" y="627"/>
			<point x="308" y="574" type="curve" smooth="yes"/>
			<point x="308" y="485"/>
			<point x="296" y="443"/>
		</contour>
	</outline>
</glyph>
<glyph name="Oslash" format="2">
	<unicode hex="00D8"/>
	<advance width="797"/>
	<outline>
		<contour>
			<point x="10" y="-14" type="line"/>
			<point x="158" y="-14" type="line"/>
			<point x="192" y="25" type="line"/>
			<point x="241" y="-2"/>
			<point x="303" y="-16"/>
			<point x="378" y="-16" type="curve" smooth="yes"/>
			<point x="633" y="-16"/>
			<point x="769" y="141"/>
			<point x="775" y="382" type="curve" smooth="yes"/>
			<point x="777" y="477"/>
			<point x="756" y="557"/>
			<point x="708" y="614" type="curve"/>
			<point x="796" y="715" type="line"/>
			<point x="649" y="715" type="line"/>
			<point x="620" y="681" type="line"/>
			<point x="571" y="705"/>
			<point x="510" y="717"/>
			<point x="436" y="717" type="curve" smooth="yes"/>
			<point x="184" y="717"/>
			<point x="50" y="567"/>
			<point x="44" y="328" type="curve" smooth="yes"/>
			<point x="42" y="234"/>
			<point x="62" y="155"/>
			<point x="107" y="97" type="curve"/>
		</contour>
		<contour>
			<point x="395" y="97" type="curve" smooth="yes"/>
			<point x="350" y="97"/>
			<point x="321" y="117"/>
			<point x="304" y="153" type="curve"/>
			<point x="536" y="418" type="line"/>
			<point x="536" y="400"/>
			<point x="536" y="381"/>
			<point x="535" y="361" type="curve" smooth="yes"/>
			<point x="528" y="190"/>
			<point x="502" y="97"/>
		</contour>
		<contour>
			<point x="279" y="293" type="line"/>
			<point x="279" y="311"/>
			<point x="279" y="330"/>
			<point x="280" y="349" type="curve" smooth="yes"/>
			<point x="285" y="511"/>
			<point x="330" y="610"/>
			<point x="420" y="610" type="curve" smooth="yes"/>
			<point x="465" y="610"/>
			<point x="494" y="592"/>
			<point x="511" y="558" type="curve"/>
		</contour>
	</outline>
</glyph>
<glyph name="divide" format="2">
	<unicode hex="00F7"/>
	<advance width="582"/>
	<outline>
		<contour>
			<point x="67" y="229" type="line"/>
			<point x="515" y="229" type="line"/>
			<point x="520" y="384" type="line"/>
			<point x="72" y="384" type="line"/>
		</contour>
		<contour>
			<point x="274" y="9" type="curve" smooth="yes"/>
			<point x="330" y="9"/>
			<point x="374" y="49"/>
			<point x="377" y="101" type="curve" smooth="yes"/>
			<point x="380" y="153"/>
			<point x="347" y="191"/>
			<point x="287" y="191" type="curve" smooth="yes"/>
			<point x="232" y="191"/>
			<point x="188" y="151"/>
			<point x="184" y="99" type="curve" smooth="yes"/>
			<point x="180" y="48"/>
			<point x="215" y="9"/>
		</contour>
		<contour>
			<point x="306" y="422" type="curve" smooth="yes"/>
			<point x="362" y="422"/>
			<point x="406" y="462"/>
			<point x="409" y="514" type="curve" smooth="yes"/>
			<point x="412" y="566"/>
			<point x="379" y="604"/>
			<point x="319" y="604" type="curve" smooth="yes"/>
			<point x="264" y="604"/>
			<point x="220" y="564"/>
			<point x="216" y="512" type="curve" smooth="yes"/>
			<point x="212" y="461"/>
			<point x="247" y="422"/>
		</contour>
	</outline>
</glyph>
<glyph name="Eogonek" format="2">
	<unicode hex="0118"/>
	<advance width="663"/>
	<outline>
		<contour>
			<point x="12" y="0" type="line"/>
			<point x="471" y="0" type="line"/>
			<point x="345" y="-68"/>
			<point x="312" y="-107"/>
			<point x="312" y="-164" type="curve" smooth="yes"/>
			<point x="312" y="-226"/>
			<point x="370" y="-254"/>
			<point x="427" y="-254" type="curve" smooth="yes"/>
			<point x="497" y="-254"/>
			<point x="552" y="-230"/>
			<point x="598" y="-160" type="curve"/>
			<point x="548" y="-121" type="line"/>
			<point x="529" y="-143"/>
			<point x="510" y="-155"/>
			<point x="491" y="-155" type="curve" smooth="yes"/>
			<point x="475" y="-155"/>
			<point x="465" y="-147"/>
			<point x="465" y="-125" type="curve" smooth="yes"/>
			<point x="465" y="-85"/>
			<point x="521" y="-40"/>
			<point x="608" y="0" type="curve"/>
			<point x="632" y="218" type="line"/>
			<point x="522" y="218" type="line"/>
			<point x="510" y="177" type="line" smooth="yes"/>
			<point x="492" y="114"/>
			<point x="469" y="105"/>
			<point x="410" y="105" type="curve" smooth="yes"/>
			<point x="331" y="105" type="line"/>
			<point x="342" y="302" type="line"/>
			<point x="530" y="302" type="line"/>
			<point x="535" y="416" type="line"/>
			<point x="345" y="416" type="line"/>
			<point x="354" y="596" type="line"/>
			<point x="420" y="596" type="line" smooth="yes"/>
			<point x="477" y="596"/>
			<point x="495" y="581"/>
			<point x="512" y="524" type="curve" smooth="yes"/>
			<point x="523" y="488" type="line"/>
			<point x="627" y="497" type="line"/>
			<point x="612" y="700" type="line"/>
			<point x="45" y="700" type="line"/>
			<point x="39" y="613" type="line"/>
			<point x="123" y="596" type="line"/>
			<point x="100" y="106" type="line"/>
			<point x="21" y="93" type="line"/>
		</contour>
	</outline>
</glyph>
<glyph name="Iogonek" format="2">
	<unicode hex="012E"/>
	<advance width="445"/>
	<outline>
		<contour>
			<point x="12" y="0" type="line"/>
			<point x="213" y="0" type="line"/>
			<point x="112" y="-68"/>
			<point x="75" y="-107"/>
			<point x="75" y="-169" type="curve" smooth="yes"/>
			<point x="75" y="-226"/>
			<point x="133" y="-254"/>
			<point x="190" y="-254" type="curve" smooth="yes"/>
			<point x="260" y="-254"/>
			<point x="315" y="-230"/>
			<point x="361" y="-160" type="curve"/>
			<point x="311" y="-121" type="line"/>
			<point x="292" y="-143"/>
			<point x="273" y="-155"/>
			<point x="254" y="-155" type="curve" smooth="yes"/>
			<point x="238" y="-155"/>
			<point x="228" y="-147"/>
			<point x="228" y="-132" type="curve" smooth="yes"/>
			<point x="228" y="-105"/>
			<point x="250" y="-64"/>
			<point x="306" y="0" type="curve"/>
			<point x="425" y="0" type="line"/>
			<point x="429" y="95" type="line"/>
			<point x="331" y="108" type="line"/>
			<point x="354" y="597" type="line"/>
			<point x="440" y="611" type="line"/>
			<point x="448" y="700" type="line"/>
			<point x="42" y="700" type="line"/>
			<point x="35" y="611" type="line"/>
			<point x="123" y="594" type="line"/>
			<point x="100" y="105" type="line"/>
			<point x="16" y="95" type="line"/>
		</contour>
	</outline>
</glyph>
<glyph name="iogonek" format="2">
	<unicode hex="012F"/>
	<advance width="375"/>
	<outline>
		<contour>
			<point x="71" y="129" type="line" smooth="yes"/>
			<point x="61" y="27"/>
			<point x="100" y="-14"/>
			<point x="202" y="-14" type="curve"/>
			<point x="116" y="-75"/>
			<point x="84" y="-111"/>
			<point x="84" y="-169" type="curve" smooth="yes"/>
			<point x="84" y="-226"/>
			<point x="142" y="-254"/>
			<point x="199" y="-254" type="curve" smooth="yes"/>
			<point x="269" y="-254"/>
			<point x="324" y="-230"/>
			<point x="370" y="-160" type="curve"/>
			<point x="320" y="-121" type="line"/>
			<point x="301" y="-143"/>
			<point x="282" y="-155"/>
			<point x="263" y="-155" type="curve" smooth="yes"/>
			<point x="247" y="-155"/>
			<point x="237" y="-147"/>
			<point x="237" y="-125" type="curve" smooth="yes"/>
			<point x="237" y="-93"/>
			<point x="261" y="-45"/>
			<point x="322" y="0" type="curve" smooth="yes"/>
			<point x="339" y="12"/>
			<point x="358" y="24"/>
			<point x="369" y="31" type="curve"/>
			<point x="351" y="109" type="line"/>
			<point x="338" y="105"/>
			<point x="321" y="100"/>
			<point x="302" y="100" type="curve" smooth="yes"/>
			<point x="279" y="100"/>
			<point x="275" y="119"/>
			<point x="277" y="143" type="curve" smooth="yes"/>
			<point x="302" y="390" type="line" smooth="yes"/>
			<point x="312" y="494"/>
			<point x="247" y="531"/>
			<point x="158" y="531" type="curve" smooth="yes"/>
			<point x="82" y="531"/>
			<point x="20" y="507"/>
			<point x="-7" y="492" type="curve"/>
			<point x="20" y="405" type="line"/>
			<point x="42" y="413"/>
			<point x="59" y="418"/>
			<point x="75" y="418" type="curve" smooth="yes"/>
			<point x="92" y="418"/>
			<point x="98" y="403"/>
			<point x="96" y="379" type="curve" smooth="yes"/>
		</contour>
		<contour>
			<point x="87" y="697" type="curve" smooth="yes"/>
			<point x="87" y="640"/>
			<point x="129" y="600"/>
			<point x="197" y="600" type="curve" smooth="yes"/>
			<point x="262" y="600"/>
			<point x="306" y="641"/>
			<point x="306" y="697" type="curve" smooth="yes"/>
			<point x="306" y="753"/>
			<point x="261" y="794"/>
			<point x="196" y="794" type="curve" smooth="yes"/>
			<point x="129" y="794"/>
			<point x="87" y="753"/>
		</contour>
	</outline>
</glyph>
<glyph name="idotless" format="2">
	<unicode hex="0131"/>
	<advance width="375"/>
	<outline>
		<contour>
			<point x="100" y="379" type="curve" smooth="yes"/>
			<point x="75" y="129" type="line" smooth="yes"/>
			<point x="65" y="26"/>
			<point x="106" y="-14"/>
			<point x="204" y="-14" type="curve" smooth="yes"/>
			<point x="258" y="-14"/>
			<point x="341" y="10"/>
			<point x="373" y="31" type="curve"/>
			<point x="355" y="109" type="line"/>
			<point x="342" y="105"/>
			<point x="325" y="100"/>
			<point x="306" y="100" type="curve" smooth="yes"/>
			<point x="283" y="100"/>
			<point x="279" y="119"/>
			<point x="281" y="143" type="curve" smooth="yes"/>
			<point x="306" y="390" type="line" smooth="yes"/>
			<point x="316" y="494"/>
			<point x="251" y="531"/>
			<point x="162" y="531" type="curve" smooth="yes"/>
			<point x="86" y="531"/>
			<point x="24" y="507"/>
			<point x="-3" y="492" type="curve"/>
			<point x="24" y="405" type="line"/>
			<point x="46" y="413"/>
			<point x="63" y="418"/>
			<point x="79" y="418" type="curve" smooth="yes"/>
			<point x="96" y="418"/>
			<point x="102" y="403"/>
		</contour>
	</outline>
	<anchor name="bottom" x="185" y="-30"/>
	<anchor name="top" x="166" y="550"/>
</glyph>
<glyph name="Eng" format="2">
	<unicode hex="014A"/>
	<advance width="798"/>
	<outline>
		<contour>
			<point x="12" y="0" type="line"/>
			<point x="284" y="0" type="line"/>
			<point x="290" y="91" type="line"/>
			<point x="205" y="104" type="line"/>
			<point x="222" y="570" type="line"/>
			<point x="472" y="11" type="line"/>
			<point x="462" y="-49"/>
			<point x="437" y="-95"/>
			<point x="380" y="-158" type="curve"/>
			<point x="448" y="-244" type="line"/>
			<point x="563" y="-166"/>
			<point x="701" y="-78"/>
			<point x="707" y="90" type="curve" smooth="yes"/>
			<point x="724" y="592" type="line"/>
			<point x="800" y="609" type="line"/>
			<point x="808" y="700" type="line"/>
			<point x="537" y="700" type="line"/>
			<point x="530" y="609" type="line"/>
			<point x="618" y="592" type="line"/>
			<point x="601" y="199" type="line"/>
			<point x="383" y="700" type="line"/>
			<point x="45" y="700" type="line"/>
			<point x="36" y="607" type="line"/>
			<point x="118" y="596" type="line"/>
			<point x="92" y="104" type="line"/>
			<point x="18" y="91" type="line"/>
		</contour>
	</outline>
</glyph>
<glyph name="oe" format="2">
	<unicode hex="0153"/>
	<advance width="919"/>
	<outline>
		<contour>
			<point x="712" y="531" type="curve" smooth="yes"/>
			<point x="611" y="531"/>
			<point x="533" y="486"/>
			<point x="495" y="432" type="curve"/>
			<point x="465" y="494"/>
			<point x="391" y="531"/>
			<point x="300" y="531" type="curve" smooth="yes"/>
			<point x="114" y="531"/>
			<point x="33" y="398"/>
			<point x="33" y="249" type="curve" smooth="yes"/>
			<point x="33" y="84"/>
			<point x="122" y="-14"/>
			<point x="269" y="-14" type="curve" smooth="yes"/>
			<point x="364" y="-14"/>
			<point x="437" y="23"/>
			<point x="473" y="68" type="curve"/>
			<point x="506" y="19"/>
			<point x="565" y="-14"/>
			<point x="652" y="-14" type="curve" smooth="yes"/>
			<point x="740" y="-14"/>
			<point x="841" y="35"/>
			<point x="883" y="87" type="curve"/>
			<point x="830" y="171" type="line"/>
			<point x="792" y="144"/>
			<point x="743" y="119"/>
			<point x="703" y="119" type="curve" smooth="yes"/>
			<point x="628" y="119"/>
			<point x="611" y="154"/>
			<point x="604" y="195" type="curve"/>
			<point x="652" y="209" type="line" smooth="yes"/>
			<point x="825" y="259"/>
			<point x="889" y="298"/>
			<point x="889" y="395" type="curve" smooth="yes"/>
			<point x="889" y="472"/>
			<point x="826" y="531"/>
		</contour>
		<contour>
			<point x="315" y="81" type="curve" smooth="yes"/>
			<point x="262" y="81"/>
			<point x="257" y="137"/>
			<point x="257" y="249" type="curve" smooth="yes"/>
			<point x="257" y="347"/>
			<point x="268" y="432"/>
			<point x="329" y="432" type="curve" smooth="yes"/>
			<point x="374" y="432"/>
			<point x="385" y="391"/>
			<point x="385" y="257" type="curve" smooth="yes"/>
			<point x="385" y="144"/>
			<point x="370" y="81"/>
		</contour>
		<contour>
			<point x="698" y="395" type="curve" smooth="yes"/>
			<point x="698" y="325"/>
			<point x="660" y="313"/>
			<point x="613" y="300" type="curve" smooth="yes"/>
			<point x="599" y="296" type="line"/>
			<point x="609" y="412"/>
			<point x="638" y="442"/>
			<point x="668" y="442" type="curve" smooth="yes"/>
			<point x="685" y="442"/>
			<point x="698" y="433"/>
		</contour>
	</outline>
</glyph>
<glyph name="scedilla" format="2">
	<unicode hex="015F"/>
	<advance width="556"/>
	<outline>
		<contour>
			<point x="242" y="-252" type="curve" smooth="yes"/>
			<point x="360" y="-252"/>
			<point x="408" y="-190"/>
			<point x="408" y="-133" type="curve" smooth="yes"/>
			<point x="408" y="-55"/>
			<point x="319" y="-44"/>
			<point x="289" y="-42" type="curve"/>
			<point x="301" y="-12" type="line"/>
			<point x="438" y="1"/>
			<point x="528" y="69"/>
			<point x="528" y="185" type="curve" smooth="yes"/>
			<point x="528" y="299"/>
			<point x="427" y="325"/>
			<point x="325" y="352" type="curve" smooth="yes"/>
			<point x="251" y="372"/>
			<point x="223" y="384"/>
			<point x="223" y="411" type="curve" smooth="yes"/>
			<point x="223" y="439"/>
			<point x="256" y="458"/>
			<point x="304" y="458" type="curve" smooth="yes"/>
			<point x="370" y="458"/>
			<point x="387" y="436"/>
			<point x="375" y="391" type="curve" smooth="yes"/>
			<point x="370" y="373" type="line"/>
			<point x="383" y="360"/>
			<point x="424" y="346"/>
			<point x="457" y="346" type="curve" smooth="yes"/>
			<point x="496" y="346"/>
			<point x="529" y="372"/>
			<point x="529" y="412" type="curve" smooth="yes"/>
			<point x="529" y="500"/>
			<point x="422" y="534"/>
			<point x="317" y="534" type="curve" smooth="yes"/>
			<point x="119" y="534"/>
			<point x="43" y="445"/>
			<point x="43" y="347" type="curve" smooth="yes"/>
			<point x="43" y="224"/>
			<point x="138" y="196"/>
			<point x="249" y="166" type="curve" smooth="yes"/>
			<point x="330" y="144"/>
			<point x="352" y="133"/>
			<point x="352" y="103" type="curve" smooth="yes"/>
			<point x="352" y="74"/>
			<point x="318" y="61"/>
			<point x="272" y="61" type="curve" smooth="yes"/>
			<point x="204" y="61"/>
			<point x="194" y="80"/>
			<point x="193" y="115" type="curve" smooth="yes"/>
			<point x="192" y="149" type="line"/>
			<point x="178" y="157"/>
			<point x="149" y="164"/>
			<point x="118" y="164" type="curve" smooth="yes"/>
			<point x="72" y="164"/>
			<point x="33" y="139"/>
			<point x="33" y="87" type="curve" smooth="yes"/>
			<point x="33" y="20"/>
			<point x="118" y="-8"/>
			<point x="215" y="-13" type="curve"/>
			<point x="187" y="-91" type="line"/>
			<point x="201" y="-112" type="line"/>
			<point x="232" y="-104"/>
			<point x="270" y="-107"/>
			<point x="270" y="-133" type="curve" smooth="yes"/>
			<point x="270" y="-161"/>
			<point x="242" y="-167"/>
			<point x="215" y="-167" type="curve" smooth="yes"/>
			<point x="190" y="-167"/>
			<point x="172" y="-164"/>
			<point x="148" y="-158" type="curve"/>
			<point x="124" y="-225" type="line"/>
			<point x="150" y="-240"/>
			<point x="201" y="-252"/>
		</contour>
	</outline>
</glyph>
<glyph name="tcedilla" format="2">
	<unicode hex="0163"/>
	<advance width="454"/>
	<outline>
		<contour>
			<point x="212" y="-252" type="curve" smooth="yes"/>
			<point x="330" y="-252"/>
			<point x="378" y="-190"/>
			<point x="378" y="-133" type="curve" smooth="yes"/>
			<point x="378" y="-55"/>
			<point x="289" y="-44"/>
			<point x="259" y="-42" type="curve"/>
			<point x="271" y="-12" type="line"/>
			<point x="350" y="-4"/>
			<point x="420" y="32"/>
			<point x="458" y="74" type="curve"/>
			<point x="412" y="149" type="line"/>
			<point x="382" y="128"/>
			<point x="356" y="116"/>
			<point x="327" y="116" type="curve" smooth="yes"/>
			<point x="284" y="116"/>
			<point x="280" y="145"/>
			<point x="282" y="188" type="curve" smooth="yes"/>
			<point x="295" y="426" type="line"/>
			<point x="414" y="426" type="line"/>
			<point x="418" y="517" type="line"/>
			<point x="298" y="517" type="line"/>
			<point x="306" y="674" type="line"/>
			<point x="158" y="674" type="line"/>
			<point x="94" y="519" type="line"/>
			<point x="14" y="511" type="line"/>
			<point x="6" y="426" type="line"/>
			<point x="87" y="426" type="line"/>
			<point x="71" y="141" type="line" smooth="yes"/>
			<point x="66" y="56"/>
			<point x="109" y="5"/>
			<point x="187" y="-10" type="curve"/>
			<point x="157" y="-91" type="line"/>
			<point x="171" y="-112" type="line"/>
			<point x="202" y="-104"/>
			<point x="240" y="-107"/>
			<point x="240" y="-133" type="curve" smooth="yes"/>
			<point x="240" y="-161"/>
			<point x="212" y="-167"/>
			<point x="185" y="-167" type="curve" smooth="yes"/>
			<point x="160" y="-167"/>
			<point x="142" y="-164"/>
			<point x="118" y="-158" type="curve"/>
			<point x="94" y="-225" type="line"/>
			<point x="120" y="-240"/>
			<point x="171" y="-252"/>
		</contour>
	</outline>
</glyph>
<glyph name="tbar" format="2">
	<unicode hex="0167"/>
	<advance width="454"/>
	<outline>
		<contour>
			<point x="236" y="-14" type="curve" smooth="yes"/>
			<point x="330" y="-14"/>
			<point x="414" y="26"/>
			<point x="458" y="74" type="curve"/>
			<point x="412" y="149" type="line"/>
			<point x="382" y="128"/>
			<point x="356" y="116"/>
			<point x="327" y="116" type="curve" smooth="yes"/>
			<point x="284" y="116"/>
			<point x="280" y="145"/>
			<point x="282" y="188" type="curve" smooth="yes"/>
			<point x="284" y="229" type="line"/>
			<point x="402" y="229" type="line"/>
			<point x="408" y="336" type="line"/>
			<point x="290" y="336" type="line"/>
			<point x="295" y="426" type="line"/>
			<point x="414" y="426" type="line"/>
			<point x="418" y="517" type="line"/>
			<point x="298" y="517" type="line"/>
			<point x="306" y="674" type="line"/>
			<point x="158" y="674" type="line"/>
			<point x="94" y="519" type="line"/>
			<point x="14" y="511" type="line"/>
			<point x="6" y="426" type="line"/>
			<point x="87" y="426" type="line"/>
			<point x="82" y="336" type="line"/>
			<point x="4" y="336" type="line"/>
			<point x="-4" y="229" type="line"/>
			<point x="76" y="229" type="line"/>
			<point x="71" y="141" type="line" smooth="yes"/>
			<point x="65" y="40"/>
			<point x="127" y="-14"/>
		</contour>
	</outline>
</glyph>
<glyph name="florin" format="2">
	<unicode hex="0192"/>
	<advance width="744"/>
	<outline>
		<contour>
			<point x="147" y="-115" type="curve" smooth="yes"/>
			<point x="121" y="-115"/>
			<point x="115" y="-99"/>
			<point x="128" y="-57" type="curve" smooth="yes"/>
			<point x="141" y="-14" type="line"/>
			<point x="126" y="5"/>
			<point x="90" y="17"/>
			<point x="63" y="17" type="curve" smooth="yes"/>
			<point x="-3" y="17"/>
			<point x="-32" y="-20"/>
			<point x="-32" y="-76" type="curve" smooth="yes"/>
			<point x="-32" y="-158"/>
			<point x="61" y="-193"/>
			<point x="160" y="-193" type="curve" smooth="yes"/>
			<point x="305" y="-193"/>
			<point x="396" y="-92"/>
			<point x="412" y="45" type="curve" smooth="yes"/>
			<point x="449" y="360" type="line"/>
			<point x="598" y="360" type="line"/>
			<point x="605" y="445" type="line"/>
			<point x="459" y="445" type="line"/>
			<point x="468" y="534" type="line" smooth="yes"/>
			<point x="476" y="610"/>
			<point x="492" y="636"/>
			<point x="522" y="636" type="curve" smooth="yes"/>
			<point x="548" y="636"/>
			<point x="554" y="621"/>
			<point x="541" y="578" type="curve" smooth="yes"/>
			<point x="528" y="535" type="line"/>
			<point x="543" y="516"/>
			<point x="579" y="504"/>
			<point x="606" y="504" type="curve" smooth="yes"/>
			<point x="672" y="504"/>
			<point x="701" y="541"/>
			<point x="701" y="598" type="curve" smooth="yes"/>
			<point x="701" y="679"/>
			<point x="608" y="714"/>
			<point x="509" y="714" type="curve" smooth="yes"/>
			<point x="373" y="714"/>
			<point x="276" y="626"/>
			<point x="254" y="478" type="curve" smooth="yes"/>
			<point x="249" y="445" type="line"/>
			<point x="169" y="445" type="line"/>
			<point x="161" y="360" type="line"/>
			<point x="241" y="360" type="line"/>
			<point x="200" y="-10" type="line" smooth="yes"/>
			<point x="190" y="-98"/>
			<point x="177" y="-115"/>
		</contour>
	</outline>
</glyph>
<glyph name="Oogonek" format="2">
	<unicode hex="01EA"/>
	<advance width="809"/>
	<outline>
		<contour>
			<point x="400" y="-254" type="curve" smooth="yes"/>
			<point x="470" y="-254"/>
			<point x="525" y="-230"/>
			<point x="571" y="-160" type="curve"/>
			<point x="521" y="-121" type="line"/>
			<point x="502" y="-143"/>
			<point x="483" y="-155"/>
			<point x="464" y="-155" type="curve" smooth="yes"/>
			<point x="448" y="-155"/>
			<point x="438" y="-147"/>
			<point x="438" y="-132" type="curve" smooth="yes"/>
			<point x="438" y="-105"/>
			<point x="461" y="-63"/>
			<point x="518" y="3" type="curve"/>
			<point x="683" y="51"/>
			<point x="770" y="190"/>
			<point x="775" y="382" type="curve" smooth="yes"/>
			<point x="780" y="586"/>
			<point x="675" y="717"/>
			<point x="436" y="717" type="curve" smooth="yes"/>
			<point x="184" y="717"/>
			<point x="50" y="567"/>
			<point x="44" y="328" type="curve" smooth="yes"/>
			<point x="39" y="120"/>
			<point x="147" y="-16"/>
			<point x="378" y="-16" type="curve" smooth="yes"/>
			<point x="386" y="-16"/>
			<point x="393" y="-16"/>
			<point x="401" y="-16" type="curve"/>
			<point x="316" y="-74"/>
			<point x="285" y="-112"/>
			<point x="285" y="-169" type="curve" smooth="yes"/>
			<point x="285" y="-226"/>
			<point x="343" y="-254"/>
		</contour>
		<contour>
			<point x="395" y="97" type="curve" smooth="yes"/>
			<point x="296" y="97"/>
			<point x="275" y="193"/>
			<point x="280" y="349" type="curve" smooth="yes"/>
			<point x="285" y="511"/>
			<point x="330" y="610"/>
			<point x="420" y="610" type="curve" smooth="yes"/>
			<point x="522" y="610"/>
			<point x="541" y="514"/>
			<point x="535" y="361" type="curve" smooth="yes"/>
			<point x="528" y="190"/>
			<point x="502" y="97"/>
		</contour>
	</outline>
</glyph>
<glyph name="commaturnedmod" format="2">
	<unicode hex="02BB"/>
	<outline>
		<contour>
			<point x="53" y="840" type="line"/>
			<point x="-26" y="799"/>
			<point x="-84" y="723"/>
			<point x="-84" y="663" type="curve" smooth="yes"/>
			<point x="-84" y="608"/>
			<point x="-52" y="576"/>
			<point x="11" y="576" type="curve" smooth="yes"/>
			<point x="83" y="576"/>
			<point x="119" y="629"/>
			<point x="98" y="684" type="curve"/>
			<point x="65" y="694" type="line" smooth="yes"/>
			<point x="50" y="699"/>
			<point x="45" y="705"/>
			<point x="45" y="715" type="curve" smooth="yes"/>
			<point x="45" y="736"/>
			<point x="60" y="755"/>
			<point x="99" y="786" type="curve"/>
		</contour>
	</outline>
	<anchor name="_top" x="10" y="550"/>
</glyph>
<glyph name="breve" format="2">
	<unicode hex="02D8"/>
	<advance width="500"/>
	<outline>
		<contour>
			<point x="270" y="583" type="curve" smooth="yes"/>
			<point x="386" y="583"/>
			<point x="460" y="661"/>
			<point x="480" y="810" type="curve"/>
			<point x="401" y="822" type="line"/>
			<point x="379" y="745"/>
			<point x="342" y="718"/>
			<point x="273" y="718" type="curve" smooth="yes"/>
			<point x="219" y="718"/>
			<point x="175" y="738"/>
			<point x="151" y="822" type="curve"/>
			<point x="78" y="810" type="line"/>
			<point x="87" y="649"/>
			<point x="153" y="583"/>
		</contour>
	</outline>
	<anchor name="_top" x="268" y="550"/>
</glyph>
<glyph name="ogonek" format="2">
	<unicode hex="02DB"/>
	<advance width="500"/>
	<outline>
		<contour>
			<point x="344" y="9" type="curve"/>
			<point x="257" y="9" type="line"/>
			<point x="145" y="-65"/>
			<point x="105" y="-104"/>
			<point x="105" y="-169" type="curve" smooth="yes"/>
			<point x="105" y="-226"/>
			<point x="163" y="-254"/>
			<point x="220" y="-254" type="curve" smooth="yes"/>
			<point x="290" y="-254"/>
			<point x="345" y="-230"/>
			<point x="391" y="-160" type="curve"/>
			<point x="341" y="-121" type="line"/>
			<point x="322" y="-143"/>
			<point x="303" y="-155"/>
			<point x="284" y="-155" type="curve" smooth="yes"/>
			<point x="268" y="-155"/>
			<point x="258" y="-147"/>
			<point x="258" y="-132" type="curve" smooth="yes"/>
			<point x="258" y="-104"/>
			<point x="282" y="-60"/>
		</contour>
	</outline>
	<anchor name="_bottom" x="248" y="-30"/>
</glyph>
<glyph name="tilde" format="2">
	<unicode hex="02DC"/>
	<advance width="500"/>
	<outline>
		<contour>
			<point x="347" y="608" type="curve" smooth="yes"/>
			<point x="398" y="608"/>
			<point x="441" y="644"/>
			<point x="484" y="738" type="curve"/>
			<point x="424" y="770" type="line"/>
			<point x="399" y="737"/>
			<point x="392" y="728"/>
			<point x="372" y="728" type="curve" smooth="yes"/>
			<point x="351" y="728"/>
			<point x="331" y="735"/>
			<point x="286" y="753" type="curve" smooth="yes"/>
			<point x="227" y="777"/>
			<point x="208" y="783"/>
			<point x="178" y="783" type="curve" smooth="yes"/>
			<point x="132" y="783"/>
			<point x="110" y="750"/>
			<point x="61" y="643" type="curve"/>
			<point x="120" y="613" type="line"/>
			<point x="150" y="654"/>
			<point x="154" y="661"/>
			<point x="169" y="661" type="curve" smooth="yes"/>
			<point x="180" y="661"/>
			<point x="205" y="650"/>
			<point x="251" y="632" type="curve" smooth="yes"/>
			<point x="289" y="617"/>
			<point x="314" y="608"/>
		</contour>
	</outline>
	<anchor name="_top" x="268" y="550"/>
</glyph>
<glyph name="dblgravecomb" format="2">
	<unicode hex="030F"/>
	<outline>
		<contour>
			<point x="-23" y="688" type="curve" smooth="yes"/>
			<point x="129" y="570" type="line"/>
			<point x="178" y="618" type="line"/>
			<point x="39" y="825" type="line"/>
			<point x="-37" y="834"/>
			<point x="-63" y="795"/>
			<point x="-63" y="754" type="curve" smooth="yes"/>
			<point x="-63" y="724"/>
			<point x="-45" y="705"/>
		</contour>
		<contour>
			<point x="-253" y="683" type="curve" smooth="yes"/>
			<point x="-86" y="570" type="line"/>
			<point x="-38" y="618" type="line"/>
			<point x="-188" y="825" type="line"/>
			<point x="-267" y="829"/>
			<point x="-292" y="793"/>
			<point x="-292" y="749" type="curve" smooth="yes"/>
			<point x="-292" y="719"/>
			<point x="-275" y="698"/>
		</contour>
	</outline>
	<anchor name="_top" x="10" y="550"/>
</glyph>
<glyph name="horncomb" format="2">
	<unicode hex="031B"/>
	<outline>
		<contour>
			<point x="-76" y="428" type="curve"/>
			<point x="-79" y="351" type="line"/>
			<point x="134" y="364"/>
			<point x="173" y="503"/>
			<point x="173" y="574" type="curve" smooth="yes"/>
			<point x="173" y="652"/>
			<point x="127" y="684"/>
			<point x="72" y="684" type="curve" smooth="yes"/>
			<point x="11" y="684"/>
			<point x="-30" y="645"/>
			<point x="-30" y="597" type="curve" smooth="yes"/>
			<point x="-30" y="580"/>
			<point x="-25" y="559"/>
			<point x="-17" y="545" type="curve"/>
			<point x="24" y="535" type="line" smooth="yes"/>
			<point x="45" y="530"/>
			<point x="51" y="527"/>
			<point x="51" y="512" type="curve" smooth="yes"/>
			<point x="51" y="466"/>
			<point x="-1" y="433"/>
		</contour>
	</outline>
</glyph>
<glyph name="dieresistonos" format="2">
	<unicode hex="0385"/>
	<advance width="670"/>
	<outline>
		<contour>
			<point x="306" y="573" type="line"/>
			<point x="466" y="768" type="line"/>
			<point x="466" y="786" type="line"/>
			<point x="446" y="815"/>
			<point x="420" y="837"/>
			<point x="385" y="837" type="curve" smooth="yes"/>
			<point x="352" y="837"/>
			<point x="334" y="816"/>
			<point x="317" y="769" type="curve" smooth="yes"/>
			<point x="254" y="597" type="line"/>
		</contour>
		<contour>
			<point x="147" y="603" type="curve" smooth="yes"/>
			<point x="207" y="603"/>
			<point x="251" y="638"/>
			<point x="251" y="696" type="curve" smooth="yes"/>
			<point x="251" y="752"/>
			<point x="215" y="784"/>
			<point x="152" y="784" type="curve" smooth="yes"/>
			<point x="94" y="784"/>
			<point x="49" y="748"/>
			<point x="49" y="691" type="curve" smooth="yes"/>
			<point x="49" y="635"/>
			<point x="86" y="603"/>
		</contour>
		<contour>
			<point x="565" y="604" type="curve" smooth="yes"/>
			<point x="624" y="604"/>
			<point x="668" y="639"/>
			<point x="668" y="697" type="curve" smooth="yes"/>
			<point x="668" y="753"/>
			<point x="632" y="785"/>
			<point x="570" y="785" type="curve" smooth="yes"/>
			<point x="512" y="785"/>
			<point x="466" y="749"/>
			<point x="466" y="692" type="curve" smooth="yes"/>
			<point x="466" y="636"/>
			<point x="503" y="604"/>
		</contour>
	</outline>
	<anchor name="_top" x="308" y="550"/>
</glyph>
<glyph name="Delta" format="2">
	<unicode hex="0394"/>
	<advance width="682"/>
	<outline>
		<contour>
			<point x="22" y="0" type="line"/>
			<point x="660" y="0" type="line"/>
			<point x="666" y="94" type="line"/>
			<point x="477" y="714" type="line"/>
			<point x="250" y="693" type="line"/>
			<point x="12" y="93" type="line"/>
		</contour>
		<contour>
			<point x="152" y="129" type="line"/>
			<point x="311" y="579" type="line"/>
			<point x="315" y="579" type="line"/>
			<point x="419" y="129" type="line"/>
		</contour>
	</outline>
</glyph>
<glyph name="Lambda" format="2">
	<unicode hex="039B"/>
	<advance width="754"/>
	<outline>
		<contour>
			<point x="-1" y="0" type="line"/>
			<point x="275" y="0" type="line"/>
			<point x="282" y="90" type="line"/>
			<point x="200" y="102" type="line"/>
			<point x="348" y="579" type="line"/>
			<point x="352" y="579" type="line"/>
			<point x="442" y="102" type="line"/>
			<point x="369" y="90" type="line"/>
			<point x="360" y="0" type="line"/>
			<point x="742" y="0" type="line"/>
			<point x="748" y="94" type="line"/>
			<point x="680" y="103" type="line"/>
			<point x="514" y="714" type="line"/>
			<point x="287" y="693" type="line"/>
			<point x="73" y="102" type="line"/>
			<point x="9" y="93" type="line"/>
		</contour>
	</outline>
</glyph>
<glyph name="Pi" format="2">
	<unicode hex="03A0"/>
	<advance width="834"/>
	<outline>
		<contour>
			<point x="12" y="0" type="line"/>
			<point x="386" y="0" type="line"/>
			<point x="392" y="92" type="line"/>
			<point x="327" y="107" type="line"/>
			<point x="351" y="591" type="line"/>
			<point x="522" y="591" type="line"/>
			<point x="497" y="104" type="line"/>
			<point x="435" y="92" type="line"/>
			<point x="429" y="0" type="line"/>
			<point x="812" y="0" type="line"/>
			<point x="818" y="94" type="line"/>
			<point x="728" y="107" type="line"/>
			<point x="752" y="595" type="line"/>
			<point x="832" y="609" type="line"/>
			<point x="837" y="700" type="line"/>
			<point x="43" y="700" type="line"/>
			<point x="38" y="614" type="line"/>
			<point x="120" y="597" type="line"/>
			<point x="96" y="102" type="line"/>
			<point x="18" y="91" type="line"/>
		</contour>
	</outline>
</glyph>
<glyph name="Sigma" format="2">
	<unicode hex="03A3"/>
	<advance width="714"/>
	<outline>
		<contour>
			<point x="39" y="0" type="line"/>
			<point x="647" y="0" type="line"/>
			<point x="674" y="248" type="line"/>
			<point x="565" y="248" type="line"/>
			<point x="548" y="192" type="line" smooth="yes"/>
			<point x="529" y="133"/>
			<point x="502" y="115"/>
			<point x="430" y="115" type="curve" smooth="yes"/>
			<point x="236" y="115" type="line"/>
			<point x="258" y="80" type="line"/>
			<point x="458" y="357" type="line"/>
			<point x="459" y="369" type="line"/>
			<point x="322" y="593" type="line"/>
			<point x="444" y="593" type="line" smooth="yes"/>
			<point x="509" y="593"/>
			<point x="535" y="572"/>
			<point x="553" y="503" type="curve" smooth="yes"/>
			<point x="558" y="484" type="line"/>
			<point x="664" y="494" type="line"/>
			<point x="649" y="700" type="line"/>
			<point x="76" y="700" type="line"/>
			<point x="57" y="591" type="line"/>
			<point x="217" y="335" type="line"/>
			<point x="39" y="90" type="line"/>
		</contour>
	</outline>
</glyph>
<glyph name="Omega" format="2">
	<unicode hex="03A9"/>
	<advance width="788"/>
	<outline>
		<contour>
			<point x="41" y="0" type="line"/>
			<point x="358" y="0" type="line"/>
			<point x="369" y="223" type="line"/>
			<point x="317" y="241"/>
			<point x="284" y="312"/>
			<point x="284" y="401" type="curve" smooth="yes"/>
			<point x="284" y="546"/>
			<point x="329" y="610"/>
			<point x="406" y="610" type="curve" smooth="yes"/>
			<point x="474" y="610"/>
			<point x="507" y="556"/>
			<point x="507" y="445" type="curve" smooth="yes"/>
			<point x="507" y="330"/>
			<point x="469" y="243"/>
			<point x="411" y="223" type="curve"/>
			<point x="400" y="0" type="line"/>
			<point x="740" y="0" type="line"/>
			<point x="767" y="224" type="line"/>
			<point x="694" y="224" type="line"/>
			<point x="688" y="203" type="line" smooth="yes"/>
			<point x="668" y="133"/>
			<point x="639" y="105"/>
			<point x="578" y="105" type="curve" smooth="yes"/>
			<point x="525" y="105" type="line"/>
			<point x="527" y="155" type="line"/>
			<point x="644" y="194"/>
			<point x="739" y="294"/>
			<point x="739" y="441" type="curve" smooth="yes"/>
			<point x="739" y="597"/>
			<point x="625" y="714"/>
			<point x="417" y="714" type="curve" smooth="yes"/>
			<point x="208" y="714"/>
			<point x="55" y="600"/>
			<point x="55" y="420" type="curve" smooth="yes"/>
			<point x="55" y="289"/>
			<point x="137" y="183"/>
			<point x="253" y="155" type="curve"/>
			<point x="251" y="105" type="line"/>
			<point x="191" y="105" type="line" smooth="yes"/>
			<point x="125" y="105"/>
			<point x="107" y="144"/>
			<point x="96" y="207" type="curve" smooth="yes"/>
			<point x="93" y="224" type="line"/>
			<point x="19" y="224" type="line"/>
		</contour>
	</outline>
	<anchor name="bottom" x="377" y="-45"/>
	<anchor name="side" x="806" y="217"/>
	<anchor name="topleft" x="40" y="700"/>
</glyph>
<glyph name="delta" format="2">
	<unicode hex="03B4"/>
	<advance width="648"/>
	<outline>
		<contour>
			<point x="293" y="-17" type="curve" smooth="yes"/>
			<point x="494" y="-17"/>
			<point x="606" y="129"/>
			<point x="606" y="260" type="curve" smooth="yes"/>
			<point x="606" y="386"/>
			<point x="541" y="472"/>
			<point x="431" y="558" type="curve" smooth="yes"/>
			<point x="358" y="615"/>
			<point x="340" y="634"/>
			<point x="340" y="660" type="curve" smooth="yes"/>
			<point x="340" y="694"/>
			<point x="378" y="707"/>
			<point x="410" y="707" type="curve" smooth="yes"/>
			<point x="456" y="707"/>
			<point x="479" y="689"/>
			<point x="479" y="670" type="curve" smooth="yes"/>
			<point x="479" y="654"/>
			<point x="473" y="636"/>
			<point x="460" y="603" type="curve"/>
			<point x="477" y="585"/>
			<point x="507" y="572"/>
			<point x="541" y="572" type="curve" smooth="yes"/>
			<point x="613" y="572"/>
			<point x="633" y="621"/>
			<point x="633" y="660" type="curve" smooth="yes"/>
			<point x="633" y="726"/>
			<point x="557" y="781"/>
			<point x="405" y="781" type="curve" smooth="yes"/>
			<point x="210" y="781"/>
			<point x="121" y="715"/>
			<point x="121" y="622" type="curve" smooth="yes"/>
			<point x="121" y="555"/>
			<point x="165" y="508"/>
			<point x="224" y="467" type="curve"/>
			<point x="104" y="424"/>
			<point x="21" y="346"/>
			<point x="21" y="208" type="curve" smooth="yes"/>
			<point x="21" y="89"/>
			<point x="101" y="-17"/>
		</contour>
		<contour>
			<point x="296" y="74" type="curve" smooth="yes"/>
			<point x="258" y="74"/>
			<point x="240" y="120"/>
			<point x="240" y="191" type="curve" smooth="yes"/>
			<point x="240" y="315"/>
			<point x="287" y="368"/>
			<point x="315" y="384" type="curve"/>
			<point x="347" y="343"/>
			<point x="367" y="300"/>
			<point x="367" y="221" type="curve" smooth="yes"/>
			<point x="367" y="141"/>
			<point x="344" y="74"/>
		</contour>
	</outline>
</glyph>
<glyph name="kappa" format="2">
	<unicode hex="03BA"/>
	<advance width="704"/>
	<outline>
		<contour>
			<point x="477" y="-14" type="curve" smooth="yes"/>
			<point x="551" y="-14"/>
			<point x="602" y="15"/>
			<point x="634" y="34" type="curve"/>
			<point x="616" y="112" type="line"/>
			<point x="594" y="104"/>
			<point x="587" y="103"/>
			<point x="577" y="103" type="curve" smooth="yes"/>
			<point x="490" y="103"/>
			<point x="456" y="153"/>
			<point x="464" y="224" type="curve" smooth="yes"/>
			<point x="467" y="251"/>
			<point x="469" y="264"/>
			<point x="481" y="292" type="curve"/>
			<point x="500" y="312"/>
			<point x="581" y="349"/>
			<point x="681" y="346" type="curve"/>
			<point x="688" y="365" type="line"/>
			<point x="633" y="525" type="line"/>
			<point x="462" y="528"/>
			<point x="389" y="441"/>
			<point x="292" y="281" type="curve"/>
			<point x="289" y="281" type="line"/>
			<point x="307" y="342"/>
			<point x="325" y="404"/>
			<point x="328" y="429" type="curve" smooth="yes"/>
			<point x="336" y="497"/>
			<point x="295" y="531"/>
			<point x="215" y="531" type="curve" smooth="yes"/>
			<point x="141" y="531"/>
			<point x="73" y="505"/>
			<point x="39" y="486" type="curve"/>
			<point x="60" y="409" type="line"/>
			<point x="75" y="416"/>
			<point x="85" y="418"/>
			<point x="93" y="418" type="curve" smooth="yes"/>
			<point x="114" y="418"/>
			<point x="125" y="409"/>
			<point x="120" y="366" type="curve" smooth="yes"/>
			<point x="117" y="342"/>
			<point x="99" y="237"/>
			<point x="50" y="0" type="curve"/>
			<point x="225" y="0" type="line"/>
			<point x="293" y="143"/>
			<point x="337" y="194"/>
			<point x="394" y="261" type="curve"/>
			<point x="366" y="210"/>
			<point x="351" y="179"/>
			<point x="348" y="137" type="curve" smooth="yes"/>
			<point x="341" y="34"/>
			<point x="384" y="-14"/>
		</contour>
	</outline>
</glyph>
<glyph name="mu" format="2">
	<unicode hex="03BC"/>
	<advance width="668"/>
	<outline>
		<contour>
			<point x="43" y="-230" type="line"/>
			<point x="257" y="-208" type="line"/>
			<point x="246" y="-164"/>
			<point x="235" y="-43"/>
			<point x="235" y="21" type="curve"/>
			<point x="236" y="21" type="line"/>
			<point x="250" y="8"/>
			<point x="275" y="-14"/>
			<point x="315" y="-14" type="curve" smooth="yes"/>
			<point x="373" y="-14"/>
			<point x="391" y="36"/>
			<point x="391" y="104" type="curve"/>
			<point x="392" y="104" type="line"/>
			<point x="396" y="33"/>
			<point x="439" y="-14"/>
			<point x="523" y="-14" type="curve" smooth="yes"/>
			<point x="561" y="-14"/>
			<point x="621" y="7"/>
			<point x="660" y="31" type="curve"/>
			<point x="639" y="109" type="line"/>
			<point x="626" y="104"/>
			<point x="610" y="99"/>
			<point x="595" y="99" type="curve" smooth="yes"/>
			<point x="557" y="99"/>
			<point x="545" y="135"/>
			<point x="545" y="173" type="curve" smooth="yes"/>
			<point x="545" y="236"/>
			<point x="568" y="398"/>
			<point x="584" y="505" type="curve"/>
			<point x="561" y="525" type="line"/>
			<point x="377" y="508" type="line"/>
			<point x="355" y="243" type="line" smooth="yes"/>
			<point x="346" y="131"/>
			<point x="335" y="107"/>
			<point x="302" y="107" type="curve" smooth="yes"/>
			<point x="281" y="107"/>
			<point x="255" y="121"/>
			<point x="238" y="133" type="curve"/>
			<point x="238" y="207"/>
			<point x="248" y="282"/>
			<point x="279" y="505" type="curve"/>
			<point x="256" y="525" type="line"/>
			<point x="60" y="508" type="line"/>
			<point x="41" y="308"/>
			<point x="28" y="89"/>
			<point x="28" y="-14" type="curve" smooth="yes"/>
			<point x="28" y="-112"/>
			<point x="28" y="-176"/>
			<point x="32" y="-225" type="curve"/>
		</contour>
	</outline>
</glyph>
<glyph name="xi" format="2">
	<unicode hex="03BE"/>
	<advance width="565"/>
	<outline>
		<contour>
			<point x="331" y="-238" type="line"/>
			<point x="411" y="-176"/>
			<point x="488" y="-115"/>
			<point x="488" y="-14" type="curve" smooth="yes"/>
			<point x="488" y="54"/>
			<point x="456" y="102"/>
			<point x="332" y="160" type="curve" smooth="yes"/>
			<point x="229" y="208"/>
			<point x="218" y="228"/>
			<point x="218" y="258" type="curve" smooth="yes"/>
			<point x="218" y="309"/>
			<point x="267" y="327"/>
			<point x="308" y="332" type="curve"/>
			<point x="336" y="298"/>
			<point x="381" y="283"/>
			<point x="419" y="283" type="curve" smooth="yes"/>
			<point x="472" y="283"/>
			<point x="497" y="318"/>
			<point x="497" y="360" type="curve" smooth="yes"/>
			<point x="497" y="416"/>
			<point x="461" y="437"/>
			<point x="419" y="437" type="curve" smooth="yes"/>
			<point x="374" y="437"/>
			<point x="340" y="419"/>
			<point x="310" y="388" type="curve"/>
			<point x="254" y="406"/>
			<point x="240" y="434"/>
			<point x="240" y="458" type="curve" smooth="yes"/>
			<point x="240" y="524"/>
			<point x="342" y="556"/>
			<point x="468" y="576" type="curve" smooth="yes"/>
			<point x="548" y="584"/>
			<point x="559" y="626"/>
			<point x="559" y="651" type="curve" smooth="yes"/>
			<point x="559" y="694"/>
			<point x="528" y="728"/>
			<point x="474" y="728" type="curve" smooth="yes"/>
			<point x="393" y="728"/>
			<point x="283" y="681"/>
			<point x="229" y="647" type="curve"/>
			<point x="205" y="667"/>
			<point x="189" y="688"/>
			<point x="189" y="728" type="curve" smooth="yes"/>
			<point x="189" y="748"/>
			<point x="198" y="778"/>
			<point x="202" y="782" type="curve"/>
			<point x="179" y="794"/>
			<point x="150" y="801"/>
			<point x="122" y="801" type="curve" smooth="yes"/>
			<point x="57" y="801"/>
			<point x="19" y="758"/>
			<point x="19" y="703" type="curve" smooth="yes"/>
			<point x="19" y="637"/>
			<point x="74" y="599"/>
			<point x="156" y="586" type="curve"/>
			<point x="125" y="566"/>
			<point x="87" y="522"/>
			<point x="87" y="458" type="curve" smooth="yes"/>
			<point x="87" y="413"/>
			<point x="110" y="376"/>
			<point x="168" y="350" type="curve"/>
			<point x="168" y="348" type="line"/>
			<point x="103" y="326"/>
			<point x="31" y="264"/>
			<point x="31" y="170" type="curve" smooth="yes"/>
			<point x="31" y="70"/>
			<point x="117" y="32"/>
			<point x="235" y="-26" type="curve" smooth="yes"/>
			<point x="317" y="-66"/>
			<point x="331" y="-76"/>
			<point x="331" y="-109" type="curve" smooth="yes"/>
			<point x="331" y="-136"/>
			<point x="312" y="-155"/>
			<point x="283" y="-192" type="curve"/>
		</contour>
	</outline>
</glyph>
<glyph name="omicron" format="2">
	<unicode hex="03BF"/>
	<advance width="625"/>
	<outline>
		<contour>
			<point x="292" y="-17" type="curve" smooth="yes"/>
			<point x="516" y="-17"/>
			<point x="592" y="131"/>
			<point x="592" y="284" type="curve" smooth="yes"/>
			<point x="592" y="440"/>
			<point x="504" y="534"/>
			<point x="336" y="534" type="curve" smooth="yes"/>
			<point x="116" y="534"/>
			<point x="32" y="397"/>
			<point x="32" y="235" type="curve" smooth="yes"/>
			<point x="32" y="87"/>
			<point x="116" y="-17"/>
		</contour>
		<contour>
			<point x="305" y="77" type="curve" smooth="yes"/>
			<point x="264" y="77"/>
			<point x="254" y="129"/>
			<point x="254" y="211" type="curve" smooth="yes"/>
			<point x="254" y="396"/>
			<point x="281" y="437"/>
			<point x="321" y="437" type="curve" smooth="yes"/>
			<point x="364" y="437"/>
			<point x="372" y="384"/>
			<point x="372" y="311" type="curve" smooth="yes"/>
			<point x="372" y="176"/>
			<point x="369" y="77"/>
		</contour>
	</outline>
	<anchor name="top" x="331" y="550"/>
</glyph>
<glyph name="sigma" format="2">
	<unicode hex="03C3"/>
	<advance width="751"/>
	<outline>
		<contour>
			<point x="312" y="-14" type="curve" smooth="yes"/>
			<point x="523" y="-14"/>
			<point x="599" y="133"/>
			<point x="602" y="226" type="curve" smooth="yes"/>
			<point x="604" y="289"/>
			<point x="585" y="339"/>
			<point x="541" y="387" type="curve"/>
			<point x="542" y="389" type="line"/>
			<point x="569" y="371"/>
			<point x="608" y="349"/>
			<point x="638" y="349" type="curve" smooth="yes"/>
			<point x="719" y="349"/>
			<point x="732" y="414"/>
			<point x="732" y="441" type="curve" smooth="yes"/>
			<point x="732" y="472"/>
			<point x="716" y="516"/>
			<point x="690" y="533" type="curve"/>
			<point x="534" y="491" type="line"/>
			<point x="506" y="499"/>
			<point x="399" y="517"/>
			<point x="335" y="517" type="curve" smooth="yes"/>
			<point x="124" y="517"/>
			<point x="38" y="382"/>
			<point x="33" y="247" type="curve" smooth="yes"/>
			<point x="28" y="100"/>
			<point x="109" y="-14"/>
		</contour>
		<contour>
			<point x="314" y="77" type="curve" smooth="yes"/>
			<point x="272" y="77"/>
			<point x="245" y="127"/>
			<point x="250" y="243" type="curve" smooth="yes"/>
			<point x="254" y="345"/>
			<point x="285" y="402"/>
			<point x="342" y="402" type="curve" smooth="yes"/>
			<point x="351" y="402"/>
			<point x="359" y="401"/>
			<point x="372" y="398" type="curve"/>
			<point x="383" y="378"/>
			<point x="396" y="340"/>
			<point x="393" y="246" type="curve" smooth="yes"/>
			<point x="389" y="120"/>
			<point x="355" y="77"/>
		</contour>
	</outline>
</glyph>
<glyph name="upsilon" format="2">
	<unicode hex="03C5"/>
	<advance width="596"/>
	<outline>
		<contour>
			<point x="237" y="-14" type="curve" smooth="yes"/>
			<point x="474" y="-14"/>
			<point x="556" y="235"/>
			<point x="556" y="373" type="curve" smooth="yes"/>
			<point x="556" y="493"/>
			<point x="507" y="531"/>
			<point x="442" y="531" type="curve" smooth="yes"/>
			<point x="376" y="531"/>
			<point x="349" y="480"/>
			<point x="360" y="416" type="curve"/>
			<point x="399" y="402" type="line" smooth="yes"/>
			<point x="446" y="385"/>
			<point x="461" y="379"/>
			<point x="461" y="323" type="curve" smooth="yes"/>
			<point x="461" y="184"/>
			<point x="381" y="77"/>
			<point x="303" y="77" type="curve" smooth="yes"/>
			<point x="271" y="77"/>
			<point x="249" y="93"/>
			<point x="249" y="139" type="curve" smooth="yes"/>
			<point x="249" y="192"/>
			<point x="293" y="382"/>
			<point x="293" y="433" type="curve" smooth="yes"/>
			<point x="293" y="477"/>
			<point x="270" y="531"/>
			<point x="173" y="531" type="curve" smooth="yes"/>
			<point x="116" y="531"/>
			<point x="40" y="507"/>
			<point x="-2" y="486" type="curve"/>
			<point x="19" y="409" type="line"/>
			<point x="31" y="413"/>
			<point x="47" y="417"/>
			<point x="57" y="417" type="curve" smooth="yes"/>
			<point x="72" y="417"/>
			<point x="83" y="408"/>
			<point x="83" y="392" type="curve" smooth="yes"/>
			<point x="83" y="351"/>
			<point x="48" y="193"/>
			<point x="48" y="137" type="curve" smooth="yes"/>
			<point x="48" y="58"/>
			<point x="91" y="-14"/>
		</contour>
	</outline>
	<anchor name="top" x="324" y="550"/>
</glyph>
<glyph name="phi" format="2">
	<unicode hex="03C6"/>
	<advance width="845"/>
	<outline>
		<contour>
			<point x="276" y="-230" type="line"/>
			<point x="415" y="-213" type="line"/>
			<point x="452" y="-17" type="line"/>
			<point x="663" y="-10"/>
			<point x="813" y="130"/>
			<point x="813" y="330" type="curve" smooth="yes"/>
			<point x="813" y="452"/>
			<point x="752" y="534"/>
			<point x="563" y="534" type="curve" smooth="yes"/>
			<point x="447" y="534"/>
			<point x="356" y="483"/>
			<point x="335" y="345" type="curve" smooth="yes"/>
			<point x="295" y="76" type="line"/>
			<point x="260" y="88"/>
			<point x="232" y="131"/>
			<point x="232" y="204" type="curve" smooth="yes"/>
			<point x="232" y="336"/>
			<point x="292" y="451"/>
			<point x="343" y="484" type="curve"/>
			<point x="309" y="538" type="line"/>
			<point x="161" y="503"/>
			<point x="32" y="393"/>
			<point x="32" y="223" type="curve" smooth="yes"/>
			<point x="32" y="94"/>
			<point x="117" y="6"/>
			<point x="282" y="-16" type="curve"/>
			<point x="252" y="-210" type="line"/>
		</contour>
		<contour>
			<point x="469" y="76" type="curve"/>
			<point x="528" y="391" type="line" smooth="yes"/>
			<point x="536" y="433"/>
			<point x="550" y="451"/>
			<point x="573" y="451" type="curve" smooth="yes"/>
			<point x="599" y="451"/>
			<point x="611" y="424"/>
			<point x="611" y="385" type="curve" smooth="yes"/>
			<point x="611" y="225"/>
			<point x="550" y="99"/>
		</contour>
	</outline>
</glyph>
<glyph name="kaiSymbol" format="2">
	<unicode hex="03D7"/>
	<advance width="736"/>
	<outline>
		<contour>
			<point x="397" y="-229" type="curve" smooth="yes"/>
			<point x="611" y="-229"/>
			<point x="706" y="-140"/>
			<point x="706" y="-14" type="curve" smooth="yes"/>
			<point x="706" y="39"/>
			<point x="693" y="77"/>
			<point x="594" y="186" type="curve" smooth="yes"/>
			<point x="541" y="244"/>
			<point x="534" y="256"/>
			<point x="534" y="280" type="curve" smooth="yes"/>
			<point x="534" y="286"/>
			<point x="537" y="310"/>
			<point x="552" y="334" type="curve"/>
			<point x="591" y="343"/>
			<point x="633" y="347"/>
			<point x="681" y="346" type="curve"/>
			<point x="688" y="365" type="line"/>
			<point x="633" y="525" type="line"/>
			<point x="462" y="528"/>
			<point x="389" y="441"/>
			<point x="292" y="281" type="curve"/>
			<point x="289" y="281" type="line"/>
			<point x="307" y="342"/>
			<point x="325" y="404"/>
			<point x="328" y="429" type="curve" smooth="yes"/>
			<point x="336" y="497"/>
			<point x="295" y="531"/>
			<point x="215" y="531" type="curve" smooth="yes"/>
			<point x="141" y="531"/>
			<point x="73" y="505"/>
			<point x="39" y="486" type="curve"/>
			<point x="60" y="409" type="line"/>
			<point x="75" y="416"/>
			<point x="85" y="418"/>
			<point x="93" y="418" type="curve" smooth="yes"/>
			<point x="114" y="418"/>
			<point x="125" y="409"/>
			<point x="120" y="366" type="curve" smooth="yes"/>
			<point x="117" y="342"/>
			<point x="99" y="237"/>
			<point x="50" y="0" type="curve"/>
			<point x="225" y="0" type="line"/>
			<point x="279" y="114"/>
			<point x="335" y="204"/>
			<point x="409" y="263" type="curve"/>
			<point x="393" y="228"/>
			<point x="385" y="197"/>
			<point x="385" y="162" type="curve" smooth="yes"/>
			<point x="385" y="129"/>
			<point x="393" y="98"/>
			<point x="431" y="54" type="curve" smooth="yes"/>
			<point x="463" y="17"/>
			<point x="488" y="-10"/>
			<point x="488" y="-39" type="curve" smooth="yes"/>
			<point x="488" y="-105"/>
			<point x="455" y="-115"/>
			<point x="281" y="-115" type="curve"/>
			<point x="270" y="-209" type="line"/>
			<point x="286" y="-220"/>
			<point x="365" y="-229"/>
		</contour>
	</outline>
</glyph>
<glyph name="KoppaArchaic" format="2">
	<unicode hex="03D8"/>
	<advance width="809"/>
	<outline>
		<contour>
			<point x="303" y="-220" type="line"/>
			<point x="456" y="-208" type="line"/>
			<point x="456" y="-133"/>
			<point x="456" y="-40"/>
			<point x="457" y="-11" type="curve"/>
			<point x="666" y="20"/>
			<point x="775" y="174"/>
			<point x="775" y="396" type="curve" smooth="yes"/>
			<point x="775" y="592"/>
			<point x="670" y="717"/>
			<point x="436" y="717" type="curve" smooth="yes"/>
			<point x="180" y="717"/>
			<point x="44" y="562"/>
			<point x="44" y="316" type="curve" smooth="yes"/>
			<point x="44" y="136"/>
			<point x="129" y="13"/>
			<point x="307" y="-11" type="curve"/>
			<point x="302" y="-87"/>
			<point x="292" y="-155"/>
			<point x="285" y="-209" type="curve"/>
		</contour>
		<contour>
			<point x="466" y="118" type="curve"/>
			<point x="475" y="187"/>
			<point x="482" y="231"/>
			<point x="486" y="255" type="curve"/>
			<point x="468" y="266" type="line"/>
			<point x="315" y="254" type="line"/>
			<point x="315" y="246"/>
			<point x="316" y="189"/>
			<point x="316" y="133" type="curve"/>
			<point x="279" y="180"/>
			<point x="280" y="253"/>
			<point x="280" y="349" type="curve" smooth="yes"/>
			<point x="285" y="511"/>
			<point x="330" y="610"/>
			<point x="420" y="610" type="curve" smooth="yes"/>
			<point x="511" y="610"/>
			<point x="536" y="533"/>
			<point x="536" y="408" type="curve" smooth="yes"/>
			<point x="536" y="286"/>
			<point x="525" y="161"/>
		</contour>
	</outline>
</glyph>
<glyph name="Koppa" format="2">
	<unicode hex="03DE"/>
	<advance width="572"/>
	<outline>
		<contour>
			<point x="312" y="-106" type="curve" smooth="yes"/>
			<point x="374" y="-106"/>
			<point x="426" y="-79"/>
			<point x="453" y="-57" type="curve"/>
			<point x="441" y="21" type="line"/>
			<point x="434" y="18"/>
			<point x="421" y="15"/>
			<point x="411" y="15" type="curve" smooth="yes"/>
			<point x="386" y="15"/>
			<point x="369" y="25"/>
			<point x="369" y="50" type="curve" smooth="yes"/>
			<point x="369" y="88"/>
			<point x="393" y="126"/>
			<point x="436" y="177" type="curve" smooth="yes"/>
			<point x="549" y="310" type="line"/>
			<point x="495" y="407" type="line"/>
			<point x="271" y="289" type="line"/>
			<point x="407" y="410"/>
			<point x="411" y="448"/>
			<point x="411" y="491" type="curve" smooth="yes"/>
			<point x="411" y="554"/>
			<point x="365" y="600"/>
			<point x="273" y="600" type="curve" smooth="yes"/>
			<point x="211" y="600"/>
			<point x="159" y="573"/>
			<point x="132" y="551" type="curve"/>
			<point x="144" y="473" type="line"/>
			<point x="151" y="476"/>
			<point x="164" y="479"/>
			<point x="174" y="479" type="curve" smooth="yes"/>
			<point x="199" y="479"/>
			<point x="216" y="469"/>
			<point x="216" y="444" type="curve" smooth="yes"/>
			<point x="216" y="406"/>
			<point x="192" y="368"/>
			<point x="149" y="317" type="curve" smooth="yes"/>
			<point x="36" y="184" type="line"/>
			<point x="89" y="88" type="line"/>
			<point x="314" y="205" type="line"/>
			<point x="187" y="92"/>
			<point x="173" y="51"/>
			<point x="173" y="4" type="curve" smooth="yes"/>
			<point x="173" y="-50"/>
			<point x="212" y="-106"/>
		</contour>
	</outline>
</glyph>
<glyph name="Sampi" format="2">
	<unicode hex="03E0"/>
	<advance width="842"/>
	<outline>
		<contour>
			<point x="283" y="-229" type="line"/>
			<point x="350" y="-185" type="line"/>
			<point x="347" y="-167" type="line" smooth="yes"/>
			<point x="342" y="-144"/>
			<point x="346" y="-138"/>
			<point x="374" y="-119" type="curve" smooth="yes"/>
			<point x="623" y="49" type="line"/>
			<point x="623" y="28"/>
			<point x="623" y="6"/>
			<point x="621" y="-17" type="curve" smooth="yes"/>
			<point x="620" y="-49"/>
			<point x="614" y="-129"/>
			<point x="608" y="-170" type="curve"/>
			<point x="775" y="-172" type="line"/>
			<point x="784" y="-118"/>
			<point x="792" y="-6"/>
			<point x="792" y="54" type="curve" smooth="yes"/>
			<point x="792" y="441"/>
			<point x="586" y="562"/>
			<point x="189" y="562" type="curve"/>
			<point x="178" y="410" type="line"/>
			<point x="262" y="409"/>
			<point x="331" y="400"/>
			<point x="388" y="385" type="curve"/>
			<point x="155" y="227" type="line" smooth="yes"/>
			<point x="131" y="210"/>
			<point x="120" y="207"/>
			<point x="101" y="221" type="curve" smooth="yes"/>
			<point x="87" y="230" type="line"/>
			<point x="22" y="185" type="line"/>
			<point x="146" y="-9" type="line"/>
			<point x="212" y="35" type="line"/>
			<point x="209" y="53" type="line" smooth="yes"/>
			<point x="204" y="77"/>
			<point x="208" y="82"/>
			<point x="237" y="101" type="curve" smooth="yes"/>
			<point x="537" y="304" type="line"/>
			<point x="563" y="278"/>
			<point x="582" y="247"/>
			<point x="595" y="212" type="curve"/>
			<point x="293" y="7" type="line" smooth="yes"/>
			<point x="269" y="-10"/>
			<point x="259" y="-13"/>
			<point x="238" y="1" type="curve" smooth="yes"/>
			<point x="225" y="10" type="line"/>
			<point x="159" y="-35" type="line"/>
		</contour>
	</outline>
</glyph>
<glyph name="sampi" format="2">
	<unicode hex="03E1"/>
	<advance width="600"/>
	<outline>
		<contour>
			<point x="515" y="-255" type="line"/>
			<point x="585" y="-127"/>
			<point x="620" y="-12"/>
			<point x="620" y="123" type="curve" smooth="yes"/>
			<point x="620" y="373"/>
			<point x="471" y="557"/>
			<point x="150" y="573" type="curve"/>
			<point x="120" y="478" type="line"/>
			<point x="230" y="453"/>
			<point x="311" y="412"/>
			<point x="366" y="357" type="curve"/>
			<point x="201" y="298" type="line" smooth="yes"/>
			<point x="152" y="281"/>
			<point x="135" y="270"/>
			<point x="117" y="300" type="curve" smooth="yes"/>
			<point x="112" y="309" type="line"/>
			<point x="43" y="285" type="line"/>
			<point x="102" y="115" type="line"/>
			<point x="171" y="140" type="line"/>
			<point x="170" y="151" type="line"/>
			<point x="164" y="181"/>
			<point x="183" y="186"/>
			<point x="235" y="205" type="curve" smooth="yes"/>
			<point x="427" y="271" type="line"/>
			<point x="445" y="232"/>
			<point x="455" y="190"/>
			<point x="458" y="144" type="curve"/>
			<point x="277" y="79" type="line" smooth="yes"/>
			<point x="228" y="62"/>
			<point x="211" y="51"/>
			<point x="193" y="81" type="curve"/>
			<point x="187" y="90" type="line"/>
			<point x="118" y="66" type="line"/>
			<point x="177" y="-104" type="line"/>
			<point x="247" y="-79" type="line"/>
			<point x="245" y="-68" type="line" smooth="yes"/>
			<point x="238" y="-35"/>
			<point x="256" y="-33"/>
			<point x="311" y="-14" type="curve" smooth="yes"/>
			<point x="454" y="36" type="line"/>
			<point x="443" y="-43"/>
			<point x="417" y="-130"/>
			<point x="377" y="-225" type="curve"/>
		</contour>
	</outline>
</glyph>
<glyph name="Lje-cy" format="2">
	<unicode hex="0409"/>
	<advance width="1059"/>
	<outline>
		<contour>
			<point x="495" y="591" type="line"/>
			<point x="472" y="105" type="line"/>
			<point x="386" y="91" type="line"/>
			<point x="379" y="0" type="line"/>
			<point x="762" y="0" type="line" smooth="yes"/>
			<point x="946" y="0"/>
			<point x="1058" y="91"/>
			<point x="1058" y="239" type="curve" smooth="yes"/>
			<point x="1058" y="363"/>
			<point x="961" y="430"/>
			<point x="825" y="430" type="curve" smooth="yes"/>
			<point x="794" y="430"/>
			<point x="769" y="428"/>
			<point x="741" y="424" type="curve"/>
			<point x="739" y="328" type="line"/>
			<point x="746" y="329"/>
			<point x="756" y="329"/>
			<point x="768" y="329" type="curve" smooth="yes"/>
			<point x="810" y="329"/>
			<point x="836" y="297"/>
			<point x="836" y="233" type="curve" smooth="yes"/>
			<point x="836" y="157"/>
			<point x="800" y="104"/>
			<point x="730" y="104" type="curve" smooth="yes"/>
			<point x="703" y="104" type="line"/>
			<point x="727" y="595" type="line"/>
			<point x="808" y="609" type="line"/>
			<point x="813" y="700" type="line"/>
			<point x="189" y="700" type="line"/>
			<point x="184" y="614" type="line"/>
			<point x="268" y="597" type="line"/>
			<point x="252" y="360"/>
			<point x="230" y="232"/>
			<point x="172" y="127" type="curve"/>
			<point x="112" y="212" type="line"/>
			<point x="53" y="212"/>
			<point x="-3" y="171"/>
			<point x="-3" y="101" type="curve" smooth="yes"/>
			<point x="-3" y="29"/>
			<point x="52" y="-15"/>
			<point x="125" y="-15" type="curve" smooth="yes"/>
			<point x="306" y="-15"/>
			<point x="349" y="310"/>
			<point x="373" y="591" type="curve"/>
		</contour>
	</outline>
</glyph>
<glyph name="De-cy" format="2">
	<unicode hex="0414"/>
	<advance width="776"/>
	<outline>
		<contour>
			<point x="-3" y="-156" type="line"/>
			<point x="113" y="-156" type="line"/>
			<point x="128" y="-50"/>
			<point x="143" y="0"/>
			<point x="209" y="0" type="curve" smooth="yes"/>
			<point x="549" y="0" type="line" smooth="yes"/>
			<point x="596" y="0"/>
			<point x="620" y="-38"/>
			<point x="631" y="-148" type="curve"/>
			<point x="741" y="-152" type="line"/>
			<point x="768" y="109" type="line"/>
			<point x="643" y="109" type="line"/>
			<point x="667" y="595" type="line"/>
			<point x="747" y="609" type="line"/>
			<point x="752" y="700" type="line"/>
			<point x="125" y="700" type="line"/>
			<point x="120" y="614" type="line"/>
			<point x="201" y="597" type="line"/>
			<point x="191" y="362"/>
			<point x="154" y="180"/>
			<point x="110" y="109" type="curve"/>
			<point x="11" y="109" type="line"/>
		</contour>
		<contour>
			<point x="223" y="109" type="line"/>
			<point x="269" y="213"/>
			<point x="294" y="388"/>
			<point x="306" y="591" type="curve"/>
			<point x="436" y="591" type="line"/>
			<point x="412" y="109" type="line"/>
		</contour>
	</outline>
</glyph>
<glyph name="Zhe-cy" format="2">
	<unicode hex="0416"/>
	<advance width="1201"/>
	<outline>
		<contour>
			<point x="496" y="310" type="curve"/>
			<point x="486" y="105" type="line"/>
			<point x="402" y="95" type="line"/>
			<point x="398" y="0" type="line"/>
			<point x="811" y="0" type="line"/>
			<point x="815" y="95" type="line"/>
			<point x="717" y="108" type="line"/>
			<point x="727" y="310" type="line"/>
			<point x="742" y="310"/>
			<point x="766" y="310"/>
			<point x="780" y="300" type="curve" smooth="yes"/>
			<point x="795" y="289"/>
			<point x="805" y="267"/>
			<point x="816" y="227" type="curve" smooth="yes"/>
			<point x="830" y="178"/>
			<point x="837" y="154"/>
			<point x="842" y="138" type="curve" smooth="yes"/>
			<point x="878" y="24"/>
			<point x="920" y="-14"/>
			<point x="1022" y="-14" type="curve" smooth="yes"/>
			<point x="1087" y="-14"/>
			<point x="1148" y="13"/>
			<point x="1190" y="40" type="curve"/>
			<point x="1168" y="130" type="line"/>
			<point x="1156" y="125"/>
			<point x="1140" y="120"/>
			<point x="1122" y="120" type="curve" smooth="yes"/>
			<point x="1097" y="120"/>
			<point x="1083" y="133"/>
			<point x="1068" y="171" type="curve" smooth="yes"/>
			<point x="1054" y="206"/>
			<point x="1045" y="227"/>
			<point x="1035" y="249" type="curve" smooth="yes"/>
			<point x="1009" y="307"/>
			<point x="965" y="349"/>
			<point x="851" y="358" type="curve"/>
			<point x="851" y="362" type="line"/>
			<point x="894" y="372"/>
			<point x="915" y="416"/>
			<point x="949" y="478" type="curve" smooth="yes"/>
			<point x="993" y="559"/>
			<point x="996" y="569"/>
			<point x="1007" y="569" type="curve" smooth="yes"/>
			<point x="1014" y="569"/>
			<point x="1019" y="563"/>
			<point x="1026" y="554" type="curve" smooth="yes"/>
			<point x="1075" y="495" type="line"/>
			<point x="1124" y="517"/>
			<point x="1161" y="558"/>
			<point x="1161" y="610" type="curve" smooth="yes"/>
			<point x="1161" y="673"/>
			<point x="1117" y="711"/>
			<point x="1050" y="711" type="curve" smooth="yes"/>
			<point x="955" y="711"/>
			<point x="914" y="639"/>
			<point x="880" y="562" type="curve" smooth="yes"/>
			<point x="840" y="472"/>
			<point x="817" y="423"/>
			<point x="787" y="402" type="curve" smooth="yes"/>
			<point x="775" y="394"/>
			<point x="747" y="390"/>
			<point x="730" y="390" type="curve"/>
			<point x="740" y="597" type="line"/>
			<point x="826" y="611" type="line"/>
			<point x="834" y="700" type="line"/>
			<point x="428" y="700" type="line"/>
			<point x="421" y="611" type="line"/>
			<point x="509" y="594" type="line"/>
			<point x="499" y="390" type="line"/>
			<point x="482" y="390"/>
			<point x="455" y="392"/>
			<point x="439" y="402" type="curve" smooth="yes"/>
			<point x="417" y="416"/>
			<point x="394" y="467"/>
			<point x="358" y="562" type="curve" smooth="yes"/>
			<point x="329" y="638"/>
			<point x="296" y="711"/>
			<point x="201" y="711" type="curve" smooth="yes"/>
			<point x="134" y="711"/>
			<point x="81" y="673"/>
			<point x="81" y="604" type="curve" smooth="yes"/>
			<point x="81" y="551"/>
			<point x="110" y="517"/>
			<point x="157" y="495" type="curve"/>
			<point x="208" y="553" type="line" smooth="yes"/>
			<point x="216" y="562"/>
			<point x="224" y="569"/>
			<point x="231" y="569" type="curve" smooth="yes"/>
			<point x="242" y="569"/>
			<point x="245" y="561"/>
			<point x="281" y="478" type="curve" smooth="yes"/>
			<point x="308" y="415"/>
			<point x="326" y="377"/>
			<point x="366" y="362" type="curve"/>
			<point x="366" y="358" type="line"/>
			<point x="251" y="349"/>
			<point x="209" y="307"/>
			<point x="177" y="249" type="curve" smooth="yes"/>
			<point x="165" y="227"/>
			<point x="154" y="206"/>
			<point x="138" y="171" type="curve" smooth="yes"/>
			<point x="120" y="132"/>
			<point x="104" y="120"/>
			<point x="79" y="120" type="curve" smooth="yes"/>
			<point x="61" y="120"/>
			<point x="45" y="125"/>
			<point x="34" y="130" type="curve"/>
			<point x="4" y="40" type="line"/>
			<point x="44" y="13"/>
			<point x="102" y="-14"/>
			<point x="167" y="-14" type="curve" smooth="yes"/>
			<point x="298" y="-14"/>
			<point x="331" y="71"/>
			<point x="392" y="227" type="curve" smooth="yes"/>
			<point x="408" y="268"/>
			<point x="422" y="288"/>
			<point x="439" y="300" type="curve" smooth="yes"/>
			<point x="453" y="310"/>
			<point x="475" y="310"/>
		</contour>
	</outline>
</glyph>
<glyph name="Ii-cy" format="2">
	<unicode hex="0418"/>
	<advance width="849"/>
	<outline>
		<contour>
			<point x="523" y="367" type="line"/>
			<point x="509" y="104" type="line"/>
			<point x="442" y="92" type="line"/>
			<point x="436" y="0" type="line"/>
			<point x="824" y="0" type="line"/>
			<point x="830" y="94" type="line"/>
			<point x="740" y="107" type="line"/>
			<point x="764" y="595" type="line"/>
			<point x="844" y="609" type="line"/>
			<point x="849" y="700" type="line"/>
			<point x="471" y="700" type="line"/>
			<point x="466" y="612" type="line"/>
			<point x="533" y="595" type="line"/>
			<point x="527" y="507" type="line"/>
			<point x="338" y="339" type="line"/>
			<point x="353" y="598" type="line"/>
			<point x="422" y="612" type="line"/>
			<point x="426" y="700" type="line"/>
			<point x="45" y="700" type="line"/>
			<point x="40" y="614" type="line"/>
			<point x="122" y="597" type="line"/>
			<point x="98" y="102" type="line"/>
			<point x="20" y="91" type="line"/>
			<point x="14" y="0" type="line"/>
			<point x="393" y="0" type="line"/>
			<point x="399" y="92" type="line"/>
			<point x="329" y="107" type="line"/>
			<point x="333" y="199" type="line"/>
		</contour>
	</outline>
	<anchor name="top" x="450" y="730"/>
</glyph>
<glyph name="Ka-cy" format="2">
	<unicode hex="041A"/>
	<advance width="832"/>
	<outline>
		<contour>
			<point x="371" y="390" type="curve"/>
			<point x="368" y="310" type="line"/>
			<point x="420" y="310"/>
			<point x="430" y="283"/>
			<point x="447" y="227" type="curve" smooth="yes"/>
			<point x="464" y="172"/>
			<point x="469" y="154"/>
			<point x="473" y="138" type="curve" smooth="yes"/>
			<point x="501" y="25"/>
			<point x="551" y="-14"/>
			<point x="653" y="-14" type="curve" smooth="yes"/>
			<point x="718" y="-14"/>
			<point x="779" y="13"/>
			<point x="821" y="40" type="curve"/>
			<point x="799" y="130" type="line"/>
			<point x="787" y="125"/>
			<point x="771" y="120"/>
			<point x="753" y="120" type="curve" smooth="yes"/>
			<point x="728" y="120"/>
			<point x="714" y="133"/>
			<point x="699" y="171" type="curve" smooth="yes"/>
			<point x="685" y="206"/>
			<point x="676" y="227"/>
			<point x="666" y="249" type="curve" smooth="yes"/>
			<point x="640" y="307"/>
			<point x="596" y="349"/>
			<point x="482" y="358" type="curve"/>
			<point x="482" y="362" type="line"/>
			<point x="525" y="372"/>
			<point x="548" y="415"/>
			<point x="580" y="478" type="curve" smooth="yes"/>
			<point x="621" y="558"/>
			<point x="627" y="569"/>
			<point x="638" y="569" type="curve" smooth="yes"/>
			<point x="645" y="569"/>
			<point x="651" y="563"/>
			<point x="658" y="554" type="curve" smooth="yes"/>
			<point x="706" y="495" type="line"/>
			<point x="755" y="517"/>
			<point x="792" y="558"/>
			<point x="792" y="610" type="curve" smooth="yes"/>
			<point x="792" y="673"/>
			<point x="748" y="711"/>
			<point x="681" y="711" type="curve" smooth="yes"/>
			<point x="586" y="711"/>
			<point x="548" y="638"/>
			<point x="511" y="562" type="curve" smooth="yes"/>
			<point x="449" y="435"/>
			<point x="427" y="390"/>
		</contour>
		<contour>
			<point x="127" y="594" type="line"/>
			<point x="104" y="105" type="line"/>
			<point x="20" y="95" type="line"/>
			<point x="16" y="0" type="line"/>
			<point x="429" y="0" type="line"/>
			<point x="433" y="95" type="line"/>
			<point x="335" y="108" type="line"/>
			<point x="358" y="597" type="line"/>
			<point x="444" y="611" type="line"/>
			<point x="452" y="700" type="line"/>
			<point x="46" y="700" type="line"/>
			<point x="39" y="611" type="line"/>
		</contour>
	</outline>
	<anchor name="top" x="441" y="730"/>
</glyph>
<glyph name="Pe-cy" format="2">
	<unicode hex="041F"/>
	<advance width="849"/>
	<outline>
		<contour>
			<point x="14" y="0" type="line"/>
			<point x="393" y="0" type="line"/>
			<point x="399" y="92" type="line"/>
			<point x="329" y="107" type="line"/>
			<point x="352" y="591" type="line"/>
			<point x="533" y="591" type="line"/>
			<point x="509" y="104" type="line"/>
			<point x="442" y="92" type="line"/>
			<point x="436" y="0" type="line"/>
			<point x="824" y="0" type="line"/>
			<point x="830" y="94" type="line"/>
			<point x="740" y="107" type="line"/>
			<point x="764" y="595" type="line"/>
			<point x="844" y="609" type="line"/>
			<point x="849" y="700" type="line"/>
			<point x="45" y="700" type="line"/>
			<point x="40" y="614" type="line"/>
			<point x="122" y="597" type="line"/>
			<point x="98" y="102" type="line"/>
			<point x="20" y="91" type="line"/>
		</contour>
	</outline>
</glyph>
<glyph name="Ef-cy" format="2">
	<unicode hex="0424"/>
	<advance width="949"/>
	<outline>
		<contour>
			<point x="264" y="-43" type="line"/>
			<point x="677" y="-43" type="line"/>
			<point x="681" y="52" type="line"/>
			<point x="583" y="65" type="line"/>
			<point x="585" y="109" type="line"/>
			<point x="616" y="99"/>
			<point x="649" y="93"/>
			<point x="691" y="93" type="curve" smooth="yes"/>
			<point x="847" y="93"/>
			<point x="929" y="229"/>
			<point x="929" y="355" type="curve" smooth="yes"/>
			<point x="929" y="513"/>
			<point x="833" y="598"/>
			<point x="700" y="598" type="curve" smooth="yes"/>
			<point x="668" y="598"/>
			<point x="638" y="591"/>
			<point x="606" y="579" type="curve"/>
			<point x="608" y="630" type="line"/>
			<point x="694" y="644" type="line"/>
			<point x="702" y="733" type="line"/>
			<point x="296" y="733" type="line"/>
			<point x="289" y="644" type="line"/>
			<point x="377" y="627" type="line"/>
			<point x="375" y="579" type="line"/>
			<point x="342" y="592"/>
			<point x="319" y="598"/>
			<point x="266" y="598" type="curve" smooth="yes"/>
			<point x="111" y="598"/>
			<point x="29" y="462"/>
			<point x="29" y="336" type="curve" smooth="yes"/>
			<point x="29" y="178"/>
			<point x="125" y="93"/>
			<point x="258" y="93" type="curve" smooth="yes"/>
			<point x="296" y="93"/>
			<point x="328" y="99"/>
			<point x="354" y="109" type="curve"/>
			<point x="352" y="62" type="line"/>
			<point x="268" y="52" type="line"/>
		</contour>
		<contour>
			<point x="327" y="192" type="curve" smooth="yes"/>
			<point x="274" y="192"/>
			<point x="247" y="241"/>
			<point x="247" y="330" type="curve" smooth="yes"/>
			<point x="247" y="434"/>
			<point x="286" y="500"/>
			<point x="337" y="500" type="curve" smooth="yes"/>
			<point x="351" y="500"/>
			<point x="361" y="497"/>
			<point x="371" y="490" type="curve"/>
			<point x="358" y="198" type="line"/>
			<point x="351" y="195"/>
			<point x="342" y="192"/>
		</contour>
		<contour>
			<point x="589" y="199" type="curve"/>
			<point x="602" y="489" type="line"/>
			<point x="608" y="493"/>
			<point x="619" y="499"/>
			<point x="636" y="499" type="curve" smooth="yes"/>
			<point x="683" y="499"/>
			<point x="711" y="453"/>
			<point x="711" y="371" type="curve" smooth="yes"/>
			<point x="711" y="258"/>
			<point x="678" y="191"/>
			<point x="621" y="191" type="curve" smooth="yes"/>
			<point x="609" y="191"/>
			<point x="599" y="193"/>
		</contour>
	</outline>
	<guideline x="437" y="330" angle="0"/>
</glyph>
<glyph name="Che-cy" format="2">
	<unicode hex="0427"/>
	<advance width="838"/>
	<outline>
		<contour>
			<point x="506" y="266" type="curve"/>
			<point x="498" y="104" type="line"/>
			<point x="431" y="92" type="line"/>
			<point x="425" y="0" type="line"/>
			<point x="813" y="0" type="line"/>
			<point x="819" y="94" type="line"/>
			<point x="729" y="107" type="line"/>
			<point x="753" y="595" type="line"/>
			<point x="833" y="609" type="line"/>
			<point x="838" y="700" type="line"/>
			<point x="460" y="700" type="line"/>
			<point x="455" y="612" type="line"/>
			<point x="522" y="595" type="line"/>
			<point x="511" y="372" type="line"/>
			<point x="488" y="362"/>
			<point x="464" y="355"/>
			<point x="425" y="355" type="curve" smooth="yes"/>
			<point x="370" y="355"/>
			<point x="332" y="392"/>
			<point x="332" y="461" type="curve" smooth="yes"/>
			<point x="332" y="506"/>
			<point x="335" y="547"/>
			<point x="342" y="598" type="curve"/>
			<point x="411" y="612" type="line"/>
			<point x="415" y="700" type="line"/>
			<point x="34" y="700" type="line"/>
			<point x="29" y="614" type="line"/>
			<point x="111" y="597" type="line"/>
			<point x="107" y="560"/>
			<point x="103" y="523"/>
			<point x="103" y="446" type="curve" smooth="yes"/>
			<point x="103" y="320"/>
			<point x="184" y="236"/>
			<point x="337" y="236" type="curve" smooth="yes"/>
			<point x="398" y="236"/>
			<point x="457" y="244"/>
		</contour>
	</outline>
</glyph>
<glyph name="Sha-cy" format="2">
	<unicode hex="0428"/>
	<advance width="1211"/>
	<outline>
		<contour>
			<point x="14" y="0" type="line"/>
			<point x="1186" y="0" type="line"/>
			<point x="1192" y="94" type="line"/>
			<point x="1102" y="107" type="line"/>
			<point x="1126" y="595" type="line"/>
			<point x="1206" y="609" type="line"/>
			<point x="1211" y="700" type="line"/>
			<point x="836" y="700" type="line"/>
			<point x="831" y="612" type="line"/>
			<point x="895" y="595" type="line"/>
			<point x="871" y="109" type="line"/>
			<point x="716" y="109" type="line"/>
			<point x="739" y="595" type="line"/>
			<point x="806" y="609" type="line"/>
			<point x="811" y="700" type="line"/>
			<point x="449" y="700" type="line"/>
			<point x="444" y="612" type="line"/>
			<point x="508" y="595" type="line"/>
			<point x="484" y="109" type="line"/>
			<point x="329" y="109" type="line"/>
			<point x="353" y="598" type="line"/>
			<point x="419" y="612" type="line"/>
			<point x="423" y="700" type="line"/>
			<point x="45" y="700" type="line"/>
			<point x="40" y="614" type="line"/>
			<point x="122" y="597" type="line"/>
			<point x="98" y="102" type="line"/>
			<point x="20" y="91" type="line"/>
		</contour>
	</outline>
	<guideline x="429" y="547" angle="0"/>
	<guideline x="433" y="629" angle="0"/>
</glyph>
<glyph name="Softsign-cy" format="2">
	<unicode hex="042C"/>
	<advance width="693"/>
	<outline>
		<contour>
			<point x="124" y="596" type="line"/>
			<point x="101" y="105" type="line"/>
			<point x="15" y="91" type="line"/>
			<point x="8" y="0" type="line"/>
			<point x="396" y="0" type="line" smooth="yes"/>
			<point x="590" y="0"/>
			<point x="692" y="91"/>
			<point x="692" y="239" type="curve" smooth="yes"/>
			<point x="692" y="363"/>
			<point x="595" y="430"/>
			<point x="449" y="430" type="curve" smooth="yes"/>
			<point x="418" y="430"/>
			<point x="398" y="428"/>
			<point x="370" y="424" type="curve"/>
			<point x="368" y="328" type="line"/>
			<point x="375" y="329"/>
			<point x="380" y="329"/>
			<point x="392" y="329" type="curve" smooth="yes"/>
			<point x="439" y="329"/>
			<point x="470" y="297"/>
			<point x="470" y="233" type="curve" smooth="yes"/>
			<point x="470" y="157"/>
			<point x="434" y="104"/>
			<point x="364" y="104" type="curve" smooth="yes"/>
			<point x="332" y="104" type="line"/>
			<point x="355" y="595" type="line"/>
			<point x="435" y="609" type="line"/>
			<point x="440" y="700" type="line"/>
			<point x="46" y="700" type="line"/>
			<point x="40" y="613" type="line"/>
		</contour>
	</outline>
</glyph>
<glyph name="Ereversed-cy" format="2">
	<unicode hex="042D"/>
	<advance width="690"/>
	<outline>
		<contour>
			<point x="426" y="408" type="curve"/>
			<point x="174" y="408" type="line"/>
			<point x="168" y="299" type="line"/>
			<point x="425" y="309" type="line"/>
			<point x="415" y="167"/>
			<point x="347" y="89"/>
			<point x="268" y="89" type="curve" smooth="yes"/>
			<point x="202" y="89"/>
			<point x="182" y="132"/>
			<point x="210" y="189" type="curve" smooth="yes"/>
			<point x="228" y="225" type="line"/>
			<point x="202" y="253"/>
			<point x="159" y="268"/>
			<point x="123" y="268" type="curve" smooth="yes"/>
			<point x="73" y="268"/>
			<point x="33" y="226"/>
			<point x="33" y="171" type="curve" smooth="yes"/>
			<point x="33" y="61"/>
			<point x="131" y="-14"/>
			<point x="292" y="-14" type="curve" smooth="yes"/>
			<point x="514" y="-14"/>
			<point x="662" y="128"/>
			<point x="662" y="387" type="curve" smooth="yes"/>
			<point x="662" y="606"/>
			<point x="540" y="715"/>
			<point x="358" y="715" type="curve" smooth="yes"/>
			<point x="194" y="715"/>
			<point x="103" y="640"/>
			<point x="51" y="556" type="curve"/>
			<point x="133" y="491" type="line"/>
			<point x="176" y="552"/>
			<point x="222" y="586"/>
			<point x="284" y="586" type="curve" smooth="yes"/>
			<point x="366" y="586"/>
			<point x="417" y="534"/>
		</contour>
	</outline>
	<anchor name="top" x="350" y="730"/>
</glyph>
<glyph name="Ia-cy" format="2">
	<unicode hex="042F"/>
	<advance width="797"/>
	<outline>
		<contour>
			<point x="487" y="605" type="line"/>
			<point x="462" y="107" type="line"/>
			<point x="385" y="93" type="line"/>
			<point x="379" y="0" type="line"/>
			<point x="772" y="0" type="line"/>
			<point x="778" y="93" type="line"/>
			<point x="694" y="109" type="line"/>
			<point x="713" y="595" type="line"/>
			<point x="797" y="612" type="line"/>
			<point x="799" y="700" type="line"/>
			<point x="413" y="700" type="line" smooth="yes"/>
			<point x="221" y="700"/>
			<point x="121" y="637"/>
			<point x="111" y="524" type="curve" smooth="yes"/>
			<point x="102" y="425"/>
			<point x="184" y="343"/>
			<point x="336" y="333" type="curve"/>
			<point x="335" y="328" type="line"/>
			<point x="240" y="317"/>
			<point x="195" y="290"/>
			<point x="151" y="208" type="curve" smooth="yes"/>
			<point x="115" y="141"/>
			<point x="99" y="120"/>
			<point x="65" y="120" type="curve" smooth="yes"/>
			<point x="50" y="120"/>
			<point x="38" y="124"/>
			<point x="22" y="131" type="curve"/>
			<point x="-6" y="44" type="line"/>
			<point x="26" y="11"/>
			<point x="92" y="-14"/>
			<point x="146" y="-14" type="curve" smooth="yes"/>
			<point x="246" y="-14"/>
			<point x="295" y="4"/>
			<point x="353" y="151" type="curve" smooth="yes"/>
			<point x="380" y="220"/>
			<point x="398" y="278"/>
			<point x="434" y="286" type="curve" smooth="yes"/>
			<point x="453" y="290" type="line"/>
			<point x="456" y="381" type="line"/>
			<point x="450" y="380"/>
			<point x="444" y="379"/>
			<point x="437" y="379" type="curve" smooth="yes"/>
			<point x="385" y="379"/>
			<point x="343" y="426"/>
			<point x="349" y="500" type="curve" smooth="yes"/>
			<point x="354" y="564"/>
			<point x="390" y="605"/>
			<point x="458" y="605" type="curve" smooth="yes"/>
		</contour>
	</outline>
	<anchor name="top" x="477" y="730"/>
</glyph>
<glyph name="be-cy" format="2">
	<unicode hex="0431"/>
	<advance width="632"/>
	<outline>
		<contour>
			<point x="296" y="-16" type="curve" smooth="yes"/>
			<point x="519" y="-16"/>
			<point x="613" y="148"/>
			<point x="613" y="294" type="curve" smooth="yes"/>
			<point x="613" y="414"/>
			<point x="549" y="472"/>
			<point x="429" y="472" type="curve" smooth="yes"/>
			<point x="340" y="472"/>
			<point x="298" y="428"/>
			<point x="244" y="309" type="curve" smooth="yes"/>
			<point x="221" y="258" type="line"/>
			<point x="212" y="260" type="line"/>
			<point x="224" y="390"/>
			<point x="221" y="463"/>
			<point x="248" y="492" type="curve" smooth="yes"/>
			<point x="267" y="511"/>
			<point x="388" y="531"/>
			<point x="471" y="540" type="curve" smooth="yes"/>
			<point x="551" y="549"/>
			<point x="576" y="607"/>
			<point x="590" y="768" type="curve"/>
			<point x="490" y="781" type="line"/>
			<point x="479" y="749"/>
			<point x="460" y="722"/>
			<point x="431" y="717" type="curve" smooth="yes"/>
			<point x="361" y="705"/>
			<point x="291" y="689"/>
			<point x="223" y="650" type="curve" smooth="yes"/>
			<point x="130" y="597"/>
			<point x="35" y="455"/>
			<point x="35" y="254" type="curve" smooth="yes"/>
			<point x="35" y="88"/>
			<point x="112" y="-16"/>
		</contour>
		<contour>
			<point x="367" y="365" type="curve" smooth="yes"/>
			<point x="391" y="365"/>
			<point x="398" y="343"/>
			<point x="398" y="282" type="curve" smooth="yes"/>
			<point x="398" y="187"/>
			<point x="355" y="77"/>
			<point x="303" y="77" type="curve" smooth="yes"/>
			<point x="274" y="77"/>
			<point x="261" y="98"/>
			<point x="256" y="126" type="curve"/>
			<point x="290" y="249"/>
			<point x="333" y="365"/>
		</contour>
	</outline>
	<guideline x="1008" y="471" angle="0"/>
</glyph>
<glyph name="ge-cy" format="2">
	<unicode hex="0433"/>
	<advance width="517"/>
	<outline>
		<contour>
			<point x="51" y="458" type="curve"/>
			<point x="92" y="372" type="line"/>
			<point x="151" y="398"/>
			<point x="180" y="409"/>
			<point x="205" y="409" type="curve" smooth="yes"/>
			<point x="228" y="409"/>
			<point x="252" y="398"/>
			<point x="252" y="367" type="curve" smooth="yes"/>
			<point x="252" y="337"/>
			<point x="246" y="319"/>
			<point x="181" y="286" type="curve" smooth="yes"/>
			<point x="84" y="237"/>
			<point x="35" y="211"/>
			<point x="35" y="130" type="curve" smooth="yes"/>
			<point x="35" y="51"/>
			<point x="103" y="-16"/>
			<point x="227" y="-16" type="curve" smooth="yes"/>
			<point x="315" y="-16"/>
			<point x="395" y="3"/>
			<point x="497" y="73" type="curve"/>
			<point x="456" y="164" type="line"/>
			<point x="411" y="140"/>
			<point x="375" y="126"/>
			<point x="336" y="126" type="curve" smooth="yes"/>
			<point x="289" y="126"/>
			<point x="269" y="148"/>
			<point x="269" y="177" type="curve" smooth="yes"/>
			<point x="269" y="208"/>
			<point x="292" y="224"/>
			<point x="367" y="266" type="curve" smooth="yes"/>
			<point x="469" y="323"/>
			<point x="507" y="351"/>
			<point x="507" y="423" type="curve" smooth="yes"/>
			<point x="507" y="499"/>
			<point x="440" y="536"/>
			<point x="334" y="536" type="curve" smooth="yes"/>
			<point x="211" y="536"/>
			<point x="131" y="501"/>
		</contour>
	</outline>
	<anchor name="top" x="245" y="550"/>
</glyph>
<glyph name="de-cy" format="2">
	<unicode hex="0434"/>
	<advance width="609"/>
	<outline>
		<contour>
			<point x="126" y="722" type="curve"/>
			<point x="158" y="625" type="line"/>
			<point x="190" y="640"/>
			<point x="232" y="656"/>
			<point x="289" y="656" type="curve" smooth="yes"/>
			<point x="348" y="656"/>
			<point x="379" y="622"/>
			<point x="383" y="569" type="curve" smooth="yes"/>
			<point x="385" y="547"/>
			<point x="385" y="530"/>
			<point x="384" y="517" type="curve"/>
			<point x="359" y="526"/>
			<point x="313" y="531"/>
			<point x="290" y="531" type="curve" smooth="yes"/>
			<point x="115" y="531"/>
			<point x="38" y="400"/>
			<point x="38" y="242" type="curve" smooth="yes"/>
			<point x="38" y="89"/>
			<point x="128" y="-14"/>
			<point x="276" y="-14" type="curve" smooth="yes"/>
			<point x="470" y="-14"/>
			<point x="587" y="174"/>
			<point x="587" y="435" type="curve" smooth="yes"/>
			<point x="587" y="634"/>
			<point x="505" y="774"/>
			<point x="321" y="774" type="curve" smooth="yes"/>
			<point x="255" y="774"/>
			<point x="189" y="755"/>
		</contour>
		<contour>
			<point x="300" y="89" type="curve" smooth="yes"/>
			<point x="274" y="89"/>
			<point x="255" y="106"/>
			<point x="255" y="193" type="curve" smooth="yes"/>
			<point x="255" y="338"/>
			<point x="275" y="436"/>
			<point x="334" y="436" type="curve" smooth="yes"/>
			<point x="352" y="436"/>
			<point x="367" y="432"/>
			<point x="380" y="426" type="curve"/>
			<point x="377" y="359"/>
			<point x="374" y="303"/>
			<point x="366" y="239" type="curve" smooth="yes"/>
			<point x="349" y="110"/>
			<point x="322" y="89"/>
		</contour>
	</outline>
</glyph>
<glyph name="ka-cy" format="2">
	<unicode hex="043A"/>
	<advance width="650"/>
	<outline>
		<contour>
			<point x="230" y="186" type="line"/>
			<point x="280" y="414" type="line" smooth="yes"/>
			<point x="296" y="485"/>
			<point x="247" y="531"/>
			<point x="184" y="531" type="curve" smooth="yes"/>
			<point x="149" y="531"/>
			<point x="80" y="528"/>
			<point x="2" y="492" type="curve"/>
			<point x="25" y="407" type="line"/>
			<point x="39" y="413"/>
			<point x="55" y="418"/>
			<point x="68" y="418" type="curve" smooth="yes"/>
			<point x="83" y="418"/>
			<point x="90" y="405"/>
			<point x="88" y="385" type="curve" smooth="yes"/>
			<point x="55" y="0" type="line"/>
			<point x="261" y="0" type="line"/>
			<point x="279" y="60"/>
			<point x="300" y="121"/>
			<point x="321" y="172" type="curve"/>
			<point x="336" y="142"/>
			<point x="347" y="120"/>
			<point x="363" y="90" type="curve" smooth="yes"/>
			<point x="412" y="0"/>
			<point x="429" y="-14"/>
			<point x="471" y="-14" type="curve" smooth="yes"/>
			<point x="506" y="-14"/>
			<point x="564" y="11"/>
			<point x="642" y="101" type="curve"/>
			<point x="595" y="168" type="line"/>
			<point x="580" y="153"/>
			<point x="567" y="143"/>
			<point x="552" y="143" type="curve" smooth="yes"/>
			<point x="526" y="143"/>
			<point x="515" y="167"/>
			<point x="468" y="251" type="curve" smooth="yes"/>
			<point x="445" y="292"/>
			<point x="425" y="325"/>
			<point x="408" y="353" type="curve"/>
			<point x="419" y="373"/>
			<point x="425" y="384"/>
			<point x="432" y="393" type="curve" smooth="yes"/>
			<point x="439" y="402"/>
			<point x="446" y="405"/>
			<point x="452" y="405" type="curve" smooth="yes"/>
			<point x="467" y="405"/>
			<point x="476" y="393"/>
			<point x="491" y="368" type="curve" smooth="yes"/>
			<point x="508" y="340" type="line"/>
			<point x="567" y="365"/>
			<point x="592" y="401"/>
			<point x="592" y="441" type="curve" smooth="yes"/>
			<point x="592" y="485"/>
			<point x="561" y="531"/>
			<point x="491" y="531" type="curve" smooth="yes"/>
			<point x="403" y="531"/>
			<point x="350" y="453"/>
			<point x="305" y="348" type="curve" smooth="yes"/>
			<point x="288" y="309"/>
			<point x="260" y="244"/>
			<point x="239" y="185" type="curve"/>
		</contour>
	</outline>
	<anchor name="top" x="336" y="550"/>
</glyph>
<glyph name="em-cy" format="2">
	<unicode hex="043C"/>
	<advance width="810"/>
	<outline>
		<contour>
			<point x="382" y="-14" type="line"/>
			<point x="516" y="277" type="line"/>
			<point x="520" y="277" type="line"/>
			<point x="507" y="114" type="line" smooth="yes"/>
			<point x="500" y="31"/>
			<point x="554" y="-14"/>
			<point x="635" y="-14" type="curve" smooth="yes"/>
			<point x="711" y="-14"/>
			<point x="786" y="13"/>
			<point x="808" y="25" type="curve"/>
			<point x="783" y="110" type="line"/>
			<point x="763" y="103"/>
			<point x="751" y="99"/>
			<point x="740" y="99" type="curve" smooth="yes"/>
			<point x="726" y="99"/>
			<point x="720" y="109"/>
			<point x="721" y="129" type="curve" smooth="yes"/>
			<point x="736" y="521" type="line"/>
			<point x="526" y="521" type="line"/>
			<point x="420" y="295" type="line"/>
			<point x="416" y="295" type="line"/>
			<point x="391" y="442" type="line" smooth="yes"/>
			<point x="378" y="516"/>
			<point x="325" y="536"/>
			<point x="259" y="536" type="curve" smooth="yes"/>
			<point x="190" y="536"/>
			<point x="125" y="509"/>
			<point x="93" y="489" type="curve"/>
			<point x="132" y="409" type="line"/>
			<point x="152" y="420"/>
			<point x="168" y="424"/>
			<point x="178" y="424" type="curve" smooth="yes"/>
			<point x="184" y="424"/>
			<point x="188" y="424"/>
			<point x="193" y="423" type="curve"/>
			<point x="162" y="374"/>
			<point x="132" y="328"/>
			<point x="101" y="281" type="curve" smooth="yes"/>
			<point x="47" y="198"/>
			<point x="21" y="147"/>
			<point x="21" y="89" type="curve" smooth="yes"/>
			<point x="21" y="19"/>
			<point x="68" y="-16"/>
			<point x="120" y="-16" type="curve" smooth="yes"/>
			<point x="188" y="-16"/>
			<point x="224" y="34"/>
			<point x="221" y="111" type="curve"/>
			<point x="190" y="119" type="line" smooth="yes"/>
			<point x="145" y="131"/>
			<point x="135" y="154"/>
			<point x="157" y="191" type="curve" smooth="yes"/>
			<point x="181" y="232"/>
			<point x="204" y="272"/>
			<point x="228" y="313" type="curve"/>
			<point x="233" y="313" type="line"/>
			<point x="306" y="-14" type="line"/>
		</contour>
	</outline>
</glyph>
<glyph name="en-cy" format="2">
	<unicode hex="043D"/>
	<advance width="678"/>
	<outline>
		<contour>
			<point x="384" y="206" type="line"/>
			<point x="374" y="104" type="line" smooth="yes"/>
			<point x="367" y="31"/>
			<point x="422" y="-14"/>
			<point x="503" y="-14" type="curve" smooth="yes"/>
			<point x="572" y="-14"/>
			<point x="654" y="13"/>
			<point x="676" y="25" type="curve"/>
			<point x="651" y="110" type="line"/>
			<point x="631" y="103"/>
			<point x="619" y="99"/>
			<point x="608" y="99" type="curve" smooth="yes"/>
			<point x="594" y="99"/>
			<point x="588" y="109"/>
			<point x="589" y="129" type="curve" smooth="yes"/>
			<point x="614" y="517" type="line"/>
			<point x="414" y="517" type="line"/>
			<point x="394" y="307" type="line"/>
			<point x="289" y="307" type="line"/>
			<point x="293" y="346"/>
			<point x="299" y="384"/>
			<point x="302" y="423" type="curve" smooth="yes"/>
			<point x="308" y="496"/>
			<point x="246" y="531"/>
			<point x="175" y="531" type="curve" smooth="yes"/>
			<point x="106" y="531"/>
			<point x="24" y="504"/>
			<point x="2" y="492" type="curve"/>
			<point x="27" y="407" type="line"/>
			<point x="47" y="414"/>
			<point x="59" y="418"/>
			<point x="70" y="418" type="curve" smooth="yes"/>
			<point x="84" y="418"/>
			<point x="91" y="408"/>
			<point x="89" y="388" type="curve" smooth="yes"/>
			<point x="57" y="0" type="line"/>
			<point x="254" y="0" type="line"/>
			<point x="275" y="187" type="line"/>
		</contour>
	</outline>
</glyph>
<glyph name="ef-cy" format="2">
	<unicode hex="0444"/>
	<advance width="911"/>
	<outline>
		<contour>
			<point x="549" y="418" type="line"/>
			<point x="580" y="746" type="line"/>
			<point x="559" y="767" type="line"/>
			<point x="292" y="767" type="line"/>
			<point x="280" y="679" type="line"/>
			<point x="384" y="658" type="line"/>
			<point x="375" y="507" type="line"/>
			<point x="353" y="523"/>
			<point x="326" y="531"/>
			<point x="292" y="531" type="curve" smooth="yes"/>
			<point x="114" y="531"/>
			<point x="32" y="381"/>
			<point x="32" y="206" type="curve" smooth="yes"/>
			<point x="32" y="52"/>
			<point x="115" y="-14"/>
			<point x="205" y="-14" type="curve" smooth="yes"/>
			<point x="277" y="-14"/>
			<point x="320" y="28"/>
			<point x="352" y="85" type="curve"/>
			<point x="357" y="83" type="line"/>
			<point x="328" y="-198" type="line"/>
			<point x="352" y="-225" type="line"/>
			<point x="625" y="-229" type="line"/>
			<point x="636" y="-152" type="line"/>
			<point x="532" y="-131" type="line"/>
			<point x="540" y="8" type="line"/>
			<point x="559" y="-3"/>
			<point x="588" y="-14"/>
			<point x="637" y="-14" type="curve" smooth="yes"/>
			<point x="782" y="-14"/>
			<point x="880" y="147"/>
			<point x="880" y="326" type="curve" smooth="yes"/>
			<point x="880" y="457"/>
			<point x="818" y="531"/>
			<point x="715" y="531" type="curve" smooth="yes"/>
			<point x="637" y="531"/>
			<point x="593" y="492"/>
			<point x="554" y="417" type="curve"/>
		</contour>
		<contour>
			<point x="277" y="96" type="curve" smooth="yes"/>
			<point x="251" y="96"/>
			<point x="237" y="110"/>
			<point x="237" y="187" type="curve" smooth="yes"/>
			<point x="237" y="294"/>
			<point x="266" y="436"/>
			<point x="344" y="436" type="curve" smooth="yes"/>
			<point x="356" y="436"/>
			<point x="363" y="433"/>
			<point x="370" y="426" type="curve"/>
			<point x="358" y="254" type="line"/>
			<point x="333" y="140"/>
			<point x="304" y="96"/>
		</contour>
		<contour>
			<point x="642" y="426" type="curve" smooth="yes"/>
			<point x="668" y="426"/>
			<point x="681" y="406"/>
			<point x="681" y="357" type="curve" smooth="yes"/>
			<point x="681" y="226"/>
			<point x="644" y="87"/>
			<point x="571" y="87" type="curve" smooth="yes"/>
			<point x="562" y="87"/>
			<point x="553" y="91"/>
			<point x="546" y="97" type="curve"/>
			<point x="555" y="241" type="line"/>
			<point x="575" y="377"/>
			<point x="609" y="426"/>
		</contour>
	</outline>
</glyph>
<glyph name="hardsign-cy" format="2">
	<unicode hex="044A"/>
	<advance width="621"/>
	<outline>
		<contour>
			<point x="341" y="322" type="curve"/>
			<point x="370" y="382"/>
			<point x="417" y="452"/>
			<point x="470" y="491" type="curve"/>
			<point x="436" y="546" type="line"/>
			<point x="388" y="531"/>
			<point x="354" y="522"/>
			<point x="293" y="522" type="curve" smooth="yes"/>
			<point x="222" y="522"/>
			<point x="160" y="536"/>
			<point x="106" y="536" type="curve" smooth="yes"/>
			<point x="49" y="536"/>
			<point x="20" y="487"/>
			<point x="14" y="327" type="curve"/>
			<point x="116" y="324" type="line"/>
			<point x="118" y="365"/>
			<point x="130" y="391"/>
			<point x="155" y="396" type="curve" smooth="yes"/>
			<point x="189" y="403"/>
			<point x="222" y="410"/>
			<point x="272" y="447" type="curve"/>
			<point x="275" y="443" type="line"/>
			<point x="201" y="382"/>
			<point x="100" y="274"/>
			<point x="100" y="148" type="curve" smooth="yes"/>
			<point x="100" y="43"/>
			<point x="189" y="-16"/>
			<point x="320" y="-16" type="curve" smooth="yes"/>
			<point x="491" y="-16"/>
			<point x="609" y="90"/>
			<point x="609" y="221" type="curve" smooth="yes"/>
			<point x="609" y="302"/>
			<point x="546" y="350"/>
			<point x="469" y="350" type="curve" smooth="yes"/>
			<point x="415" y="350"/>
			<point x="383" y="339"/>
		</contour>
		<contour>
			<point x="313" y="231" type="curve"/>
			<point x="334" y="241"/>
			<point x="354" y="244"/>
			<point x="370" y="244" type="curve" smooth="yes"/>
			<point x="392" y="244"/>
			<point x="407" y="229"/>
			<point x="407" y="205" type="curve" smooth="yes"/>
			<point x="407" y="139"/>
			<point x="370" y="77"/>
			<point x="331" y="77" type="curve" smooth="yes"/>
			<point x="304" y="77"/>
			<point x="291" y="98"/>
			<point x="291" y="135" type="curve" smooth="yes"/>
			<point x="291" y="159"/>
			<point x="297" y="198"/>
		</contour>
	</outline>
	<anchor name="top" x="264" y="550"/>
</glyph>
<glyph name="softsign-cy" format="2">
	<unicode hex="044C"/>
	<advance width="564"/>
	<outline>
		<contour>
			<point x="278" y="322" type="curve"/>
			<point x="284" y="356"/>
			<point x="291" y="389"/>
			<point x="294" y="423" type="curve" smooth="yes"/>
			<point x="300" y="496"/>
			<point x="259" y="531"/>
			<point x="188" y="531" type="curve" smooth="yes"/>
			<point x="119" y="531"/>
			<point x="24" y="504"/>
			<point x="2" y="492" type="curve"/>
			<point x="27" y="407" type="line"/>
			<point x="47" y="414"/>
			<point x="59" y="418"/>
			<point x="70" y="418" type="curve" smooth="yes"/>
			<point x="84" y="418"/>
			<point x="91" y="408"/>
			<point x="89" y="388" type="curve" smooth="yes"/>
			<point x="80" y="301"/>
			<point x="63" y="169"/>
			<point x="63" y="133" type="curve" smooth="yes"/>
			<point x="63" y="43"/>
			<point x="137" y="-16"/>
			<point x="263" y="-16" type="curve" smooth="yes"/>
			<point x="424" y="-16"/>
			<point x="552" y="90"/>
			<point x="552" y="221" type="curve" smooth="yes"/>
			<point x="552" y="302"/>
			<point x="489" y="350"/>
			<point x="412" y="350" type="curve" smooth="yes"/>
			<point x="358" y="350"/>
			<point x="320" y="339"/>
		</contour>
		<contour>
			<point x="262" y="231" type="curve"/>
			<point x="283" y="241"/>
			<point x="297" y="244"/>
			<point x="313" y="244" type="curve" smooth="yes"/>
			<point x="335" y="244"/>
			<point x="350" y="229"/>
			<point x="350" y="205" type="curve" smooth="yes"/>
			<point x="350" y="139"/>
			<point x="319" y="77"/>
			<point x="281" y="77" type="curve" smooth="yes"/>
			<point x="256" y="77"/>
			<point x="246" y="98"/>
			<point x="246" y="125" type="curve" smooth="yes"/>
			<point x="246" y="150"/>
			<point x="254" y="198"/>
		</contour>
	</outline>
</glyph>
<glyph name="ereversed-cy" format="2">
	<unicode hex="044D"/>
	<advance width="568"/>
	<outline>
		<contour>
			<point x="176" y="127" type="curve" smooth="yes"/>
			<point x="186" y="154" type="line"/>
			<point x="166" y="176"/>
			<point x="138" y="189"/>
			<point x="103" y="189" type="curve" smooth="yes"/>
			<point x="59" y="189"/>
			<point x="28" y="157"/>
			<point x="28" y="116" type="curve" smooth="yes"/>
			<point x="28" y="30"/>
			<point x="120" y="-14"/>
			<point x="234" y="-14" type="curve" smooth="yes"/>
			<point x="432" y="-14"/>
			<point x="535" y="122"/>
			<point x="535" y="291" type="curve" smooth="yes"/>
			<point x="535" y="450"/>
			<point x="418" y="531"/>
			<point x="281" y="531" type="curve" smooth="yes"/>
			<point x="141" y="531"/>
			<point x="65" y="455"/>
			<point x="39" y="423" type="curve"/>
			<point x="112" y="362" type="line"/>
			<point x="141" y="392"/>
			<point x="171" y="410"/>
			<point x="219" y="410" type="curve" smooth="yes"/>
			<point x="277" y="410"/>
			<point x="307" y="368"/>
			<point x="309" y="306" type="curve"/>
			<point x="136" y="306" type="line"/>
			<point x="131" y="213" type="line"/>
			<point x="308" y="229" type="line"/>
			<point x="303" y="129"/>
			<point x="267" y="69"/>
			<point x="208" y="69" type="curve" smooth="yes"/>
			<point x="171" y="69"/>
			<point x="164" y="93"/>
		</contour>
	</outline>
	<anchor name="top" x="282" y="550"/>
</glyph>
<glyph name="iu-cy" format="2">
	<unicode hex="044E"/>
	<advance width="913"/>
	<outline>
		<contour>
			<point x="587" y="-17" type="curve" smooth="yes"/>
			<point x="790" y="-17"/>
			<point x="878" y="127"/>
			<point x="880" y="279" type="curve" smooth="yes"/>
			<point x="882" y="428"/>
			<point x="789" y="534"/>
			<point x="628" y="534" type="curve" smooth="yes"/>
			<point x="452" y="534"/>
			<point x="363" y="436"/>
			<point x="340" y="307" type="curve"/>
			<point x="289" y="307" type="line"/>
			<point x="293" y="346"/>
			<point x="299" y="384"/>
			<point x="302" y="423" type="curve" smooth="yes"/>
			<point x="308" y="496"/>
			<point x="246" y="531"/>
			<point x="175" y="531" type="curve" smooth="yes"/>
			<point x="106" y="531"/>
			<point x="24" y="504"/>
			<point x="2" y="492" type="curve"/>
			<point x="27" y="407" type="line"/>
			<point x="47" y="414"/>
			<point x="59" y="418"/>
			<point x="70" y="418" type="curve" smooth="yes"/>
			<point x="84" y="418"/>
			<point x="91" y="408"/>
			<point x="89" y="388" type="curve" smooth="yes"/>
			<point x="57" y="0" type="line"/>
			<point x="254" y="0" type="line"/>
			<point x="275" y="187" type="line"/>
			<point x="336" y="198" type="line"/>
			<point x="349" y="70"/>
			<point x="438" y="-17"/>
		</contour>
		<contour>
			<point x="602" y="77" type="curve" smooth="yes"/>
			<point x="566" y="77"/>
			<point x="557" y="140"/>
			<point x="559" y="236" type="curve" smooth="yes"/>
			<point x="562" y="400"/>
			<point x="584" y="437"/>
			<point x="616" y="437" type="curve" smooth="yes"/>
			<point x="655" y="437"/>
			<point x="659" y="368"/>
			<point x="657" y="280" type="curve" smooth="yes"/>
			<point x="655" y="177"/>
			<point x="648" y="77"/>
		</contour>
	</outline>
	<anchor name="top" x="617" y="550"/>
</glyph>
<glyph name="tshe-cy" format="2">
	<unicode hex="045B"/>
	<advance width="691"/>
	<outline>
		<contour>
			<point x="400" y="539" type="line"/>
			<point x="405" y="638" type="line"/>
			<point x="279" y="638" type="line"/>
			<point x="283" y="743" type="line"/>
			<point x="261" y="767" type="line"/>
			<point x="19" y="767" type="line"/>
			<point x="8" y="679" type="line"/>
			<point x="88" y="666" type="line"/>
			<point x="87" y="638" type="line"/>
			<point x="19" y="638" type="line"/>
			<point x="14" y="539" type="line"/>
			<point x="83" y="539" type="line"/>
			<point x="63" y="0" type="line"/>
			<point x="290" y="0" type="line"/>
			<point x="375" y="310" type="line" smooth="yes"/>
			<point x="394" y="381"/>
			<point x="401" y="385"/>
			<point x="413" y="385" type="curve" smooth="yes"/>
			<point x="422" y="385"/>
			<point x="426" y="378"/>
			<point x="424" y="356" type="curve" smooth="yes"/>
			<point x="402" y="126" type="line" smooth="yes"/>
			<point x="395" y="54"/>
			<point x="417" y="-14"/>
			<point x="530" y="-14" type="curve" smooth="yes"/>
			<point x="578" y="-14"/>
			<point x="649" y="3"/>
			<point x="694" y="31" type="curve"/>
			<point x="672" y="109" type="line"/>
			<point x="658" y="104"/>
			<point x="650" y="100"/>
			<point x="633" y="100" type="curve" smooth="yes"/>
			<point x="608" y="100"/>
			<point x="609" y="117"/>
			<point x="611" y="143" type="curve" smooth="yes"/>
			<point x="629" y="371" type="line" smooth="yes"/>
			<point x="637" y="469"/>
			<point x="597" y="531"/>
			<point x="485" y="531" type="curve" smooth="yes"/>
			<point x="371" y="531"/>
			<point x="332" y="467"/>
			<point x="306" y="365" type="curve" smooth="yes"/>
			<point x="247" y="135" type="line"/>
			<point x="236" y="137" type="line"/>
			<point x="269" y="409" type="line"/>
			<point x="274" y="539" type="line"/>
		</contour>
	</outline>
</glyph>
<glyph name="gheupturn-cy" format="2">
	<unicode hex="0491"/>
	<advance width="508"/>
	<outline>
		<contour>
			<point x="349" y="430" type="curve" smooth="yes"/>
			<point x="377" y="430"/>
			<point x="411" y="423"/>
			<point x="438" y="423" type="curve" smooth="yes"/>
			<point x="470" y="423"/>
			<point x="486" y="435"/>
			<point x="493" y="483" type="curve" smooth="yes"/>
			<point x="500" y="533"/>
			<point x="500" y="589"/>
			<point x="498" y="630" type="curve"/>
			<point x="406" y="638" type="line"/>
			<point x="394" y="561"/>
			<point x="383" y="543"/>
			<point x="363" y="533" type="curve" smooth="yes"/>
			<point x="339" y="521"/>
			<point x="308" y="517"/>
			<point x="245" y="517" type="curve" smooth="yes"/>
			<point x="180" y="517"/>
			<point x="106" y="495"/>
			<point x="103" y="398" type="curve" smooth="yes"/>
			<point x="97" y="210"/>
			<point x="90" y="-26"/>
			<point x="82" y="-83" type="curve" smooth="yes"/>
			<point x="80" y="-98"/>
			<point x="72" y="-107"/>
			<point x="57" y="-107" type="curve" smooth="yes"/>
			<point x="49" y="-107"/>
			<point x="40" y="-105"/>
			<point x="28" y="-100" type="curve" smooth="yes"/>
			<point x="-33" y="-74" type="line"/>
			<point x="-49" y="-93"/>
			<point x="-67" y="-125"/>
			<point x="-67" y="-154" type="curve" smooth="yes"/>
			<point x="-67" y="-199"/>
			<point x="-35" y="-229"/>
			<point x="16" y="-229" type="curve" smooth="yes"/>
			<point x="78" y="-229"/>
			<point x="125" y="-185"/>
			<point x="152" y="-154" type="curve" smooth="yes"/>
			<point x="223" y="-73"/>
			<point x="297" y="18"/>
			<point x="301" y="132" type="curve" smooth="yes"/>
			<point x="310" y="374" type="line" smooth="yes"/>
			<point x="311" y="413"/>
			<point x="321" y="430"/>
		</contour>
	</outline>
</glyph>
<glyph name="zhedescender-cy" format="2">
	<unicode hex="0497"/>
	<advance width="886"/>
	<outline>
		<contour>
			<point x="484" y="226" type="line"/>
			<point x="541" y="517" type="line"/>
			<point x="352" y="517" type="line"/>
			<point x="339" y="307" type="line"/>
			<point x="322" y="298" type="line"/>
			<point x="304" y="366"/>
			<point x="293" y="401"/>
			<point x="276" y="442" type="curve" smooth="yes"/>
			<point x="252" y="500"/>
			<point x="223" y="533"/>
			<point x="174" y="533" type="curve" smooth="yes"/>
			<point x="140" y="533"/>
			<point x="82" y="503"/>
			<point x="14" y="426" type="curve"/>
			<point x="58" y="364" type="line"/>
			<point x="71" y="370"/>
			<point x="80" y="372"/>
			<point x="95" y="372" type="curve" smooth="yes"/>
			<point x="119" y="372"/>
			<point x="134" y="344"/>
			<point x="152" y="304" type="curve" smooth="yes"/>
			<point x="166" y="273"/>
			<point x="173" y="251"/>
			<point x="180" y="226" type="curve"/>
			<point x="84" y="181"/>
			<point x="35" y="128"/>
			<point x="35" y="70" type="curve" smooth="yes"/>
			<point x="35" y="24"/>
			<point x="65" y="-16"/>
			<point x="127" y="-16" type="curve" smooth="yes"/>
			<point x="169" y="-16"/>
			<point x="215" y="8"/>
			<point x="235" y="58" type="curve"/>
			<point x="210" y="86" type="line" smooth="yes"/>
			<point x="195" y="103"/>
			<point x="191" y="109"/>
			<point x="191" y="118" type="curve" smooth="yes"/>
			<point x="191" y="135"/>
			<point x="239" y="173"/>
			<point x="326" y="214" type="curve"/>
			<point x="309" y="0" type="line"/>
			<point x="492" y="0" type="line"/>
			<point x="499" y="70" type="line"/>
			<point x="516" y="104"/>
			<point x="537" y="143"/>
			<point x="556" y="175" type="curve"/>
			<point x="572" y="143"/>
			<point x="589" y="109"/>
			<point x="609" y="76" type="curve" smooth="yes"/>
			<point x="648" y="13"/>
			<point x="678" y="-14"/>
			<point x="710" y="-14" type="curve" smooth="yes"/>
			<point x="732" y="-14"/>
			<point x="751" y="-2"/>
			<point x="771" y="19" type="curve"/>
			<point x="775" y="17" type="line"/>
			<point x="770" y="-45"/>
			<point x="751" y="-116"/>
			<point x="736" y="-166" type="curve"/>
			<point x="804" y="-195" type="line"/>
			<point x="856" y="-146"/>
			<point x="913" y="3"/>
			<point x="919" y="126" type="curve"/>
			<point x="841" y="152" type="line"/>
			<point x="829" y="143"/>
			<point x="816" y="137"/>
			<point x="801" y="137" type="curve" smooth="yes"/>
			<point x="777" y="137"/>
			<point x="734" y="206"/>
			<point x="707" y="252" type="curve" smooth="yes"/>
			<point x="683" y="294"/>
			<point x="669" y="320"/>
			<point x="653" y="350" type="curve"/>
			<point x="664" y="370"/>
			<point x="672" y="384"/>
			<point x="679" y="393" type="curve" smooth="yes"/>
			<point x="701" y="421"/>
			<point x="717" y="400"/>
			<point x="737" y="368" type="curve" smooth="yes"/>
			<point x="755" y="340" type="line"/>
			<point x="814" y="365"/>
			<point x="839" y="401"/>
			<point x="839" y="441" type="curve" smooth="yes"/>
			<point x="839" y="485"/>
			<point x="808" y="531"/>
			<point x="732" y="531" type="curve" smooth="yes"/>
			<point x="650" y="531"/>
			<point x="618" y="473"/>
			<point x="559" y="363" type="curve" smooth="yes"/>
			<point x="543" y="334"/>
			<point x="518" y="281"/>
			<point x="493" y="225" type="curve"/>
		</contour>
	</outline>
</glyph>
<glyph name="Kadescender-cy" format="2">
	<unicode hex="049A"/>
	<advance width="846"/>
	<outline>
		<contour>
			<point x="371" y="390" type="curve"/>
			<point x="368" y="310" type="line"/>
			<point x="420" y="310"/>
			<point x="430" y="283"/>
			<point x="447" y="227" type="curve" smooth="yes"/>
			<point x="464" y="172"/>
			<point x="469" y="154"/>
			<point x="473" y="138" type="curve" smooth="yes"/>
			<point x="501" y="25"/>
			<point x="553" y="-14"/>
			<point x="610" y="-14" type="curve" smooth="yes"/>
			<point x="648" y="-14"/>
			<point x="677" y="-1"/>
			<point x="701" y="21" type="curve"/>
			<point x="709" y="-10"/>
			<point x="712" y="-73"/>
			<point x="711" y="-138" type="curve"/>
			<point x="821" y="-146" type="line"/>
			<point x="838" y="100" type="line"/>
			<point x="786" y="126" type="line"/>
			<point x="774" y="121"/>
			<point x="764" y="120"/>
			<point x="753" y="120" type="curve" smooth="yes"/>
			<point x="728" y="120"/>
			<point x="714" y="133"/>
			<point x="699" y="171" type="curve" smooth="yes"/>
			<point x="685" y="206"/>
			<point x="676" y="227"/>
			<point x="666" y="249" type="curve" smooth="yes"/>
			<point x="640" y="307"/>
			<point x="596" y="349"/>
			<point x="482" y="358" type="curve"/>
			<point x="482" y="362" type="line"/>
			<point x="525" y="372"/>
			<point x="548" y="415"/>
			<point x="580" y="478" type="curve" smooth="yes"/>
			<point x="610" y="537"/>
			<point x="627" y="569"/>
			<point x="638" y="569" type="curve" smooth="yes"/>
			<point x="645" y="569"/>
			<point x="651" y="563"/>
			<point x="658" y="554" type="curve" smooth="yes"/>
			<point x="706" y="495" type="line"/>
			<point x="755" y="517"/>
			<point x="792" y="558"/>
			<point x="792" y="610" type="curve" smooth="yes"/>
			<point x="792" y="673"/>
			<point x="748" y="711"/>
			<point x="681" y="711" type="curve" smooth="yes"/>
			<point x="586" y="711"/>
			<point x="548" y="638"/>
			<point x="511" y="562" type="curve" smooth="yes"/>
			<point x="449" y="435"/>
			<point x="427" y="390"/>
		</contour>
		<contour>
			<point x="127" y="594" type="line"/>
			<point x="104" y="105" type="line"/>
			<point x="20" y="95" type="line"/>
			<point x="16" y="0" type="line"/>
			<point x="429" y="0" type="line"/>
			<point x="433" y="95" type="line"/>
			<point x="335" y="108" type="line"/>
			<point x="358" y="597" type="line"/>
			<point x="444" y="611" type="line"/>
			<point x="452" y="700" type="line"/>
			<point x="46" y="700" type="line"/>
			<point x="39" y="611" type="line"/>
		</contour>
	</outline>
</glyph>
<glyph name="endescender-cy" format="2">
	<unicode hex="04A3"/>
	<advance width="726"/>
	<outline>
		<contour>
			<point x="384" y="206" type="line"/>
			<point x="374" y="105" type="line" smooth="yes"/>
			<point x="367" y="31"/>
			<point x="412" y="-14"/>
			<point x="487" y="-14" type="curve" smooth="yes"/>
			<point x="536" y="-14"/>
			<point x="565" y="1"/>
			<point x="588" y="18" type="curve"/>
			<point x="593" y="17" type="line"/>
			<point x="588" y="-45"/>
			<point x="570" y="-116"/>
			<point x="557" y="-166" type="curve"/>
			<point x="625" y="-195" type="line"/>
			<point x="677" y="-146"/>
			<point x="734" y="-25"/>
			<point x="740" y="98" type="curve"/>
			<point x="662" y="124" type="line"/>
			<point x="649" y="112"/>
			<point x="636" y="99"/>
			<point x="613" y="99" type="curve" smooth="yes"/>
			<point x="599" y="99"/>
			<point x="588" y="109"/>
			<point x="589" y="129" type="curve" smooth="yes"/>
			<point x="597" y="258"/>
			<point x="606" y="388"/>
			<point x="614" y="517" type="curve"/>
			<point x="414" y="517" type="line"/>
			<point x="394" y="307" type="line"/>
			<point x="289" y="307" type="line"/>
			<point x="293" y="346"/>
			<point x="299" y="384"/>
			<point x="302" y="423" type="curve" smooth="yes"/>
			<point x="308" y="496"/>
			<point x="246" y="531"/>
			<point x="175" y="531" type="curve" smooth="yes"/>
			<point x="106" y="531"/>
			<point x="24" y="504"/>
			<point x="2" y="492" type="curve"/>
			<point x="27" y="407" type="line"/>
			<point x="47" y="414"/>
			<point x="59" y="418"/>
			<point x="70" y="418" type="curve" smooth="yes"/>
			<point x="84" y="418"/>
			<point x="91" y="408"/>
			<point x="89" y="388" type="curve" smooth="yes"/>
			<point x="57" y="0" type="line"/>
			<point x="254" y="0" type="line"/>
			<point x="275" y="187" type="line"/>
		</contour>
	</outline>
</glyph>
<glyph name="Ustraitstroke-cy" format="2">
	<unicode hex="04B0"/>
	<advance width="744"/>
	<outline>
		<contour>
			<point x="16" y="700" type="line"/>
			<point x="9" y="609" type="line"/>
			<point x="67" y="595" type="line"/>
			<point x="248" y="267" type="line"/>
			<point x="246" y="242" type="line"/>
			<point x="156" y="242" type="line"/>
			<point x="145" y="148" type="line"/>
			<point x="240" y="148" type="line"/>
			<point x="237" y="106" type="line"/>
			<point x="152" y="93" type="line"/>
			<point x="145" y="0" type="line"/>
			<point x="553" y="0" type="line"/>
			<point x="559" y="93" type="line"/>
			<point x="468" y="106" type="line"/>
			<point x="470" y="148" type="line"/>
			<point x="571" y="148" type="line"/>
			<point x="580" y="242" type="line"/>
			<point x="475" y="242" type="line"/>
			<point x="476" y="259" type="line"/>
			<point x="688" y="592" type="line"/>
			<point x="766" y="609" type="line"/>
			<point x="773" y="700" type="line"/>
			<point x="495" y="700" type="line"/>
			<point x="489" y="613" type="line"/>
			<point x="570" y="595" type="line"/>
			<point x="424" y="366" type="line"/>
			<point x="419" y="366" type="line"/>
			<point x="300" y="597" type="line"/>
			<point x="391" y="610" type="line"/>
			<point x="397" y="700" type="line"/>
		</contour>
	</outline>
</glyph>
<glyph name="Schwa-cy" format="2">
	<unicode hex="04D8"/>
	<advance width="719"/>
	<outline>
		<contour>
			<point x="331" y="-14" type="curve" smooth="yes"/>
			<point x="543" y="-14"/>
			<point x="691" y="128"/>
			<point x="691" y="387" type="curve" smooth="yes"/>
			<point x="691" y="606"/>
			<point x="565" y="715"/>
			<point x="366" y="715" type="curve" smooth="yes"/>
			<point x="213" y="715"/>
			<point x="132" y="640"/>
			<point x="80" y="556" type="curve"/>
			<point x="162" y="491" type="line"/>
			<point x="205" y="554"/>
			<point x="249" y="586"/>
			<point x="311" y="586" type="curve" smooth="yes"/>
			<point x="393" y="586"/>
			<point x="446" y="534"/>
			<point x="455" y="408" type="curve"/>
			<point x="45" y="408" type="line"/>
			<point x="35" y="350"/>
			<point x="31" y="302"/>
			<point x="31" y="265" type="curve" smooth="yes"/>
			<point x="31" y="90"/>
			<point x="150" y="-14"/>
		</contour>
		<contour>
			<point x="337" y="89" type="curve" smooth="yes"/>
			<point x="268" y="89"/>
			<point x="241" y="144"/>
			<point x="241" y="224" type="curve" smooth="yes"/>
			<point x="241" y="253"/>
			<point x="244" y="281"/>
			<point x="248" y="309" type="curve"/>
			<point x="454" y="309" type="line"/>
			<point x="448" y="167"/>
			<point x="405" y="89"/>
		</contour>
	</outline>
</glyph>
<glyph name="schwa-cy" format="2">
	<unicode hex="04D9"/>
	<advance width="574"/>
	<outline>
		<contour>
			<point x="224" y="-14" type="curve" smooth="yes"/>
			<point x="418" y="-14"/>
			<point x="541" y="90"/>
			<point x="541" y="292" type="curve" smooth="yes"/>
			<point x="541" y="452"/>
			<point x="432" y="531"/>
			<point x="284" y="531" type="curve" smooth="yes"/>
			<point x="222" y="531"/>
			<point x="113" y="513"/>
			<point x="39" y="430" type="curve"/>
			<point x="92" y="346" type="line"/>
			<point x="132" y="375"/>
			<point x="185" y="398"/>
			<point x="228" y="398" type="curve" smooth="yes"/>
			<point x="267" y="398"/>
			<point x="309" y="382"/>
			<point x="319" y="322" type="curve"/>
			<point x="239" y="299" type="line" smooth="yes"/>
			<point x="59" y="247"/>
			<point x="33" y="194"/>
			<point x="33" y="122" type="curve" smooth="yes"/>
			<point x="33" y="34"/>
			<point x="109" y="-14"/>
		</contour>
		<contour>
			<point x="254" y="75" type="curve" smooth="yes"/>
			<point x="239" y="75"/>
			<point x="224" y="84"/>
			<point x="224" y="122" type="curve" smooth="yes"/>
			<point x="224" y="177"/>
			<point x="246" y="199"/>
			<point x="292" y="212" type="curve" smooth="yes"/>
			<point x="323" y="221" type="line"/>
			<point x="313" y="107"/>
			<point x="284" y="75"/>
		</contour>
	</outline>
</glyph>
<glyph name="Obarred-cy" format="2">
	<unicode hex="04E8"/>
	<advance width="797"/>
	<outline>
		<contour>
			<point x="38" y="329" type="curve" smooth="yes"/>
			<point x="38" y="120"/>
			<point x="141" y="-16"/>
			<point x="372" y="-16" type="curve" smooth="yes"/>
			<point x="627" y="-16"/>
			<point x="769" y="141"/>
			<point x="769" y="383" type="curve" smooth="yes"/>
			<point x="769" y="586"/>
			<point x="669" y="717"/>
			<point x="430" y="717" type="curve" smooth="yes"/>
			<point x="178" y="717"/>
			<point x="38" y="567"/>
		</contour>
		<contour>
			<point x="389" y="97" type="curve" smooth="yes"/>
			<point x="300" y="97"/>
			<point x="275" y="178"/>
			<point x="273" y="303" type="curve"/>
			<point x="526" y="303" type="line"/>
			<point x="515" y="169"/>
			<point x="483" y="97"/>
		</contour>
		<contour>
			<point x="414" y="610" type="curve" smooth="yes"/>
			<point x="504" y="610"/>
			<point x="526" y="535"/>
			<point x="530" y="412" type="curve"/>
			<point x="278" y="412" type="line"/>
			<point x="292" y="536"/>
			<point x="336" y="610"/>
		</contour>
	</outline>
</glyph>
<glyph name="ecedillabreve" format="2">
	<unicode hex="1E1D"/>
	<advance width="570"/>
	<outline>
		<contour>
			<point x="267" y="-252" type="curve" smooth="yes"/>
			<point x="385" y="-252"/>
			<point x="433" y="-190"/>
			<point x="433" y="-133" type="curve" smooth="yes"/>
			<point x="433" y="-55"/>
			<point x="344" y="-44"/>
			<point x="314" y="-42" type="curve"/>
			<point x="326" y="-12" type="line"/>
			<point x="389" y="-6"/>
			<point x="473" y="19"/>
			<point x="534" y="87" type="curve"/>
			<point x="481" y="171" type="line"/>
			<point x="441" y="142"/>
			<point x="388" y="119"/>
			<point x="345" y="119" type="curve" smooth="yes"/>
			<point x="306" y="119"/>
			<point x="264" y="135"/>
			<point x="254" y="195" type="curve"/>
			<point x="334" y="218" type="line" smooth="yes"/>
			<point x="514" y="270"/>
			<point x="540" y="323"/>
			<point x="540" y="395" type="curve" smooth="yes"/>
			<point x="540" y="483"/>
			<point x="464" y="531"/>
			<point x="349" y="531" type="curve" smooth="yes"/>
			<point x="155" y="531"/>
			<point x="32" y="427"/>
			<point x="32" y="225" type="curve" smooth="yes"/>
			<point x="32" y="83"/>
			<point x="118" y="5"/>
			<point x="241" y="-11" type="curve"/>
			<point x="212" y="-91" type="line"/>
			<point x="226" y="-112" type="line"/>
			<point x="257" y="-104"/>
			<point x="295" y="-107"/>
			<point x="295" y="-133" type="curve" smooth="yes"/>
			<point x="295" y="-161"/>
			<point x="267" y="-167"/>
			<point x="240" y="-167" type="curve" smooth="yes"/>
			<point x="215" y="-167"/>
			<point x="197" y="-164"/>
			<point x="173" y="-158" type="curve"/>
			<point x="149" y="-225" type="line"/>
			<point x="175" y="-240"/>
			<point x="226" y="-252"/>
		</contour>
		<contour>
			<point x="250" y="296" type="line"/>
			<point x="260" y="410"/>
			<point x="289" y="442"/>
			<point x="319" y="442" type="curve" smooth="yes"/>
			<point x="334" y="442"/>
			<point x="349" y="433"/>
			<point x="349" y="395" type="curve" smooth="yes"/>
			<point x="349" y="337"/>
			<point x="325" y="318"/>
			<point x="281" y="305" type="curve" smooth="yes"/>
		</contour>
		<contour>
			<point x="330" y="583" type="curve" smooth="yes"/>
			<point x="446" y="583"/>
			<point x="520" y="661"/>
			<point x="540" y="810" type="curve"/>
			<point x="461" y="822" type="line"/>
			<point x="439" y="745"/>
			<point x="402" y="718"/>
			<point x="333" y="718" type="curve" smooth="yes"/>
			<point x="279" y="718"/>
			<point x="235" y="738"/>
			<point x="211" y="822" type="curve"/>
			<point x="138" y="810" type="line"/>
			<point x="147" y="649"/>
			<point x="213" y="583"/>
		</contour>
	</outline>
</glyph>
<glyph name="prosgegrammeni" format="2">
	<unicode hex="1FBE"/>
	<advance width="394"/>
	<outline>
		<contour>
			<point x="166" y="-14" type="curve" smooth="yes"/>
			<point x="242" y="-14"/>
			<point x="315" y="9"/>
			<point x="369" y="51" type="curve"/>
			<point x="351" y="129" type="line"/>
			<point x="326" y="119"/>
			<point x="285" y="108"/>
			<point x="261" y="108" type="curve" smooth="yes"/>
			<point x="227" y="108"/>
			<point x="213" y="127"/>
			<point x="213" y="156" type="curve" smooth="yes"/>
			<point x="213" y="192"/>
			<point x="230" y="321"/>
			<point x="258" y="413" type="curve"/>
			<point x="235" y="433" type="line"/>
			<point x="36" y="416" type="line"/>
			<point x="27" y="270"/>
			<point x="22" y="178"/>
			<point x="22" y="148" type="curve" smooth="yes"/>
			<point x="22" y="74"/>
			<point x="29" y="-14"/>
		</contour>
	</outline>
	<anchor name="_side" x="-1" y="217"/>
</glyph>
<glyph name="psili" format="2">
	<unicode hex="1FBF"/>
	<advance width="480"/>
	<outline>
		<contour>
			<point x="216" y="573" type="line"/>
			<point x="286" y="599"/>
			<point x="343" y="661"/>
			<point x="343" y="740" type="curve" smooth="yes"/>
			<point x="343" y="783"/>
			<point x="326" y="830"/>
			<point x="260" y="830" type="curve" smooth="yes"/>
			<point x="212" y="830"/>
			<point x="177" y="800"/>
			<point x="177" y="757" type="curve" smooth="yes"/>
			<point x="177" y="716"/>
			<point x="198" y="696"/>
			<point x="243" y="696" type="curve"/>
			<point x="241" y="666"/>
			<point x="218" y="638"/>
			<point x="183" y="619" type="curve"/>
		</contour>
	</outline>
	<anchor name="_top" x="225" y="550"/>
</glyph>
<glyph name="dialytikavaria" format="2">
	<unicode hex="1FED"/>
	<advance width="670"/>
	<outline>
		<contour>
			<point x="386" y="573" type="line"/>
			<point x="440" y="599" type="line"/>
			<point x="384" y="813" type="line"/>
			<point x="366" y="827" type="line"/>
			<point x="355" y="834"/>
			<point x="340" y="837"/>
			<point x="324" y="837" type="curve" smooth="yes"/>
			<point x="291" y="837"/>
			<point x="260" y="816"/>
			<point x="260" y="775" type="curve" smooth="yes"/>
			<point x="260" y="759"/>
			<point x="267" y="742"/>
			<point x="277" y="727" type="curve" smooth="yes"/>
		</contour>
		<contour>
			<point x="147" y="603" type="curve" smooth="yes"/>
			<point x="207" y="603"/>
			<point x="251" y="638"/>
			<point x="251" y="696" type="curve" smooth="yes"/>
			<point x="251" y="752"/>
			<point x="215" y="784"/>
			<point x="152" y="784" type="curve" smooth="yes"/>
			<point x="94" y="784"/>
			<point x="49" y="748"/>
			<point x="49" y="691" type="curve" smooth="yes"/>
			<point x="49" y="635"/>
			<point x="86" y="603"/>
		</contour>
		<contour>
			<point x="565" y="604" type="curve" smooth="yes"/>
			<point x="624" y="604"/>
			<point x="668" y="639"/>
			<point x="668" y="697" type="curve" smooth="yes"/>
			<point x="668" y="753"/>
			<point x="632" y="785"/>
			<point x="570" y="785" type="curve" smooth="yes"/>
			<point x="512" y="785"/>
			<point x="466" y="749"/>
			<point x="466" y="692" type="curve" smooth="yes"/>
			<point x="466" y="636"/>
			<point x="503" y="604"/>
		</contour>
	</outline>
	<anchor name="_top" x="353" y="550"/>
</glyph>
<glyph name="endash" format="2">
	<unicode hex="2013"/>
	<advance width="525"/>
	<outline>
		<contour>
			<point x="26" y="235" type="line"/>
			<point x="521" y="235" type="line"/>
			<point x="524" y="323" type="line"/>
			<point x="29" y="323" type="line"/>
		</contour>
	</outline>
</glyph>
<glyph name="quotesinglbase" format="2">
	<unicode hex="201A"/>
	<advance width="312"/>
	<outline>
		<contour>
			<point x="68" y="-159" type="line"/>
			<point x="216" y="-82"/>
			<point x="265" y="-15"/>
			<point x="265" y="67" type="curve" smooth="yes"/>
			<point x="265" y="110"/>
			<point x="236" y="169"/>
			<point x="158" y="169" type="curve" smooth="yes"/>
			<point x="72" y="169"/>
			<point x="46" y="103"/>
			<point x="55" y="43" type="curve"/>
			<point x="95" y="32" type="line" smooth="yes"/>
			<point x="123" y="24"/>
			<point x="132" y="15"/>
			<point x="132" y="-3" type="curve" smooth="yes"/>
			<point x="132" y="-32"/>
			<point x="114" y="-51"/>
			<point x="27" y="-100" type="curve"/>
		</contour>
	</outline>
</glyph>
<glyph name="daggerdbl" format="2">
	<unicode hex="2021"/>
	<advance width="608"/>
	<outline>
		<contour>
			<point x="352" y="141" type="curve"/>
			<point x="399" y="139"/>
			<point x="437" y="129"/>
			<point x="516" y="108" type="curve"/>
			<point x="542" y="243" type="line"/>
			<point x="520" y="260" type="line"/>
			<point x="486" y="244"/>
			<point x="454" y="237"/>
			<point x="352" y="224" type="curve"/>
			<point x="394" y="367" type="line"/>
			<point x="351" y="510" type="line"/>
			<point x="431" y="505"/>
			<point x="465" y="496"/>
			<point x="514" y="483" type="curve"/>
			<point x="541" y="618" type="line"/>
			<point x="519" y="635" type="line"/>
			<point x="472" y="617"/>
			<point x="420" y="605"/>
			<point x="350" y="593" type="curve"/>
			<point x="357" y="653"/>
			<point x="371" y="685"/>
			<point x="396" y="746" type="curve"/>
			<point x="377" y="766" type="line"/>
			<point x="235" y="736" type="line"/>
			<point x="258" y="663"/>
			<point x="262" y="637"/>
			<point x="267" y="593" type="curve"/>
			<point x="220" y="595"/>
			<point x="182" y="605"/>
			<point x="103" y="626" type="curve"/>
			<point x="77" y="491" type="line"/>
			<point x="98" y="474" type="line"/>
			<point x="138" y="493"/>
			<point x="182" y="499"/>
			<point x="267" y="510" type="curve"/>
			<point x="223" y="367" type="line"/>
			<point x="268" y="224" type="line"/>
			<point x="188" y="229"/>
			<point x="154" y="238"/>
			<point x="105" y="251" type="curve"/>
			<point x="78" y="116" type="line"/>
			<point x="100" y="99" type="line"/>
			<point x="147" y="117"/>
			<point x="199" y="129"/>
			<point x="269" y="141" type="curve"/>
			<point x="262" y="83"/>
			<point x="253" y="58"/>
			<point x="226" y="-11" type="curve"/>
			<point x="245" y="-31" type="line"/>
			<point x="384" y="-2" type="line"/>
			<point x="361" y="71"/>
			<point x="357" y="96"/>
		</contour>
	</outline>
</glyph>
<glyph name="fraction" format="2">
	<unicode hex="2044"/>
	<advance width="366"/>
	<outline>
		<contour>
			<point x="-109" y="-11" type="line"/>
			<point x="49" y="-11" type="line"/>
			<point x="462" y="713" type="line"/>
			<point x="305" y="713" type="line"/>
		</contour>
	</outline>
</glyph>
<glyph name="zerosuperior" format="2">
	<unicode hex="2070"/>
	<advance width="500"/>
	<outline>
		<contour>
			<point x="55" y="576" type="curve" smooth="yes"/>
			<point x="55" y="436"/>
			<point x="123" y="362"/>
			<point x="262" y="362" type="curve" smooth="yes"/>
			<point x="409" y="362"/>
			<point x="489" y="457"/>
			<point x="489" y="626" type="curve" smooth="yes"/>
			<point x="489" y="791"/>
			<point x="386" y="837"/>
			<point x="286" y="837" type="curve" smooth="yes"/>
			<point x="202" y="837"/>
			<point x="55" y="808"/>
		</contour>
		<contour>
			<point x="276" y="734" type="curve" smooth="yes"/>
			<point x="308" y="734"/>
			<point x="327" y="722"/>
			<point x="327" y="622" type="curve" smooth="yes"/>
			<point x="327" y="515"/>
			<point x="306" y="473"/>
			<point x="270" y="473" type="curve" smooth="yes"/>
			<point x="232" y="473"/>
			<point x="218" y="504"/>
			<point x="218" y="585" type="curve" smooth="yes"/>
			<point x="218" y="693"/>
			<point x="240" y="734"/>
		</contour>
	</outline>
</glyph>
<glyph name="sixsuperior" format="2">
	<unicode hex="2076"/>
	<advance width="479"/>
	<outline>
		<contour>
			<point x="253" y="362" type="curve" smooth="yes"/>
			<point x="381" y="362"/>
			<point x="469" y="437"/>
			<point x="469" y="547" type="curve" smooth="yes"/>
			<point x="469" y="630"/>
			<point x="408" y="668"/>
			<point x="330" y="668" type="curve" smooth="yes"/>
			<point x="288" y="668"/>
			<point x="240" y="650"/>
			<point x="204" y="627" type="curve"/>
			<point x="201" y="629" type="line"/>
			<point x="218" y="730"/>
			<point x="261" y="770"/>
			<point x="314" y="770" type="curve" smooth="yes"/>
			<point x="346" y="770"/>
			<point x="358" y="759"/>
			<point x="346" y="734" type="curve" smooth="yes"/>
			<point x="334" y="709" type="line"/>
			<point x="342" y="701"/>
			<point x="375" y="692"/>
			<point x="393" y="692" type="curve" smooth="yes"/>
			<point x="436" y="692"/>
			<point x="463" y="720"/>
			<point x="463" y="755" type="curve" smooth="yes"/>
			<point x="463" y="806"/>
			<point x="407" y="838"/>
			<point x="321" y="838" type="curve" smooth="yes"/>
			<point x="153" y="838"/>
			<point x="51" y="730"/>
			<point x="51" y="555" type="curve" smooth="yes"/>
			<point x="51" y="427"/>
			<point x="122" y="362"/>
		</contour>
		<contour>
			<point x="258" y="443" type="curve" smooth="yes"/>
			<point x="217" y="443"/>
			<point x="198" y="476"/>
			<point x="198" y="555" type="curve"/>
			<point x="229" y="578"/>
			<point x="252" y="588"/>
			<point x="275" y="588" type="curve" smooth="yes"/>
			<point x="303" y="588"/>
			<point x="318" y="577"/>
			<point x="318" y="531" type="curve" smooth="yes"/>
			<point x="318" y="474"/>
			<point x="291" y="443"/>
		</contour>
	</outline>
</glyph>
<glyph name="colonsign" format="2">
	<unicode hex="20A1"/>
	<advance width="705"/>
	<outline>
		<contour>
			<point x="268" y="-87" type="line"/>
			<point x="341" y="-87" type="line"/>
			<point x="348" y="-13" type="line"/>
			<point x="356" y="-13"/>
			<point x="364" y="-14"/>
			<point x="372" y="-14" type="curve"/>
			<point x="366" y="-87" type="line"/>
			<point x="439" y="-87" type="line"/>
			<point x="446" y="-10" type="line"/>
			<point x="580" y="6"/>
			<point x="662" y="78"/>
			<point x="662" y="176" type="curve" smooth="yes"/>
			<point x="662" y="231"/>
			<point x="621" y="270"/>
			<point x="571" y="270" type="curve" smooth="yes"/>
			<point x="543" y="270"/>
			<point x="504" y="257"/>
			<point x="478" y="229" type="curve"/>
			<point x="496" y="189" type="line" smooth="yes"/>
			<point x="518" y="141"/>
			<point x="508" y="103"/>
			<point x="455" y="92" type="curve"/>
			<point x="500" y="601" type="line"/>
			<point x="534" y="584"/>
			<point x="540" y="548"/>
			<point x="520" y="508" type="curve" smooth="yes"/>
			<point x="502" y="472" type="line"/>
			<point x="528" y="444"/>
			<point x="569" y="431"/>
			<point x="595" y="431" type="curve" smooth="yes"/>
			<point x="645" y="431"/>
			<point x="686" y="470"/>
			<point x="686" y="525" type="curve" smooth="yes"/>
			<point x="686" y="615"/>
			<point x="625" y="685"/>
			<point x="509" y="707" type="curve"/>
			<point x="518" y="805" type="line"/>
			<point x="445" y="805" type="line"/>
			<point x="437" y="715" type="line"/>
			<point x="433" y="715"/>
			<point x="428" y="715"/>
			<point x="424" y="715" type="curve" smooth="yes"/>
			<point x="420" y="715"/>
			<point x="416" y="715"/>
			<point x="412" y="715" type="curve"/>
			<point x="420" y="805" type="line"/>
			<point x="347" y="805" type="line"/>
			<point x="338" y="707" type="line"/>
			<point x="162" y="675"/>
			<point x="44" y="538"/>
			<point x="44" y="314" type="curve" smooth="yes"/>
			<point x="44" y="136"/>
			<point x="132" y="31"/>
			<point x="275" y="-2" type="curve"/>
		</contour>
		<contour>
			<point x="292" y="180" type="line"/>
			<point x="276" y="219"/>
			<point x="268" y="270"/>
			<point x="268" y="332" type="curve" smooth="yes"/>
			<point x="268" y="439"/>
			<point x="288" y="514"/>
			<point x="325" y="559" type="curve"/>
		</contour>
		<contour>
			<point x="382" y="94" type="line"/>
			<point x="373" y="96"/>
			<point x="365" y="99"/>
			<point x="358" y="102" type="curve"/>
			<point x="403" y="607" type="line"/>
			<point x="407" y="608"/>
			<point x="411" y="609"/>
			<point x="415" y="610" type="curve" smooth="yes"/>
			<point x="419" y="611"/>
			<point x="424" y="611"/>
			<point x="428" y="611" type="curve"/>
		</contour>
	</outline>
</glyph>
<glyph name="naira" format="2">
	<unicode hex="20A6"/>
	<advance width="869"/>
	<outline>
		<contour>
			<point x="518" y="-19" type="line"/>
			<point x="729" y="0" type="line"/>
			<point x="738" y="247" type="line"/>
			<point x="839" y="247" type="line"/>
			<point x="842" y="340" type="line"/>
			<point x="741" y="340" type="line"/>
			<point x="743" y="398" type="line"/>
			<point x="844" y="398" type="line"/>
			<point x="847" y="490" type="line"/>
			<point x="746" y="490" type="line"/>
			<point x="750" y="592" type="line"/>
			<point x="830" y="609" type="line"/>
			<point x="837" y="700" type="line"/>
			<point x="566" y="700" type="line"/>
			<point x="560" y="609" type="line"/>
			<point x="644" y="592" type="line"/>
			<point x="640" y="490" type="line"/>
			<point x="504" y="490" type="line"/>
			<point x="414" y="700" type="line"/>
			<point x="75" y="700" type="line"/>
			<point x="69" y="607" type="line"/>
			<point x="148" y="596" type="line"/>
			<point x="143" y="490" type="line"/>
			<point x="38" y="490" type="line"/>
			<point x="35" y="398" type="line"/>
			<point x="138" y="398" type="line"/>
			<point x="136" y="340" type="line"/>
			<point x="33" y="340" type="line"/>
			<point x="30" y="247" type="line"/>
			<point x="131" y="247" type="line"/>
			<point x="124" y="104" type="line"/>
			<point x="50" y="91" type="line"/>
			<point x="44" y="0" type="line"/>
			<point x="316" y="0" type="line"/>
			<point x="322" y="91" type="line"/>
			<point x="237" y="104" type="line"/>
			<point x="242" y="247" type="line"/>
			<point x="397" y="247" type="line"/>
		</contour>
		<contour>
			<point x="245" y="340" type="line"/>
			<point x="247" y="398" type="line"/>
			<point x="329" y="398" type="line"/>
			<point x="355" y="340" type="line"/>
		</contour>
		<contour>
			<point x="629" y="199" type="line"/>
			<point x="608" y="247" type="line"/>
			<point x="631" y="247" type="line"/>
		</contour>
		<contour>
			<point x="250" y="490" type="line"/>
			<point x="252" y="567" type="line"/>
			<point x="287" y="490" type="line"/>
		</contour>
		<contour>
			<point x="568" y="340" type="line"/>
			<point x="544" y="398" type="line"/>
			<point x="637" y="398" type="line"/>
			<point x="634" y="340" type="line"/>
		</contour>
	</outline>
</glyph>
<glyph name="dong" format="2">
	<unicode hex="20AB"/>
	<advance width="698"/>
	<outline>
		<contour>
			<point x="167" y="-209" type="line"/>
			<point x="501" y="-209" type="line"/>
			<point x="504" y="-67" type="line"/>
			<point x="170" y="-67" type="line"/>
		</contour>
		<component base="dcroat"/>
	</outline>
</glyph>
<glyph name="euro" format="2">
	<unicode hex="20AC"/>
	<advance width="771"/>
	<outline>
		<contour>
			<point x="450" y="-14" type="curve" smooth="yes"/>
			<point x="621" y="-14"/>
			<point x="728" y="64"/>
			<point x="728" y="176" type="curve" smooth="yes"/>
			<point x="728" y="231"/>
			<point x="687" y="270"/>
			<point x="637" y="270" type="curve" smooth="yes"/>
			<point x="601" y="270"/>
			<point x="556" y="253"/>
			<point x="530" y="225" type="curve"/>
			<point x="548" y="189" type="line" smooth="yes"/>
			<point x="576" y="132"/>
			<point x="566" y="89"/>
			<point x="496" y="89" type="curve" smooth="yes"/>
			<point x="426" y="89"/>
			<point x="381" y="142"/>
			<point x="364" y="237" type="curve"/>
			<point x="492" y="237" type="line"/>
			<point x="502" y="323" type="line"/>
			<point x="357" y="323" type="line"/>
			<point x="357" y="326"/>
			<point x="357" y="329"/>
			<point x="357" y="332" type="curve" smooth="yes"/>
			<point x="357" y="348"/>
			<point x="357" y="364"/>
			<point x="358" y="379" type="curve"/>
			<point x="504" y="379" type="line"/>
			<point x="514" y="465" type="line"/>
			<point x="370" y="465" type="line"/>
			<point x="394" y="564"/>
			<point x="447" y="612"/>
			<point x="520" y="612" type="curve" smooth="yes"/>
			<point x="590" y="612"/>
			<point x="600" y="569"/>
			<point x="572" y="512" type="curve" smooth="yes"/>
			<point x="554" y="476" type="line"/>
			<point x="580" y="448"/>
			<point x="625" y="431"/>
			<point x="661" y="431" type="curve" smooth="yes"/>
			<point x="711" y="431"/>
			<point x="752" y="470"/>
			<point x="752" y="525" type="curve" smooth="yes"/>
			<point x="752" y="635"/>
			<point x="661" y="715"/>
			<point x="490" y="715" type="curve" smooth="yes"/>
			<point x="316" y="715"/>
			<point x="187" y="628"/>
			<point x="140" y="465" type="curve"/>
			<point x="46" y="465" type="line"/>
			<point x="36" y="379" type="line"/>
			<point x="123" y="379" type="line"/>
			<point x="122" y="371"/>
			<point x="121" y="362"/>
			<point x="121" y="353" type="curve" smooth="yes"/>
			<point x="120" y="343"/>
			<point x="120" y="333"/>
			<point x="120" y="323" type="curve"/>
			<point x="33" y="323" type="line"/>
			<point x="24" y="237" type="line"/>
			<point x="126" y="237" type="line"/>
			<point x="152" y="69"/>
			<point x="269" y="-14"/>
		</contour>
	</outline>
</glyph>
